<?xml version="1.0" encoding="utf-8"?>
<!-- Generator: Adobe Illustrator 15.0.2, SVG Export Plug-In . SVG Version: 6.00 Build 0)  -->
<!DOCTYPE svg PUBLIC "-//W3C//DTD SVG 1.1//EN" "http://www.w3.org/Graphics/SVG/1.1/DTD/svg11.dtd">
<svg version="1.1" id="Layer_1" xmlns="http://www.w3.org/2000/svg" xmlns:xlink="http://www.w3.org/1999/xlink" x="0px" y="0px"
	 width="500px" height="83px" viewBox="0 212.5 500 83" enable-background="new 0 212.5 500 83" xml:space="preserve">
<g>
	<path fill="none" d="M285.668,259.048h9.772c0.465,0,0.932-0.466,0.932-0.931c-0.156-5.429-1.862-8.997-5.43-8.997
		c-3.878,0-5.584,4.033-6.205,8.997C284.737,258.582,285.048,259.048,285.668,259.048z"/>
	<path fill="none" d="M432.25,249.275c-3.877,0-6.05,5.584-6.05,13.34c0,10.083,2.638,17.528,7.445,17.528
		c3.879,0,5.896-5.585,5.896-13.186C439.541,256.721,436.904,249.275,432.25,249.275z"/>
	<path fill="none" d="M389.438,249.275c-3.877,0-6.049,5.584-6.049,13.34c0,10.083,2.637,17.528,7.445,17.528
		c3.878,0,5.895-5.585,5.895-13.186C396.729,256.721,394.093,249.275,389.438,249.275z"/>
	<path fill="none" d="M214.006,249.275c-3.878,0-6.05,5.584-6.05,13.34c0,10.083,2.637,17.528,7.446,17.528
		c3.878,0,5.895-5.585,5.895-13.186C221.296,256.721,218.659,249.275,214.006,249.275z"/>
	<path fill="#595A5C" d="M195.237,279.368c-3.413-0.312-4.809-1.087-5.274-4.344l-4.499-30.712v-0.156
		c0-3.567,1.086-4.808,5.119-5.118c0.31-0.311,0.465-0.62,0.775-0.931v-3.258c0-0.466-0.465-0.931-0.931-0.931h-18.303
		c-0.466,0-0.776,0.311-0.931,0.776c-0.156,1.241-0.621,2.326-1.086,3.877l-8.221,23.733c-0.31,0.775-1.396,0.775-1.706,0
		l-8.842-23.733c-0.465-1.551-0.931-2.636-1.085-3.877c0-0.466-0.465-0.776-0.931-0.776h-18.924c-0.465,0-0.93,0.465-0.93,0.931
		v3.258c0,0.465,0.31,0.931,0.775,0.931c4.033,0.311,5.119,1.551,5.274,5.118v0.156l-4.499,30.712
		c-0.465,3.257-1.861,4.188-5.894,4.344l0,0v4.032c0,0.466,0.465,0.931,0.93,0.931h17.683c0.465,0,0.931-0.465,0.931-0.931v-3.257
		c0-0.466-0.311-0.932-0.775-0.932c-4.344-0.31-6.05-1.24-6.05-4.498c0-0.31,0-1.24,0.155-1.861l2.636-19.854
		c0.156-0.932,1.396-1.087,1.707-0.156l11.479,30.868c0.155,0.31,0.465,0.62,0.776,0.62h4.343c0.311,0,0.776-0.311,0.776-0.62
		l10.857-30.712c0.311-0.932,1.552-0.776,1.707,0.154l3.258,19.854c0,0.621,0.155,1.551,0.155,1.861
		c0,3.257-1.551,4.188-6.049,4.499c-0.465,0-0.776,0.464-0.776,0.931v3.257c0,0.465,0.465,0.931,0.931,0.931h25.439
		c0.465,0,0.931-0.466,0.931-0.931v-3.257C196.013,279.832,195.703,279.368,195.237,279.368z"/>
	<path fill="#595A5C" d="M215.247,244.156c-12.099,0-21.095,8.222-21.095,21.096c0,11.168,7.911,19.854,20.009,19.854
		c12.099,0,21.096-8.22,21.096-21.095C235.256,252.843,227.346,244.156,215.247,244.156z M215.402,279.987
		c-4.809,0-7.446-7.444-7.446-17.527c0-7.601,2.017-13.34,6.05-13.34c4.653,0,7.291,7.601,7.291,17.528
		C221.296,274.404,219.28,279.987,215.402,279.987z"/>
	<path fill="#595A5C" d="M275.586,249.896c0.311-0.154,0.62-0.465,0.62-0.775v-3.258c0-0.464-0.465-0.931-0.931-0.931h-13.805
		c-0.465,0-0.931,0.467-0.931,0.931v3.103c0,0.466,0.31,0.776,0.775,0.931c3.103,0.466,4.033,0.931,4.033,2.482
		c0,0.621-0.155,1.086-0.62,2.327l-5.585,12.253c-0.31,0.775-1.396,0.775-1.706,0l-5.273-12.253c-0.466-1.241-0.62-1.862-0.62-2.482
		c0-1.551,0.93-2.017,4.032-2.481c0.465,0,0.775-0.466,0.775-0.931v-3.104c0-0.464-0.465-0.93-0.931-0.93H233.24
		c-0.466,0-0.931,0.466-0.931,0.93v3.258c0,0.311,0.31,0.776,0.621,0.776c2.017,0.775,2.637,1.24,3.413,2.637l15.976,31.643
		c0.155,0.311,0.466,0.466,0.776,0.466h3.103c0.31,0,0.62-0.155,0.775-0.466l15.2-31.643
		C272.639,251.137,273.568,250.672,275.586,249.896z"/>
	<path fill="#595A5C" d="M307.539,271.146l-1.086-0.776c-0.311-0.31-0.931-0.154-1.241,0.156c-2.326,2.792-5.583,4.188-9.771,4.188
		c-6.05,0-10.393-4.032-10.858-10.393c0-0.465,0.311-0.931,0.931-0.931h21.561c0.466,0,0.932-0.465,0.932-0.931v-1.861
		c0-8.997-5.43-16.442-15.821-16.442c-10.703,0-19.7,8.532-19.7,21.717c0,11.943,7.911,19.078,18.613,19.078
		c8.997,0,14.736-5.119,16.752-12.875C308.005,271.768,307.849,271.457,307.539,271.146z M290.942,249.12
		c3.567,0,5.273,3.723,5.43,8.997c0,0.465-0.467,0.931-0.932,0.931h-9.772c-0.62,0-0.931-0.466-0.931-1.086
		C285.358,253.153,287.064,249.12,290.942,249.12z"/>
	<path fill="#595A5C" d="M366.947,267.113h-4.343c-0.311,0-0.621,0.156-0.776,0.466c-5.583,9.927-6.824,11.633-11.168,11.633h-6.204
		c-0.466,0-0.931-0.465-0.931-0.931v-34.435c0-3.567,0.62-4.498,4.653-4.809c0.466,0,0.775-0.466,0.775-0.931v-3.258
		c0-0.466-0.465-0.931-0.931-0.931h-23.732c-0.465,0-0.931,0.465-0.931,0.931v3.413c0,0.465,0.311,0.931,0.775,0.931
		c4.034,0.31,4.81,1.24,4.81,4.808v30.713c0,3.567-0.775,4.498-4.81,4.81c-0.465,0-0.775,0.464-0.775,0.93v3.258
		c0,0.464,0.466,0.931,0.931,0.931h40.174c0.466,0,0.776-0.311,0.932-0.775l2.481-15.512
		C367.878,267.579,367.413,267.113,366.947,267.113z"/>
	<path fill="#595A5C" d="M390.68,244.156c-12.099,0-21.095,8.222-21.095,21.096c0,11.168,7.91,19.854,20.01,19.854
		c12.099,0,21.095-8.22,21.095-21.095C410.689,252.843,402.778,244.156,390.68,244.156z M390.835,279.987
		c-4.809,0-7.445-7.444-7.445-17.527c0-7.601,2.017-13.34,6.049-13.34c4.654,0,7.291,7.601,7.291,17.528
		C396.729,274.404,394.713,279.987,390.835,279.987z"/>
	<path fill="#595A5C" d="M433.492,244.156c-12.1,0-21.097,8.222-21.097,21.096c0,11.168,7.911,19.854,20.01,19.854
		s21.096-8.22,21.096-21.095C453.501,252.843,445.59,244.156,433.492,244.156z M433.646,279.987c-4.808,0-7.445-7.444-7.445-17.527
		c0-7.601,2.018-13.34,6.05-13.34c4.654,0,7.291,7.601,7.291,17.528C439.541,274.404,437.524,279.987,433.646,279.987z"/>
	<path fill="#595A5C" d="M481.887,279.057l-0.931-2.17c-0.155-0.467-0.775-0.776-1.24-0.467c-1.553,0.621-3.104,0.931-4.499,0.931
		c-3.103,0-4.499-1.551-4.499-4.963v-21.251c0-0.465,0.466-0.931,0.932-0.931h7.755c0.465,0,0.931-0.465,0.931-0.931v-3.568
		c0-0.464-0.466-0.93-0.931-0.93h-7.755c-0.466,0-0.932-0.465-0.932-0.931v-7.135c0-0.466-0.465-0.931-0.931-0.931h-2.946
		c-0.311,0-0.466,0.155-0.621,0.31c-3.567,4.188-8.686,8.377-13.34,10.083c-0.31,0.154-0.619,0.464-0.619,0.775v2.481
		c0,0.465,0.465,0.931,0.93,0.931h2.947c0.466,0,0.931,0.465,0.931,0.931v22.49c0,7.756,3.878,11.479,11.479,11.479
		c5.119,0,9.463-1.706,12.875-4.963C481.887,279.832,481.887,279.368,481.887,279.057z"/>
</g>
<g>
	<path fill="none" d="M80.536,262.19c-3.063,3.062-7.305,4.947-11.781,5.183h-13.43c3.534,2.592,8.011,4.006,12.488,4.006
		c5.889,0,11.545-2.356,15.55-6.597l11.78-11.78h-5.419L80.536,262.19z"/>
	<path fill="none" d="M77.708,259.362c0,0,4.477-4.477,7.54-7.54c-5.654-1.884-10.837-8.482-15.079-12.723
		c-4.006-4.005-8.483-4.948-15.551-4.948c-6.597,0-21.676,0-21.676,0l4.005,4.006h19.084c6.126,0,13.666,5.89,13.666,14.608
		c0,6.833-4.476,10.603-4.712,10.603h3.534C72.054,263.368,75.353,261.954,77.708,259.362z"/>
	<path fill="none" d="M62.394,274.677l5.889,5.892h5.892l-5.184-5.184C67.105,275.385,64.042,275.149,62.394,274.677z"/>
	<path fill="none" d="M93.73,231.088c-5.184,0-12.723,2.121-17.2,3.063c0,0,5.655,14.608,16.965,14.608
		c6.597,0,9.189-4.006,9.189-8.954S98.679,231.088,93.73,231.088z M96.087,240.513c-1.178,0-2.121-0.942-2.121-2.12
		c0-1.179,0.943-2.122,2.121-2.122s2.121,0.943,2.121,2.122C98.208,239.571,97.265,240.513,96.087,240.513z"/>
	<path fill="#F05554" d="M112.344,237.45h-5.891c-1.178-5.89-6.361-10.368-12.723-10.368c-5.419,0-10.838,1.414-19.32,3.063H11.972
		c0,2.12,1.885,4.005,4.005,4.005h11.309l4.005,4.006H19.982c0,2.12,1.885,4.005,4.006,4.005l0,0l0,0l0,0h32.043
		c4.242,0,9.66,4.242,9.66,10.603c0,5.654-4.711,10.603-9.66,10.603c-3.77,0-5.654-0.472-8.246-3.063l-14.138-13.9h-5.654
		l38.405,38.405h22.383c0-2.122-1.885-4.005-4.005-4.005h-4.948l-5.891-6.128c4.713-1.178,9.189-3.534,12.487-7.067
		c0,0,20.499-20.499,26.154-26.154h3.77C116.35,239.099,114.465,237.45,112.344,237.45z M69.697,252.766
		c0-8.718-7.539-14.608-13.666-14.608H36.947l-4.005-4.006c0,0,15.079,0,21.676,0c6.833,0,11.545,0.942,15.551,4.948
		c4.241,4.241,9.425,10.839,15.079,12.723c-3.062,3.063-7.54,7.54-7.54,7.54c-2.356,2.356-5.655,3.77-8.953,4.006h-3.534
		C65.222,263.368,69.697,259.599,69.697,252.766z M74.175,280.568h-5.892l-5.889-5.892c1.883,0.473,4.711,0.708,6.597,0.708
		L74.175,280.568z M83.6,264.782c-4.241,4.24-9.661,6.597-15.551,6.597c-4.477,0-8.954-1.414-12.487-4.006h13.43
		c4.477-0.235,8.482-1.886,11.781-5.183l9.425-9.425h5.418L83.6,264.782z M93.496,248.76c-11.31,0-16.965-14.608-16.965-14.608
		c4.478-0.942,12.252-3.063,17.2-3.063c4.948,0,8.954,4.006,8.954,8.954S99.856,248.76,93.496,248.76z"/>
	<circle fill="#F05554" cx="96.087" cy="238.392" r="2.121"/>
</g>
</svg>
