<?xml version="1.0" standalone="no"?>
<!DOCTYPE svg PUBLIC "-//W3C//DTD SVG 1.1//EN" "http://www.w3.org/Graphics/SVG/1.1/DTD/svg11.dtd" >
<svg xmlns="http://www.w3.org/2000/svg">
<metadata>
Created by FontPrep 20130207 at Thu Nov 19 10:00:00 2015
 By Kenneth James Hamer
(c) 2010 Klim Type Foundry. All rights reserved.
</metadata>
<defs>
<font id="ee82c367a226b8d440943da87a247c1b" horiz-adv-x='1024' >
  <font-face 
    font-family="TiemposHeadline-Bold"
    font-weight="700"
    font-stretch="normal"
    units-per-em="2048"
    panose-1="2 2 8 3 6 3 3 6 4 3"
    ascent="1604"
    descent="-444"
    x-height="1104"
    cap-height="1438"
    bbox="-217 -502 2716 2144"
    underline-thickness="61"
    underline-position="-144"
    unicode-range="U+0020-FB04"
  />
<missing-glyph horiz-adv-x="1966" 
d="M1075 799l563 -563v1126zM891 799l-563 563v-1126zM412 1462l571 -571l571 571h-1142zM983 707l-571 -572h1142zM184 0v1597h1598v-1597h-1598z" />
    <glyph glyph-name="ff" unicode="ff" horiz-adv-x="1460" 
d="M848 1153q0 96 29 176q-57 160 -197 160t-141 -217v-168h309v49zM162 1135q0 223 136 333t340 109q204 0 329 -100q129 127 360 127q317 0 318 -199q0 -90 -76 -129h-193q10 47 10 96q0 141 -73 141q-88 0 -88 -143v-266h239v-111h-239v-803q1 -61 33 -79t131 -31v-80
h-652v80q67 4 89 18t22 62v833h-309v-833q0 -47 22 -62q23 -14 88 -18v-80h-602v80q67 4 91 18t24 62v833h-148v82l148 39v21z" />
    <glyph glyph-name="fi" unicode="fi" horiz-adv-x="1372" 
d="M1225 1124v-964q0 -47 23 -62q24 -14 91 -18v-80h-602v80q67 4 89 18t22 62v833h-309v-833q0 -47 22 -62q23 -14 88 -18v-80h-602v80q67 4 91 18t24 62v833h-148v82l148 39v27q0 229 150 346q151 117 386 117q180 0 276 -52t95 -147q0 -94 -78 -131h-215q8 57 8 94
q0 147 -108 148q-137 0 -137 -238v-174h526l78 20h82z" />
    <glyph glyph-name="fl" unicode="fl" horiz-adv-x="1372" 
d="M1225 1604v-1444q0 -47 23 -62q24 -14 91 -18v-80h-602v80q67 4 89 18t22 62v1210q-57 145 -174 146q-135 0 -135 -209v-203h188v-111h-188v-833q0 -47 22 -62q23 -14 88 -18v-80h-602v80q67 4 91 18t24 62v833h-148v82l148 39v39q0 225 129 338t348 113q154 0 272 -60
l250 60h64z" />
    <glyph glyph-name="ffi" unicode="ffi" horiz-adv-x="2058" 
d="M848 1141q0 100 31 180q-55 168 -197 168t-143 -217v-168h309v37zM162 1135q0 223 136 333t346 109q210 0 333 -109q147 135 407 136q180 0 276 -52t95 -147q0 -94 -78 -131h-217q10 47 10 94q0 147 -108 148q-137 0 -137 -238v-174h526l78 20h82v-964q0 -47 23 -62
q24 -14 91 -18v-80h-602v80q67 4 89 18t22 62v833h-309v-833q0 -47 23 -62q24 -14 91 -18v-80h-602v80q67 4 89 18t22 62v833h-309v-833q0 -47 22 -62q23 -14 88 -18v-80h-602v80q67 4 91 18t24 62v833h-148v82l148 39v21z" />
    <glyph glyph-name="ffl" unicode="ffl" horiz-adv-x="2058" 
d="M848 1104v49q0 94 26 180q-55 156 -192 156q-143 0 -143 -217v-168h309zM162 1135q0 223 136 333t339 109q203 0 328 -98q125 125 360 125q154 0 272 -60l250 60h64v-1444q0 -47 23 -62q24 -14 91 -18v-80h-602v80q67 4 89 18t22 62v1210q-57 145 -174 146
q-135 0 -135 -209v-203h188v-111h-188v-833q0 -47 22 -62q23 -14 88 -18v-80h-598v80q67 4 89 18t22 62v833h-309v-833q0 -47 22 -62q23 -14 88 -18v-80h-602v80q67 4 91 18t24 62v833h-148v82l148 39v21z" />
    <glyph glyph-name="f_b" unicode="fb" horiz-adv-x="2025" 
d="M1370 76q109 0 168 121t59 315t-65 291q-66 98 -184 98q-70 0 -123 -35v-577q0 -213 145 -213zM539 1307v-203h188v-111h-188v-833q0 -47 22 -62q23 -14 88 -18v-80h-602v80q67 4 91 18t24 62v833h-148v82l148 39v39q0 225 129 338t348 113q154 0 272 -60l250 60h64v-678
q129 199 344 198q188 0 301 -130t112 -373q0 -305 -172 -473t-438 -168q-346 0 -524 141v1249q-57 145 -174 146q-135 0 -135 -209z" />
    <glyph glyph-name="f_f_b" unicode="ffb" horiz-adv-x="2711" 
d="M848 1153q0 94 26 180q-55 156 -192 156q-143 0 -143 -217v-168h309v49zM2056 76q109 0 168 121q60 121 60 315t-66 291q-66 98 -184 98q-72 0 -123 -35v-577q0 -213 145 -213zM1225 1307v-203h188v-111h-188v-833q0 -47 22 -62q23 -14 88 -18v-80h-598v80q67 4 89 18
t22 62v833h-309v-833q0 -47 22 -62q23 -14 88 -18v-80h-602v80q67 4 91 18t24 62v833h-148v82l148 39v21q0 223 136 333t339 109q203 0 328 -98q125 125 360 125q154 0 272 -60l250 60h64v-678q129 199 344 198q188 0 301 -130t113 -373q0 -305 -172 -473t-439 -168
q-346 0 -524 141v1249q-57 145 -174 146q-135 0 -135 -209z" />
    <glyph glyph-name="f_h" unicode="fh" horiz-adv-x="2048" 
d="M848 160v1210q-57 145 -174 146q-135 0 -135 -209v-203h172v-111h-172v-833q0 -47 22 -62q23 -14 88 -18v-80h-602v80q67 4 91 18t24 62v833h-148v82l148 39v39q0 225 129 338t348 113q154 0 272 -60l250 60h64v-684q162 205 381 204q150 0 230 -85t81 -251v-628
q0 -47 23 -62q24 -14 92 -18v-80h-605v80q66 4 89 18t22 62v598q0 72 -31 108t-111 35q-80 0 -171 -45v-696q0 -47 22 -62q23 -14 88 -18v-80h-602v80q67 4 91 18t24 62z" />
    <glyph glyph-name="f_f_h" unicode="ffh" horiz-adv-x="2734" 
d="M848 1153q0 94 26 180q-55 156 -192 156q-143 0 -143 -217v-168h309v49zM1534 160v1210q-57 145 -174 146q-135 0 -135 -209v-203h188v-111h-188v-833q0 -47 22 -62q23 -14 88 -18v-80h-598v80q67 4 89 18t22 62v833h-309v-833q0 -47 22 -62q23 -14 88 -18v-80h-602v80
q67 4 91 18t24 62v833h-148v82l148 39v21q0 223 136 333t339 109q203 0 328 -98q125 125 360 125q154 0 272 -60l250 60h64v-684q162 205 381 204q150 0 230 -85t81 -251v-628q0 -48 24 -62t89 -18v-80h-602v80q66 4 88 18t22 62v598q0 72 -31 108t-111 35q-80 0 -171 -45
v-696q0 -47 22 -62q23 -14 88 -18v-80h-602v80q67 4 91 18t24 62z" />
    <glyph glyph-name="f_idieresis" unicode="f&#xef;" horiz-adv-x="1372" 
d="M1075 1407q0 70 51 120t122 50t122 -49t51 -120t-51 -121t-122 -50t-122 50t-51 120zM1225 1124v-964q0 -47 23 -62q24 -14 91 -18v-80h-602v80q67 4 89 18t22 62v833h-309v-833q0 -47 22 -62q23 -14 88 -18v-80h-602v80q67 4 91 18t24 62v833h-148v82l148 39v27
q0 227 148 345t378 118q162 0 246 -56t84 -155q0 -43 -22 -80t-56 -53h-213q10 47 10 100q0 156 -82 156q-117 0 -116 -238v-174h526l78 20h82z" />
    <glyph glyph-name="f_f_idieresis" unicode="ff&#xef;" horiz-adv-x="2058" 
d="M1761 1407q0 70 51 120t122 50t122 -49t51 -120t-51 -121t-122 -50t-122 50t-51 120zM848 1104v37q0 104 31 180q-55 168 -197 168t-143 -217v-168h309zM162 1135q0 223 136 333t343 109q207 0 334 -109q143 135 399 136q162 0 246 -56t84 -155q0 -43 -22 -80t-56 -53
h-213q10 47 10 100q0 156 -82 156q-117 0 -116 -238v-174h526l78 20h82v-964q0 -47 23 -62q24 -14 91 -18v-80h-602v80q67 4 89 18t22 62v833h-309v-833q0 -47 23 -62q24 -14 91 -18v-80h-602v80q67 4 89 18t22 62v833h-309v-833q0 -47 22 -62q23 -14 88 -18v-80h-602v80
q67 4 91 18t24 62v833h-148v82l148 39v21z" />
    <glyph glyph-name="f_j" unicode="fj" horiz-adv-x="1337" 
d="M848 993h-309v-833q0 -47 22 -62q23 -14 88 -18v-80h-602v80q67 4 91 18t24 62v833h-148v82l148 39v27q0 229 150 346q151 117 386 117q180 0 276 -52t95 -147q0 -94 -78 -131h-215q8 57 8 94q0 147 -108 148q-137 0 -137 -238v-174h526l78 20h82v-907q0 -164 -34 -256
t-112 -169q-79 -77 -155 -126t-195 -102l-33 41l84 131q45 72 57 159q11 87 11 234v864z" />
    <glyph glyph-name="f_f_j" unicode="ffj" horiz-adv-x="2023" 
d="M848 1141q0 100 31 180q-55 168 -197 168t-143 -217v-168h309v37zM1534 993h-309v-833q0 -47 23 -62q24 -14 91 -18v-80h-602v80q67 4 89 18t22 62v833h-309v-833q0 -47 22 -62q23 -14 88 -18v-80h-602v80q67 4 91 18t24 62v833h-148v82l148 39v21q0 223 136 333t346 109
q210 0 333 -109q147 135 407 136q180 0 276 -52t95 -147q0 -94 -78 -131h-217q10 47 10 94q0 147 -108 148q-137 0 -137 -238v-174h526l78 20h82v-907q0 -164 -34 -256t-112 -169q-79 -77 -155 -126t-195 -102l-33 41l84 131q45 72 57 159q11 87 11 234v864z" />
    <glyph glyph-name="f_k" unicode="fk" horiz-adv-x="2000" 
d="M848 160v1210q-57 145 -174 146q-135 0 -135 -209v-203h188v-111h-188v-833q0 -47 22 -62q23 -14 88 -18v-80h-602v80q67 4 91 18t24 62v833h-148v82l148 39v39q0 225 129 338t348 113q154 0 272 -60l250 60h64v-1444q0 -47 23 -62q24 -14 91 -18v-80h-606v80q67 4 91 18
t24 62zM1620 958q0 34 -26 46t-97 20v80h463v-80q-111 -16 -170 -76l-234 -221l445 -672v-55h-391l-371 580l315 284q66 60 66 94z" />
    <glyph glyph-name="f_f_k" unicode="ffk" horiz-adv-x="2686" 
d="M848 1153q0 94 26 180q-55 156 -192 156q-143 0 -143 -217v-168h309v49zM2183 1104h463v-80q-111 -16 -170 -76l-233 -221l444 -672v-55h-391l-371 580l316 284q65 60 65 94t-26 46t-97 20v80zM1534 160v1210q-57 145 -174 146q-135 0 -135 -209v-203h188v-111h-188v-833
q0 -47 22 -62q23 -14 88 -18v-80h-598v80q67 4 89 18t22 62v833h-309v-833q0 -47 22 -62q23 -14 88 -18v-80h-602v80q67 4 91 18t24 62v833h-148v82l148 39v21q0 223 136 333t339 109q203 0 328 -98q125 125 360 125q154 0 272 -60l250 60h64v-1444q0 -47 23 -62
q24 -14 91 -18v-80h-606v80q67 4 91 18t24 62z" />
    <glyph glyph-name=".notdef" horiz-adv-x="1966" 
d="M1075 799l563 -563v1126zM891 799l-563 563v-1126zM412 1462l571 -571l571 571h-1142zM983 707l-571 -572h1142zM184 0v1597h1598v-1597h-1598z" />
    <glyph glyph-name=".null" horiz-adv-x="0" 
 />
    <glyph glyph-name="nonmarkingreturn" horiz-adv-x="681" 
 />
    <glyph glyph-name="space" unicode=" " horiz-adv-x="354" 
 />
    <glyph glyph-name="exclam" unicode="!" horiz-adv-x="600" 
d="M358 479h-118l-166 959h450zM300 -20q-80 0 -138 58t-58 141t58 143t138 59q81 0 138 -59q58 -58 58 -142t-58 -142t-138 -58z" />
    <glyph glyph-name="quotedbl" unicode="&#x22;" horiz-adv-x="743" 
d="M403 1428q0 58 39 102q39 45 111 45t111 -45q38 -44 38 -102t-43 -201l-92 -295h-28l-93 295q-43 143 -43 201zM43 1424q0 60 38 106q39 45 111 45t110 -45q38 -46 38 -110t-43 -193l-90 -295h-31l-92 295q-41 137 -41 197z" />
    <glyph glyph-name="numbersign" unicode="#" horiz-adv-x="1079" 
d="M455 881l-99 -314h271l100 314h-272zM961 471h-250l-154 -491l-104 34l143 457h-270l-156 -491l-104 34l143 457h-160v96h191l100 314h-221v96h252l151 483l107 -35l-144 -448h273l151 483l105 -35l-142 -448h158v-96h-188l-101 -314h220v-96z" />
    <glyph glyph-name="dollar" unicode="$" horiz-adv-x="1179" 
d="M367 1165q0 -90 47 -139t161 -88l74 418q-35 6 -67 6q-96 0 -156 -53q-59 -54 -59 -144zM557 78q111 0 179 51t67 143q0 92 -49 144t-168 94l-76 -430q14 -2 47 -2zM582 1458q31 0 84 -4l39 211h88l-41 -221q162 -29 274 -109v-311h-94q-51 229 -201 303l-74 -416
q2 -1 62 -19q161 -47 280 -145t119 -315t-157 -335q-158 -117 -404 -117l-65 2l-37 -213h-88l39 223q-213 31 -330 125l-23 356h111q28 -137 96 -234t166 -137l78 437l-21 6q-213 63 -317 167t-104 300q0 194 144 320q146 126 376 126z" />
    <glyph glyph-name="percent" unicode="%" horiz-adv-x="1619" 
d="M1196 51q125 0 125 284t-125 283q-125 0 -125 -284t125 -283zM1550 334q0 -168 -102 -261t-252 -93t-252 93t-102 261t102 262t252 94t252 -94t102 -262zM305 -20l899 1478h111l-899 -1478h-111zM299 1103q0 -284 125 -284t125 284t-125 283q-125 1 -125 -283zM70 1104
q0 168 102 261t250 93t252 -93q102 -93 102 -261t-102 -262t-251 -94t-251 94t-102 262z" />
    <glyph glyph-name="ampersand" unicode="&#x26;" horiz-adv-x="1507" 
d="M846 1167q0 89 -38 147t-112 58t-110 -45t-37 -114q0 -69 16 -105q17 -35 25 -52t30 -46t42 -55t53 -60l14 -18q117 88 117 290zM686 137q80 0 162 33q-41 45 -62 72l-372 446q-68 -76 -68 -219t94 -237t246 -95zM23 375q0 283 339 377q-129 162 -129 330t123 272
t324 104q202 0 320 -87t118 -232q0 -252 -336 -326l326 -389q37 88 37 172q0 98 -129 98v88h452v-88q-110 0 -154 -30t-67 -128t-78 -188l97 -112q48 -59 72 -84q62 -66 135 -66v-86h-437q-76 57 -114 94q-180 -114 -396 -114t-360 106q-143 106 -143 289z" />
    <glyph glyph-name="quotesingle" unicode="'" horiz-adv-x="382" 
d="M43 1424q0 60 38 106q39 45 111 45t110 -45q38 -46 38 -110t-43 -193l-90 -295h-31l-92 295q-41 137 -41 197z" />
    <glyph glyph-name="parenleft" unicode="(" horiz-adv-x="759" 
d="M123 643q0 262 126 510t351 424h115q-313 -375 -313 -934t313 -934h-115q-225 176 -351 424t-126 510z" />
    <glyph glyph-name="parenright" unicode=")" horiz-adv-x="759" 
d="M637 643q0 -262 -127 -510t-352 -424h-113q313 377 313 934t-313 934h113q225 -176 352 -424t127 -510z" />
    <glyph glyph-name="asterisk" unicode="*" horiz-adv-x="907" 
d="M452 719q-52 0 -77 41t-6 106l71 258l-188 -190q-49 -49 -98 -48t-75 46t-2 89t89 60l258 68l-258 70q-66 14 -90 58t3 89q26 45 75 46t98 -48l188 -193l-71 261q-17 66 7 106t77 41q53 0 79 -41t7 -106l-72 -261l188 193q49 49 97 48t76 -46q26 -45 2 -89t-89 -58
l-260 -70l260 -68q65 -16 89 -60t-3 -89t-75 -46t-97 48l-188 190l72 -258q18 -66 -8 -106q-27 -40 -79 -41z" />
    <glyph glyph-name="plus" unicode="+" horiz-adv-x="1175" 
d="M518 1210h137v-383h385v-141h-385v-383h-137v383h-385v141h385v383z" />
    <glyph glyph-name="comma" unicode="," horiz-adv-x="544" 
d="M74 190q0 82 56 134t147 51q91 0 151 -70t59 -184q-1 -168 -109 -264t-310 -103v84q113 16 171 55t66 119h-84q-147 35 -147 178z" />
    <glyph glyph-name="hyphen" unicode="-" horiz-adv-x="655" 
d="M594 551h-533v160h533v-160z" />
    <glyph glyph-name="period" unicode="." horiz-adv-x="544" 
d="M61 190q-1 92 61 152t151 61q89 0 149 -60q60 -61 61 -153q0 -92 -60 -151q-59 -59 -149 -59t-152 59t-61 151z" />
    <glyph glyph-name="slash" unicode="/" horiz-adv-x="741" 
d="M723 1577l-567 -1866h-160l567 1866h160z" />
    <glyph glyph-name="zero" unicode="0" horiz-adv-x="1372" 
d="M686 -20q-279 0 -456 198t-177 541q0 344 177 542q177 197 456 197t456 -198t177 -541t-177 -541t-456 -198zM686 66q119 0 165 173t46 480t-46 480t-165 173t-165 -173t-46 -480t46 -480t165 -173z" />
    <glyph glyph-name="one" unicode="1" horiz-adv-x="866" 
d="M838 0h-787v86q137 6 167 30t30 120v862h-197v80l94 16q147 25 241 85q93 60 175 177h86v-1220q0 -94 31 -118t160 -32v-86z" />
    <glyph glyph-name="two" unicode="2" horiz-adv-x="1136" 
d="M725 319q109 0 161 34t126 171h63l-47 -524h-1018v68l393 391q127 125 185 239t59 237q0 121 -63 191t-181 70q-162 0 -274 -133l-61 43q186 352 530 352q198 0 312 -103t114 -282q0 -209 -199 -396q-144 -135 -361 -289q-83 -58 -97 -69h358z" />
    <glyph glyph-name="three" unicode="3" horiz-adv-x="1114" 
d="M514 61q188 -1 188 289q0 144 -84 232t-237 88h-39l-23 59q160 67 225 133q64 66 64 157t-50 140t-144 49q-156 0 -273 -139l-55 43q166 346 520 346q168 0 270 -80t103 -219q-1 -139 -107 -221t-251 -113q205 -7 327 -115t123 -284q0 -211 -165 -329
q-166 -117 -400 -117t-365 82t-131 210q0 60 28 106t66 64h238q-23 -54 -23 -148q-1 -94 51 -164t144 -69z" />
    <glyph glyph-name="four" unicode="4" horiz-adv-x="1306" 
d="M633 221v152h-621v69l703 996h307v-957h235v-108h-235v-152q0 -81 28 -107t132 -32v-82h-711v82q104 6 133 32t29 107zM633 481v656l-463 -656h463z" />
    <glyph glyph-name="five" unicode="5" horiz-adv-x="1107" 
d="M1057 451q0 -223 -153 -347q-152 -124 -388 -124t-366 78t-130 206q0 56 30 104t77 72h223q-18 -70 -18 -121q0 -119 51 -187t151 -69t156 61q55 62 55 171q0 322 -624 321l129 822h563q55 0 76 14q20 14 47 72h80l-62 -414h-661l-29 -158q793 16 793 -501z" />
    <glyph glyph-name="six" unicode="6" horiz-adv-x="1247" 
d="M561 786q-51 0 -100 -14q-6 -72 -6 -147q0 -250 53 -404t162 -153q86 0 129 88t43 248t-72 270q-72 112 -209 112zM785 938q181 0 298 -118t117 -314q0 -244 -157 -385t-413 -141t-413 179q-158 179 -158 472q0 350 246 582t674 245l33 -59q-467 -92 -541 -557
q133 96 314 96z" />
    <glyph glyph-name="seven" unicode="7" horiz-adv-x="1056" 
d="M289 1061q-70 0 -112 -42t-77 -145h-80l93 564h942v-80l-578 -1358h-239l589 1061h-538z" />
    <glyph glyph-name="eight" unicode="8" horiz-adv-x="1202" 
d="M387 1191q0 -81 40 -129t122 -87l166 -82q109 90 108 237q0 109 -59 177q-58 67 -160 67t-160 -51t-57 -132zM322 368q0 -140 75 -223q76 -82 195 -82q118 1 186 57t68 144t-40 131t-128 82l-260 119q-96 -88 -96 -228zM1079 1126q0 -112 -85 -180t-218 -80l51 -22
q166 -72 245 -171t79 -247q0 -209 -151 -328q-150 -118 -404 -118t-402 93t-149 261q0 116 89 192t231 95l-33 14q-114 51 -180 151t-66 236q0 200 144 318t370 118t352 -88q127 -88 127 -244z" />
    <glyph glyph-name="nine" unicode="9" horiz-adv-x="1247" 
d="M686 653q55 0 98 13q8 66 9 149q1 250 -53 404t-162 153q-86 0 -129 -88t-43 -248t72 -271q72 -112 208 -112zM463 502q-182 0 -299 118t-117 314q0 244 157 385q156 141 412 141t414 -179t158 -472q0 -351 -246 -583t-674 -244l-32 59q463 88 540 557q-131 -96 -313 -96
z" />
    <glyph glyph-name="colon" unicode=":" horiz-adv-x="544" 
d="M61 823q-1 93 61 153t151 60t149 -60t61 -152q0 -92 -60 -152q-59 -60 -149 -60t-152 60t-61 151zM61 190q-1 92 61 152t151 61q89 0 149 -60q60 -61 61 -153q0 -92 -60 -151q-59 -59 -149 -59t-152 59t-61 151z" />
    <glyph glyph-name="semicolon" unicode=";" horiz-adv-x="544" 
d="M61 823q-1 93 61 153t151 60t149 -60t61 -152q0 -92 -60 -152q-59 -60 -149 -60t-152 60t-61 151zM74 190q0 82 56 134t147 51q91 0 151 -70t59 -184q-1 -168 -109 -264t-310 -103v84q113 16 171 55t66 119h-84q-147 35 -147 178z" />
    <glyph glyph-name="less" unicode="&#x3c;" horiz-adv-x="870" 
d="M88 743v19l649 397v-166l-407 -239l407 -244v-164z" />
    <glyph glyph-name="equal" unicode="=" horiz-adv-x="1196" 
d="M143 838v137h910v-137h-910zM143 541v133h910v-133h-910z" />
    <glyph glyph-name="greater" unicode="&#x3e;" horiz-adv-x="870" 
d="M782 762v-19l-649 -397v164l410 244l-410 239v166z" />
    <glyph glyph-name="question" unicode="?" horiz-adv-x="956" 
d="M460 -20q-80 0 -138 58t-58 141t58 143t138 59q81 0 138 -59q57 -58 57 -142t-57 -142t-138 -58zM627 1230q0 64 -37 106t-113 42q-75 0 -111 -57t-36 -119t10 -145h-225q-82 41 -82 133q0 124 122 196q121 72 331 72t328 -90t118 -258q0 -127 -70 -217t-213 -174
q-90 -55 -126 -101t-36 -118v-27h-51q-160 61 -160 213t160 270q66 49 100 79q34 31 62 81t29 114z" />
    <glyph glyph-name="at" unicode="@" horiz-adv-x="1812" 
d="M780 338q84 0 174 160t138 376q-29 66 -93 66q-115 0 -201 -164t-85 -325q-1 -113 67 -113zM1241 158q-152 0 -204 93t-25 238q-88 -163 -170 -247t-182 -84t-158 70q-59 70 -60 192q0 219 156 405t371 187q133 0 196 -84l154 67h84l-70 -188l-112 -410q-23 -63 -8 -113
t67 -51q119 0 203 150q84 149 84 383t-157 402t-423 167q-329 1 -531 -237t-202 -574t194 -511t494 -175q166 0 292 36t261 118l29 -41q-240 -213 -606 -213t-604 205q-236 205 -236 575t260 634q260 265 649 265q342 0 545 -190t203 -471q0 -282 -152 -440t-342 -158z" />
    <glyph glyph-name="A" unicode="A" horiz-adv-x="1554" 
d="M623 1122l-213 -567h436zM821 86q160 8 160 83q0 38 -16 87l-74 188h-522l-70 -186q-16 -49 -16 -87q0 -77 168 -85v-86h-441v86q94 14 119 76l426 1110l-70 170h428l510 -1280q14 -37 43 -53t78 -23v-86h-723v86z" />
    <glyph glyph-name="B" unicode="B" horiz-adv-x="1433" 
d="M817 0h-764v86q102 10 126 33t24 104v991q0 82 -24 105t-126 33v86h744q243 0 373 -91t130 -268q0 -145 -110 -230t-275 -101q211 -6 345 -100t133 -259q-1 -389 -576 -389zM653 1341h-49v-544h51q264 0 265 278q0 133 -70 199t-197 67zM694 686h-90v-450q0 -82 31 -111
t113 -29h16q112 0 176 75t64 224q-1 291 -310 291z" />
    <glyph glyph-name="C" unicode="C" horiz-adv-x="1398" 
d="M827 1458q274 0 457 -121l6 -358h-100q-80 377 -350 377q-182 0 -272 -171t-91 -455t99 -463t284 -179q268 0 383 432h103l-35 -407q-188 -133 -520 -133t-535 188t-203 526t222 551t552 213z" />
    <glyph glyph-name="D" unicode="D" horiz-adv-x="1615" 
d="M774 0h-721v86q102 10 126 33t24 104v991q0 82 -24 105t-126 33v86h674q410 0 622 -194t212 -524q-1 -330 -213 -524q-212 -196 -574 -196zM657 1341h-53v-1101q0 -86 33 -115t106 -29h19q174 0 278 164t104 450t-127 458q-129 173 -360 173z" />
    <glyph glyph-name="E" unicode="E" horiz-adv-x="1341" 
d="M53 0v86q102 10 126 33t24 104v991q0 82 -24 105t-126 33v86h1178l10 -396h-78q-86 180 -150 240q-65 59 -198 59h-211v-542h199q67 0 95 40t42 148h88v-491h-88q-14 110 -42 150t-95 40h-199v-453q0 -81 39 -109t127 -28h72q95 0 167 43q49 29 129 165q26 44 79 142h92
l-66 -446h-1190z" />
    <glyph glyph-name="F" unicode="F" horiz-adv-x="1257" 
d="M604 670v-441q0 -79 49 -107t189 -36v-86h-789v86q102 10 126 33t24 104v991q0 82 -24 105t-126 33v86h1157l11 -410h-72q-92 188 -157 250t-195 63h-193v-559h178q70 0 97 40t41 151h88v-494h-88q-14 111 -41 151t-97 40h-178z" />
    <glyph glyph-name="G" unicode="G" horiz-adv-x="1519" 
d="M977 457q0 83 -24 105t-126 34v86h672v-86q-100 -12 -124 -35t-23 -104v-340q-215 -137 -562 -137t-542 196t-195 506q1 350 225 563t558 213q279 0 462 -121l7 -358h-101q-80 377 -354 377q-186 0 -280 -171t-93 -449q0 -278 96 -465t277 -187q80 0 127 25v348z" />
    <glyph glyph-name="H" unicode="H" horiz-adv-x="1728" 
d="M604 1214v-421h520v421q0 82 -23 105q-24 23 -126 33v86h698v-86q-100 -10 -124 -33t-23 -105v-991q0 -83 24 -105t123 -32v-86h-698v86q102 10 126 33t23 104v443h-520v-443q0 -83 24 -105t124 -32v-86h-699v86q102 10 126 33t24 104v991q0 82 -24 105t-126 33v86h699
v-86q-100 -10 -124 -33t-24 -105z" />
    <glyph glyph-name="I" unicode="I" horiz-adv-x="806" 
d="M604 1214v-991q0 -83 24 -105t124 -32v-86h-699v86q102 10 126 33t24 104v991q0 82 -24 105t-126 33v86h699v-86q-100 -10 -124 -33t-24 -105z" />
    <glyph glyph-name="J" unicode="J" horiz-adv-x="1193" 
d="M610 344v870q0 82 -23 105q-24 23 -126 33v86h698v-86q-100 -10 -124 -33t-23 -105v-753q0 -481 -549 -481q-229 0 -351 78t-122 216q0 136 102 195h258q-14 -86 -14 -158q0 -244 137 -243q82 0 110 67q27 68 27 209z" />
    <glyph glyph-name="K" unicode="K" horiz-adv-x="1572" 
d="M604 1214v-991q0 -83 24 -105t124 -32v-86h-699v86q102 10 126 33t24 104v991q0 82 -24 105t-126 33v86h699v-86q-100 -10 -124 -33t-24 -105zM1573 0h-477q-94 80 -187 236l-286 462l479 500q57 57 57 96q0 51 -141 58v86h485v-86q-63 -2 -98 -18t-76 -60l-368 -395
l425 -658q47 -71 84 -99t103 -36v-86z" />
    <glyph glyph-name="L" unicode="L" horiz-adv-x="1318" 
d="M604 1214v-981q0 -81 35 -109t123 -28h57q102 0 178 77t215 312h88l-77 -485h-1170v86q102 10 126 33t24 104v991q0 82 -24 105t-126 33v86h699v-86q-100 -10 -124 -33t-24 -105z" />
    <glyph glyph-name="M" unicode="M" horiz-adv-x="2009" 
d="M315 217q0 -75 38 -99t159 -32v-86h-506v86q90 4 128 30t46 93l129 993q0 82 -37 114t-137 36v86h570q4 -53 32 -131l279 -783l264 783q33 100 35 131h557v-86q-100 -4 -136 -36t-36 -114l129 -993q10 -71 46 -95t126 -28v-86h-772v86q113 6 155 32t41 99q0 20 -4 49
l-98 781l-367 -1047h-155l-379 1047l-103 -781q-4 -29 -4 -49z" />
    <glyph glyph-name="N" unicode="N" horiz-adv-x="1544" 
d="M1223 1212q0 78 -40 104t-167 36v86h491v-86q-100 -10 -124 -34t-23 -106v-1214h-146l-874 1081v-854q0 -77 40 -103t167 -36v-86h-492v86q100 10 124 34t24 105v996q-43 73 -72 101t-78 30v86h516l654 -811v585z" />
    <glyph glyph-name="O" unicode="O" horiz-adv-x="1529" 
d="M742 -20q-324 0 -506 204t-183 506q0 348 204 558q205 210 529 210t506 -205t183 -505q0 -348 -204 -558t-529 -210zM774 78q98 0 163 94q114 165 114 492q0 328 -73 512t-224 184q-98 0 -163 -94q-114 -165 -114 -492q1 -328 73 -512t224 -184z" />
    <glyph glyph-name="P" unicode="P" horiz-adv-x="1366" 
d="M604 1341v-679h47q145 0 223 91t78 250t-81 249t-220 89h-47zM604 555v-326q0 -79 49 -107t189 -36v-86h-789v86q102 10 126 33t24 104v991q0 82 -24 105t-126 33v86h709q289 0 436 -120q148 -120 148 -324t-151 -322q-151 -117 -450 -117h-141z" />
    <glyph glyph-name="Q" unicode="Q" horiz-adv-x="1529" 
d="M774 78q98 0 163 94q114 165 114 492q0 328 -73 512t-224 184q-98 0 -163 -94q-114 -165 -114 -492q1 -328 73 -512t224 -184zM53 690q0 348 204 558q205 210 529 210t506 -205t182 -503t-148 -496q-148 -199 -396 -254l170 -125q86 -61 141 -87t135 -28v-34
q-111 -106 -262 -107q-209 0 -391 240l-94 129q-274 34 -425 232t-151 470z" />
    <glyph glyph-name="R" unicode="R" horiz-adv-x="1554" 
d="M604 600v-377q0 -83 24 -105t124 -32v-86h-699v86q102 10 126 33t24 104v991q0 82 -24 105t-126 33v86h752q253 0 403 -110t150 -298q0 -143 -88 -235t-219 -136l284 -407q66 -96 108 -130t111 -36v-86h-469q-80 61 -172 217l-233 383h-76zM664 1337h-60v-635h62
q139 0 216 85q76 85 76 235t-76 233q-77 82 -218 82z" />
    <glyph glyph-name="S" unicode="S" horiz-adv-x="1185" 
d="M563 -20q-147 0 -276 38t-205 99l-23 356h109q41 -178 143 -287t252 -108q111 0 175 51t65 146q0 95 -69 151q-68 56 -262 112q-194 58 -299 168t-105 305t145 321t397 126t420 -123v-311h-92q-78 338 -350 338q-96 0 -154 -51t-57 -143t65 -146q64 -52 260 -112
t308 -164t112 -318q0 -213 -156 -331q-157 -117 -403 -117z" />
    <glyph glyph-name="T" unicode="T" horiz-adv-x="1449" 
d="M993 1354h-67v-1139q0 -76 30 -96t138 -33v-86h-738v86q106 12 138 32t30 97v1139h-67q-95 0 -157 -83t-185 -347h-84l30 514h1328l30 -514h-84q-123 264 -184 347t-158 83z" />
    <glyph glyph-name="U" unicode="U" horiz-adv-x="1542" 
d="M578 1214v-679q0 -383 313 -383q154 0 246 94t92 299v667q0 80 -34 106t-157 34v86h475v-86q-99 -10 -123 -34t-24 -106v-706q0 -258 -160 -392t-411 -134q-299 0 -459 133t-160 393v708q0 82 -23 105q-24 23 -124 33v86h698v-86q-101 -10 -125 -33t-24 -105z" />
    <glyph glyph-name="V" unicode="V" horiz-adv-x="1497" 
d="M1061 1438h426v-86q-96 -12 -121 -76l-524 -1284h-115l-598 1284q-18 41 -44 55t-75 21v86h727v-86q-90 -2 -120 -22q-57 -37 -9 -150l316 -682l264 682q48 114 -7 150q-30 19 -120 22v86z" />
    <glyph glyph-name="W" unicode="W" horiz-adv-x="2064" 
d="M10 1438h672v-86q-111 -8 -111 -80q0 -29 29 -111l240 -651l164 446l-109 320q-20 63 -104 76v86h669v-86q-80 -2 -112 -22t-31 -59q0 -38 26 -132l199 -619l213 625q27 80 27 112q0 88 -142 95v86h414v-86q-98 -14 -119 -76l-454 -1284h-148l-274 801l-295 -801h-146
l-489 1284q-25 61 -119 76v86z" />
    <glyph glyph-name="X" unicode="X" horiz-adv-x="1529" 
d="M500 0h-490v86q102 12 146 72l424 530l-402 592q-39 59 -127 72v86h713v-86q-61 0 -88 -12t-27 -45q0 -32 45 -99l172 -258l215 281q29 37 29 69q0 59 -131 64v86h453v-86q-100 -12 -148 -72l-350 -442l446 -664q53 -76 140 -88v-86h-740v86q84 2 116 14t32 44t-43 96
l-236 344l-287 -365q-29 -39 -28 -63q0 -66 166 -70v-86z" />
    <glyph glyph-name="Y" unicode="Y" horiz-adv-x="1447" 
d="M936 215q0 -76 31 -96t139 -33v-86h-729v86q109 12 139 32t29 97v313l-416 748q-23 41 -46 55q-24 14 -73 21v86h707v-86q-82 -2 -111 -18q-65 -37 19 -187l262 -451l229 447q47 98 47 135t-34 53t-109 21v86h418v-86q-86 -12 -119 -76l-383 -737v-324z" />
    <glyph glyph-name="Z" unicode="Z" horiz-adv-x="1294" 
d="M756 96q127 0 205 72t210 305h89l-74 -473h-1153v72l719 1269h-244q-47 0 -82 -5q-35 -4 -67 -28t-49 -39t-47 -71t-44 -86q-14 -31 -55 -119h-84l18 445h1121v-72l-721 -1270h258z" />
    <glyph glyph-name="bracketleft" unicode="[" horiz-adv-x="688" 
d="M408 1374v-1460q0 -76 41 -95t174 -28v-80h-449v1866h449v-80q-133 -7 -174 -27t-41 -96z" />
    <glyph glyph-name="backslash" unicode="\" horiz-adv-x="741" 
d="M586 -289l-568 1866h160l570 -1866h-162z" />
    <glyph glyph-name="bracketright" unicode="]" horiz-adv-x="688" 
d="M283 -86v1460q0 76 -41 95t-174 28v80h446v-1866h-446v80q133 7 174 27t41 96z" />
    <glyph glyph-name="asciicircum" unicode="^" horiz-adv-x="960" 
d="M557 1577l338 -594h-147l-269 483l-268 -483h-145l337 594h154z" />
    <glyph glyph-name="underscore" unicode="_" horiz-adv-x="847" 
d="M807 -289h-766v154h766v-154z" />
    <glyph glyph-name="grave" unicode="`" 
d="M254 1567h367l102 -336h-105l-364 317v19z" />
    <glyph glyph-name="a" unicode="a" horiz-adv-x="1134" 
d="M1001 768v-543q0 -92 56 -92q41 0 69 12l15 -55q-111 -111 -271 -110q-88 0 -150 45t-85 127q-115 -166 -309 -166q-131 0 -212 72t-81 199q0 126 71 194q72 68 199 112l326 115v209q0 158 -107 157q-111 0 -110 -161q0 -55 18 -144l-227 -30q-100 35 -101 143
q0 133 122 203q122 69 333 69t327 -82t117 -274zM539 182q39 0 90 29v379l-113 -43q-59 -23 -89 -62t-30 -120q1 -183 142 -183z" />
    <glyph glyph-name="b" unicode="b" horiz-adv-x="1290" 
d="M637 76q106 0 167 121q60 121 60 315t-65 291q-66 98 -187 98q-68 0 -120 -35v-577q0 -213 145 -213zM492 1604v-678q51 82 138 140t206 58q188 0 301 -130t112 -373q0 -305 -172 -473t-440 -168q-344 0 -524 141v1270l-113 57v61l428 95h64z" />
    <glyph glyph-name="c" unicode="c" horiz-adv-x="1030" 
d="M571 1032q-92 0 -146 -106t-54 -286t85 -292t236 -112q178 0 273 135l45 -29q-98 -362 -463 -362q-219 0 -362 146q-142 146 -142 401t155 426t406 171q166 0 270 -66t104 -184q0 -119 -89 -159h-195q8 59 8 116q0 201 -131 201z" />
    <glyph glyph-name="d" unicode="d" horiz-adv-x="1312" 
d="M1167 1604v-1368q1 -57 13 -79t57 -24l49 -2v-80l-434 -71h-70l6 192q-129 -192 -323 -192t-308 138t-114 384q0 290 154 452t389 162q129 0 202 -61v336l-112 57v61l428 95h63zM643 1001q-105 0 -163 -103t-58 -289q0 -185 66 -301t184 -115q66 0 116 28v570
q0 106 -33 158q-34 52 -112 52z" />
    <glyph glyph-name="e" unicode="e" horiz-adv-x="1077" 
d="M565 1038q-162 0 -178 -319h328q0 319 -150 319zM585 1124q222 0 338 -123t115 -325v-51h-653q-2 -180 87 -288t230 -108q193 0 306 150l39 -25q-43 -174 -163 -274t-309 -100q-233 0 -383 147t-149 406q0 259 160 425t382 166z" />
    <glyph glyph-name="f" unicode="f" horiz-adv-x="774" 
d="M539 993v-803q1 -61 33 -79t130 -31v-80h-655v80q67 4 91 18t24 62v833h-148v82l148 39v39q0 223 133 337t346 114q317 0 317 -199q0 -90 -75 -129h-193q10 47 10 96q0 141 -73 141q-88 0 -88 -143v-266h239v-111h-239z" />
    <glyph glyph-name="g" unicode="g" horiz-adv-x="1140" 
d="M544 465q66 0 94 69q28 68 28 202t-35 218t-103 84q-123 0 -122 -270q0 -131 36 -217t102 -86zM768 -86h-541q-18 -20 -18 -76q0 -92 88 -145q87 -53 237 -53t250 44t101 138q0 92 -117 92zM530 385q-123 0 -225 35q-59 -51 -59 -103q0 -59 61 -59h445q393 0 393 -305
q0 -195 -170 -303q-169 -108 -435 -107q-266 0 -405 65t-139 185q0 72 55 113t133 53q-63 25 -99 81t-36 124q0 168 201 276q-195 92 -195 295q0 181 136 285t354 104q102 0 194 -28l365 8v-137h-92l-125 4q127 -84 127 -241t-136 -251t-348 -94z" />
    <glyph glyph-name="h" unicode="h" horiz-adv-x="1353" 
d="M152 160v1231l-113 57v61l428 95h63v-684q162 205 381 204q150 0 230 -85t80 -251v-628q0 -47 23 -62q24 -14 91 -18v-80h-602v80q65 4 87 18t22 62v598q0 72 -31 108t-113 35q-82 0 -168 -45v-696q0 -48 22 -62t87 -18v-80h-602v80q67 4 91 18t24 62z" />
    <glyph glyph-name="i" unicode="i" horiz-adv-x="684" 
d="M553 1405q1 -79 -55 -135t-147 -56t-145 56t-54 135q0 80 54 134t145 54t147 -54t55 -134zM537 1124v-964q0 -47 23 -62q24 -14 91 -18v-80h-606v80q67 4 91 18t24 62v719l-113 69v58l426 118h64z" />
    <glyph glyph-name="j" unicode="j" horiz-adv-x="618" 
d="M315 1214q-90 0 -145 56t-55 135q0 80 55 134t145 54q89 0 145 -54t56 -134q0 -79 -56 -135t-145 -56zM506 1124v-907q0 -164 -34 -256t-112 -169t-154 -126t-196 -102l-33 41l84 131q45 72 57 159q11 87 11 234v750l-115 69v58l428 118h64z" />
    <glyph glyph-name="k" unicode="k" horiz-adv-x="1306" 
d="M152 160v1231l-113 57v61l428 95h63v-1444q0 -48 24 -62t91 -18v-80h-608v80q67 4 91 18t24 62zM926 958q0 34 -26 46t-99 20v80h465v-80q-111 -16 -170 -76l-236 -221l447 -672v-55h-394l-368 580l313 284q68 60 68 94z" />
    <glyph glyph-name="l" unicode="l" horiz-adv-x="675" 
d="M530 1604v-1444q0 -48 24 -62t91 -18v-80h-608v80q67 4 91 18t24 62v1231l-113 57v61l428 95h63z" />
    <glyph glyph-name="m" unicode="m" horiz-adv-x="1994" 
d="M1485 160v604q0 70 -28 104t-93 35q-65 0 -164 -47v-696q0 -48 20 -62t83 -18v-80h-584v80q63 4 83 18q19 14 19 62v604q1 70 -27 104t-98 35q-70 0 -159 -47v-696q0 -48 20 -62t84 -18v-80h-596v80q67 4 91 18t24 62v719l-113 69v58l428 118h70l-8 -209q143 209 379 209
t276 -213q141 213 375 213q143 0 220 -83t77 -242v-639q0 -47 23 -62q24 -14 89 -18v-80h-594v80q63 4 83 18t20 62z" />
    <glyph glyph-name="n" unicode="n" horiz-adv-x="1359" 
d="M850 160v598q0 72 -31 108t-111 35q-80 0 -171 -45v-696q0 -47 22 -62q23 -14 88 -18v-80h-602v80q67 4 91 18t24 62v719l-113 69v58l428 118h70l-8 -204q162 205 381 204q152 0 232 -84t79 -252v-628q0 -47 23 -62q24 -14 91 -18v-80h-602v80q65 4 87 18t22 62z" />
    <glyph glyph-name="o" unicode="o" horiz-adv-x="1230" 
d="M618 1124q254 0 412 -150t158 -405q0 -253 -161 -421t-415 -168t-412 150t-157 404q0 254 161 422q160 168 414 168zM625 66q88 0 125 105t36 312q0 555 -180 555q-88 0 -125 -105t-37 -312q1 -555 181 -555z" />
    <glyph glyph-name="p" unicode="p" horiz-adv-x="1320" 
d="M143 -274v1153l-112 69v58l428 118h71l-8 -198q51 82 138 140t206 58q188 0 301 -130t113 -373q0 -305 -163 -473t-417 -168q-127 0 -178 43v-289q0 -52 30 -66t128 -22v-80h-651v80q68 4 91 18t23 62zM668 76q106 0 167 121q60 121 60 315t-66 291q-66 98 -186 98
q-70 0 -121 -35v-575q1 -215 146 -215z" />
    <glyph glyph-name="q" unicode="q" horiz-adv-x="1282" 
d="M788 -266v438q-125 -192 -321 -192t-310 138t-114 384q0 290 157 456t388 166t362 -125l152 119h76l-11 -246v-1146q0 -48 24 -62t91 -18v-80h-651v80q98 8 128 22q29 15 29 66zM643 1026q-106 0 -164 -107q-57 -109 -57 -295t66 -309t184 -122q66 0 116 28v594
q0 102 -37 157q-38 54 -108 54z" />
    <glyph glyph-name="r" unicode="r" horiz-adv-x="935" 
d="M537 190q1 -61 33 -79t130 -31v-80h-655v80q67 4 91 18t24 62v719l-113 69v58l428 118h70l-8 -315q63 178 125 247t159 68q68 0 103 -34v-285h-50q-118 1 -196 -13t-141 -61v-541z" />
    <glyph glyph-name="s" unicode="s" horiz-adv-x="976" 
d="M448 -20q-228 0 -372 104l-13 276h95q32 -131 112 -213t195 -81q76 0 125 36t49 106t-50 106t-169 75q-184 57 -270 142t-86 244t116 254t314 95t344 -94v-246h-88q-20 109 -88 182t-170 72q-66 0 -107 -34t-41 -94t44 -94t153 -73q201 -67 289 -149t90 -250
q0 -168 -122 -266t-350 -98z" />
    <glyph glyph-name="t" unicode="t" horiz-adv-x="800" 
d="M506 1382v-278h239v-111h-239v-678q0 -141 117 -141q70 0 147 51l31 -45q-123 -201 -357 -200q-150 0 -234 80t-85 255v678h-117v68q244 92 418 321h80z" />
    <glyph glyph-name="u" unicode="u" horiz-adv-x="1325" 
d="M1180 236q0 -57 12 -79t57 -24l49 -2v-80l-432 -71h-71l6 198q-156 -199 -365 -198q-141 0 -225 87t-84 257v501q0 98 -80 119l-31 10v74l433 94h67l-12 -260v-502q0 -164 139 -163q66 0 158 41v587q0 98 -78 119l-31 10v74l430 94h68l-10 -260v-626z" />
    <glyph glyph-name="v" unicode="v" horiz-adv-x="1228" 
d="M1219 1104v-80q-51 -16 -69 -32t-36 -50l-422 -950h-108l-469 950q-17 37 -35 51t-70 31v80h656v-80q-82 -10 -109 -24t-27 -40t17 -65l217 -477l199 477q16 39 16 65t-27 39q-27 14 -108 25v80h375z" />
    <glyph glyph-name="w" unicode="w" horiz-adv-x="1835" 
d="M1587 960q0 30 -26 42q-27 13 -91 22v80h355v-80q-53 -16 -71 -32t-34 -50l-403 -950h-123l-242 633l-286 -633h-121l-430 950q-17 35 -35 50t-70 32v80h615v-80q-96 -14 -97 -63q0 -23 17 -66l194 -477l154 342l-70 182q-23 61 -94 82v80h606v-80q-71 -8 -99 -22
t-28 -42q0 -29 13 -65l170 -457l182 457q14 35 14 65z" />
    <glyph glyph-name="x" unicode="x" horiz-adv-x="1255" 
d="M303 152q0 -66 125 -72v-80h-418v80q94 25 142 86l290 385l-284 391q-37 53 -105 82v80h609v-80q-94 -6 -95 -57q0 -29 33 -74l139 -195l142 189q35 47 34 78q0 47 -98 59v80h373v-80q-90 -27 -133 -86l-252 -328l328 -450q39 -53 112 -80v-80h-633v80q111 4 111 55
q0 31 -33 76l-180 246l-180 -240q-27 -39 -27 -65z" />
    <glyph glyph-name="y" unicode="y" horiz-adv-x="1226" 
d="M979 960q0 24 -27 39q-27 14 -108 25v80h373v-80q-51 -16 -71 -32t-34 -50l-467 -1120q-59 -143 -126 -209t-181 -66t-160 86v146q106 -21 176 -21q144 -1 195 119l33 72l-467 993q-17 35 -35 50t-70 32v80h656v-80q-82 -10 -109 -24t-27 -38t15 -67l215 -522l203 520
q16 43 16 67z" />
    <glyph glyph-name="z" unicode="z" horiz-adv-x="1099" 
d="M37 0v68l581 942h-188q-78 0 -137 -71t-135 -241h-80l28 471h76l41 -67h824v-68l-570 -940h209q98 0 161 68q62 68 146 246h76l-45 -408h-987z" />
    <glyph glyph-name="braceleft" unicode="{" horiz-adv-x="751" 
d="M272 866v449q0 262 420 262v-59q-176 -23 -176 -201v-428q0 -111 -61 -166t-179 -80q116 -25 178 -80t62 -166v-426q0 -178 176 -200v-60q-420 0 -420 262v447q0 170 -170 205v37q170 35 170 204z" />
    <glyph glyph-name="bar" unicode="|" horiz-adv-x="419" 
d="M285 1577v-1866h-150v1866h150z" />
    <glyph glyph-name="braceright" unicode="}" horiz-adv-x="768" 
d="M496 420v-447q0 -262 -420 -262v60q176 23 176 200v426q0 111 61 166t179 80q-117 25 -179 80q-61 55 -61 166v428q0 178 -176 201v59q420 0 420 -262v-449q0 -169 170 -204v-37q-170 -35 -170 -205z" />
    <glyph glyph-name="asciitilde" unicode="~" horiz-adv-x="1009" 
d="M655 453q-63 -1 -176 75t-168 76q-98 0 -184 -141l-66 31q47 164 118 246t175 81q63 0 175 -76t167 -75q101 0 187 141l65 -31q-49 -166 -120 -246t-173 -81z" />
    <glyph glyph-name="uni00A0" unicode="&#xa0;" horiz-adv-x="354" 
 />
    <glyph glyph-name="exclamdown" unicode="&#xa1;" horiz-adv-x="600" 
d="M240 750h118l166 -959h-450zM300 848q-80 0 -138 60t-58 142q0 83 58 141t138 58q81 0 138 -58q58 -58 58 -141q0 -82 -58 -142t-138 -60z" />
    <glyph glyph-name="cent" unicode="&#xa2;" horiz-adv-x="1091" 
d="M365 670q0 -238 112 -355l135 752q-111 -1 -179 -113t-68 -284zM1026 892q0 -114 -96 -155h-156q8 59 8 123q0 156 -88 193l-141 -793q63 -35 158 -35q184 0 297 156l45 -27q-49 -188 -176 -281t-310 -93q-23 0 -63 4l-39 -220h-84l41 234q-170 43 -271 183t-102 351
q0 270 159 446t421 179l39 217h84l-39 -221q141 -14 227 -81q86 -66 86 -180z" />
    <glyph glyph-name="sterling" unicode="&#xa3;" horiz-adv-x="1423" 
d="M233 82q129 0 140 197q-74 43 -131 43t-89 -34t-32 -90q1 -56 31 -86t81 -30zM205 713v88h207l6 94q35 563 534 563q164 0 274 -62t109 -184q-1 -57 -31 -101t-75 -60h-199q27 72 27 155q0 178 -90 178q-111 0 -138 -243l-36 -340h313v-88h-322l-2 -17q-25 -252 -92 -377
q160 -66 387 -65q190 0 191 139q0 29 -15 72l58 18q63 -78 63 -210t-87 -213t-247 -80q-231 0 -446 178q-117 -178 -336 -178q-110 0 -174 58t-64 156t64 154q64 58 150 58q88 0 149 -23l23 330h-201z" />
    <glyph glyph-name="currency" unicode="&#xa4;" horiz-adv-x="1191" 
d="M317 707q0 -129 80 -213t199 -84t199 84t79 213q0 129 -79 214q-80 85 -199 85t-199 -85t-80 -214zM596 1110q144 0 250 -90l149 154l62 -62l-152 -151q84 -111 84 -256t-84 -252l152 -152l-62 -61l-149 151q-109 -88 -250 -88t-250 88l-149 -151l-62 61l152 152
q-84 105 -84 251t84 257l-152 151l62 62l149 -154q106 90 250 90z" />
    <glyph glyph-name="yen" unicode="&#xa5;" horiz-adv-x="1406" 
d="M911 541h328v-90h-328v-236q0 -76 31 -96t139 -33v-86h-721v86q109 12 139 32t29 97v236h-340v90h340v18l-79 143h-261v93h209l-268 481q-23 41 -46 55q-24 14 -73 21v86h699v-86q-82 -2 -111 -18t-29 -60q0 -43 47 -127l238 -440l221 436q35 76 35 124t-32 64t-107 21
v86h426v-86q-88 -12 -119 -76l-246 -481h207v-93h-254l-74 -143v-18z" />
    <glyph glyph-name="brokenbar" unicode="&#xa6;" horiz-adv-x="419" 
d="M285 481v-770h-150v770h150zM285 1577v-770h-150v770h150z" />
    <glyph glyph-name="section" unicode="&#xa7;" horiz-adv-x="1083" 
d="M473 -416q-150 0 -240 62t-90 158t88 128h181v-90q0 -188 139 -188q121 0 121 131q0 59 -34 135t-68 125t-112 153t-106 140q-123 170 -187 318q-65 148 -65 313q0 219 146 354t364 135q146 0 238 -62t92 -158t-90 -128h-178v90q0 190 -140 191q-61 0 -92 -37
q-64 -76 3 -231q34 -75 70 -126t112 -150q213 -277 286 -443t72 -330q0 -219 -146 -355q-147 -135 -364 -135zM889 74q0 147 -64 288t-248 393q-187 248 -235 402q-21 67 -23 133q-125 -127 -124 -321q0 -147 60 -281t175 -295q14 -20 78 -106q95 -129 172 -263t84 -272
q125 127 125 322z" />
    <glyph glyph-name="dieresis" unicode="&#xa8;" 
d="M557 1407q0 70 51 120t123 50t122 -49t50 -120t-51 -121t-122 -50t-122 50t-51 120zM139 1408q0 71 50 120t122 49t122 -50t50 -120t-51 -120t-122 -50t-121 50t-50 121z" />
    <glyph glyph-name="copyright" unicode="&#xa9;" horiz-adv-x="1597" 
d="M856 1081q-102 0 -152 -101t-51 -261q1 -161 53 -259t140 -98t140 60t89 178h74l-19 -233q-121 -78 -309 -78q-188 -1 -305 115t-117 310t126 318q125 124 309 123q184 0 286 -86v-213h-71q-45 225 -193 225zM66 719q0 309 207 524t525 215t526 -215t208 -524t-208 -524
t-525 -215t-526 215q-207 215 -207 524zM143 719q-1 -279 185 -473t471 -195q285 0 470 195q185 196 185 474t-185 472t-470 194t-471 -194t-185 -473z" />
    <glyph glyph-name="ordfeminine" unicode="&#xaa;" horiz-adv-x="847" 
d="M698 1188v-299q0 -74 45 -74q31 0 58 10l10 -39q-76 -80 -182 -79q-63 0 -109 34q-45 35 -59 95q-74 -123 -215 -123q-82 0 -133 49t-51 130t46 124q48 43 134 71l215 72v103q1 74 -15 106t-57 33q-74 0 -74 -96q0 -45 17 -101l-168 -22q-60 20 -60 101t82 128t228 47
t218 -60q70 -60 70 -210zM383 846q39 0 74 24v230l-72 -31q-43 -20 -60 -48t-18 -75q0 -100 76 -100z" />
    <glyph glyph-name="guillemotleft" unicode="&#xab;" horiz-adv-x="960" 
d="M436 559v12l383 410h94l-184 -416l184 -418h-94zM47 559v12l383 410h94l-184 -416l184 -418h-94z" />
    <glyph glyph-name="registered" unicode="&#xae;" horiz-adv-x="1054" 
d="M993 992q0 -196 -133 -330t-334 -136q-201 0 -333 135t-132 331q1 196 133 331t334 135t333 -135q132 -135 132 -331zM526 1395q-170 0 -282 -119t-113 -284q0 -166 113 -284q112 -118 282 -118t284 119t114 283t-114 284q-114 119 -284 119zM299 1245h233q100 0 150 -41
t51 -98q0 -57 -32 -91t-76 -48l90 -123q35 -47 69 -49v-37h-141q-33 20 -63 67l-84 129h-15v-108q0 -31 9 -41t40 -10v-37h-231v37q35 0 45 10t10 41v309q0 31 -9 39t-46 12v39zM500 1198h-19v-201h19q44 0 70 28t26 75q0 98 -96 98z" />
    <glyph glyph-name="macron" unicode="&#xaf;" 
d="M229 1280v176h586v-176h-586z" />
    <glyph glyph-name="degree" unicode="&#xb0;" horiz-adv-x="583" 
d="M41 1209q0 105 74 177t178 72t177 -72t73 -176t-73 -177q-72 -73 -178 -73t-178 72t-73 177zM292 1362q-66 0 -104 -42t-38 -111t38 -109t104 -41q66 0 104 42q38 41 38 109t-38 110t-104 42z" />
    <glyph glyph-name="plusminus" unicode="&#xb1;" horiz-adv-x="1175" 
d="M137 281v137h903v-137h-903zM518 1243h137v-293h385v-135h-385v-289h-137v289h-381v135h381v293z" />
    <glyph glyph-name="twosuperior" unicode="&#xb2;" horiz-adv-x="804" 
d="M532 813q47 0 71 16t59 70h43l-23 -278h-621v51l234 219q141 135 141 254q0 63 -34 100t-99 37q-104 0 -182 -90l-43 37q47 95 133 159t204 64q119 0 187 -62t68 -181t-103 -211t-256 -185h221z" />
    <glyph glyph-name="threesuperior" unicode="&#xb3;" horiz-adv-x="792" 
d="M711 855q-1 -109 -99 -173t-242 -64t-217 48t-73 118t57 101h137q-8 -33 -8 -81t29 -88q29 -38 82 -38t84 39t31 117t-46 121q-46 44 -131 44h-30l-13 45q88 33 125 68t37 82t-30 76t-85 28q-90 0 -157 -88l-49 37q45 91 127 151t192 60t170 -50t62 -132q0 -82 -63 -130
t-155 -65q119 -4 192 -61t73 -165z" />
    <glyph glyph-name="acute" unicode="&#xb4;" 
d="M723 1567v-19l-363 -317h-106l102 336h367z" />
    <glyph glyph-name="mu" unicode="&#xb5;" horiz-adv-x="1325" 
d="M127 825q0 98 -80 119l-31 10v74l433 94h67l-12 -260v-502q0 -164 139 -163q66 0 158 41v587q0 98 -78 119l-31 10v74l430 94h68l-10 -260v-626q0 -57 12 -79t57 -24l49 -2v-80l-432 -71h-71l6 198q-86 -199 -283 -198q-21 0 -37 10l27 -342v-31l-381 -20v1228z" />
    <glyph glyph-name="paragraph" unicode="&#xb6;" horiz-adv-x="1261" 
d="M406 925q0 -165 62 -295t177 -141v869q-115 -12 -177 -140t-62 -293zM645 -403v813q-262 0 -413 148q-150 148 -150 368t149 365q150 146 414 147h563v-82q-123 -2 -166 -31t-43 -119v-1609h-96v1757h-162v-1757h-96z" />
    <glyph glyph-name="periodcentered" unicode="&#xb7;" horiz-adv-x="536" 
d="M268 831q86 0 146 -59t61 -148q0 -90 -60 -148q-61 -58 -147 -58t-146 58t-61 148q1 89 61 148t146 59z" />
    <glyph glyph-name="cedilla" unicode="&#xb8;" 
d="M508 -311q0 60 -75 72q-32 5 -87 8l100 247h76l-39 -98q99 0 157 -45t58 -123q0 -109 -112 -166t-277 -57l-16 72q104 0 160 27q55 28 55 63z" />
    <glyph glyph-name="onesuperior" unicode="&#xb9;" horiz-adv-x="700" 
d="M471 1458v-678q0 -51 25 -64t114 -20v-69h-528v69q100 6 122 18t21 66v445h-143v63l51 10q179 35 273 160h65z" />
    <glyph glyph-name="ordmasculine" unicode="&#xba;" horiz-adv-x="860" 
d="M436 1458q170 0 270 -100t101 -269q-1 -169 -107 -275t-276 -107q-170 0 -270 100t-100 269q0 170 106 276t276 106zM440 770q109 0 109 285q0 151 -33 245t-96 95q-109 0 -109 -283q0 -154 33 -248t96 -94z" />
    <glyph glyph-name="guillemotright" unicode="&#xbb;" horiz-adv-x="960" 
d="M524 571v-12l-383 -412h-94l184 418l-184 416h94zM913 571v-12l-383 -412h-94l185 418l-185 416h94z" />
    <glyph glyph-name="onequarter" unicode="&#xbc;" horiz-adv-x="1634" 
d="M1509 0h-465v70q72 4 92 18q19 14 19 66v61h-385v61l418 537h211v-520h160v-78h-160v-61q0 -52 19 -66t91 -18v-70zM307 -20l897 1478h113l-899 -1478h-111zM471 1458v-678q0 -51 25 -64t114 -20v-69h-528v69q100 6 122 18t21 66v445h-143v63l51 10q179 35 273 160h65z
M1155 293v342l-272 -342h272z" />
    <glyph glyph-name="onehalf" unicode="&#xbd;" horiz-adv-x="1658" 
d="M1384 193q49 0 72 15t60 71h43l-25 -279h-619v51l234 219q141 133 141 254q0 62 -35 100t-100 38q-106 0 -180 -91l-43 37q47 96 132 158t204 63q118 0 186 -61t68 -180t-101 -210q-101 -90 -256 -185h219zM307 -20l897 1478h113l-899 -1478h-111zM471 1458v-678
q0 -51 25 -64t114 -20v-69h-528v69q100 6 122 18t21 66v445h-143v63l51 10q179 35 273 160h65z" />
    <glyph glyph-name="threequarters" unicode="&#xbe;" horiz-adv-x="1681" 
d="M1554 0h-462v70q70 4 89 18t19 66v61h-385v61l418 537h211v-520h162v-78h-162v-61q0 -52 19 -66t91 -18v-70zM354 -20l897 1478h111l-899 -1478h-109zM1200 293v342l-272 -342h272zM711 857q-1 -107 -99 -173t-242 -66t-217 48t-73 118t57 101h137q-8 -33 -8 -81t29 -88
q29 -38 82 -38t84 39t31 117t-46 121q-46 44 -131 44h-30l-13 45q88 33 125 68t37 82t-30 76t-85 28q-90 0 -157 -88l-49 37q45 91 127 151t192 60t170 -50t62 -132q0 -82 -62 -130t-153 -63q119 -4 191 -61t71 -165z" />
    <glyph glyph-name="questiondown" unicode="&#xbf;" horiz-adv-x="956" 
d="M702 1050q0 -82 -57 -142t-138 -60t-138 59t-57 143t56 141q58 58 139 58t138 -58t57 -141zM340 -2q0 -64 37 -106t113 -42t111 58q36 58 36 120t-10 144h225q82 -41 82 -133q0 -123 -122 -196t-332 -73t-328 91q-118 90 -117 258q0 127 69 217q70 90 213 174
q90 55 126 101t36 118v27h51q160 -61 160 -214t-160 -270q-66 -48 -100 -78t-62 -80q-28 -52 -28 -116z" />
    <glyph glyph-name="Agrave" unicode="&#xc0;" horiz-adv-x="1554" 
d="M352 1827h369l100 -305h-112l-357 286v19zM623 1122l-213 -567h436zM821 86q160 8 160 83q0 38 -16 87l-74 188h-522l-70 -186q-16 -49 -16 -87q0 -77 168 -85v-86h-441v86q94 14 119 76l426 1110l-70 170h428l510 -1280q14 -37 43 -53t78 -23v-86h-723v86z" />
    <glyph glyph-name="Aacute" unicode="&#xc1;" horiz-adv-x="1554" 
d="M1081 1827v-19l-354 -286h-115l101 305h368zM623 1122l-213 -567h436zM821 86q160 8 160 83q0 38 -16 87l-74 188h-522l-70 -186q-16 -49 -16 -87q0 -77 168 -85v-86h-441v86q94 14 119 76l426 1110l-70 170h428l510 -1280q14 -37 43 -53t78 -23v-86h-723v86z" />
    <glyph glyph-name="Acircumflex" unicode="&#xc2;" horiz-adv-x="1554" 
d="M852 1835l246 -313h-117l-256 143l-256 -143h-117l246 313h254zM623 1122l-213 -567h436zM821 86q160 8 160 83q0 38 -16 87l-74 188h-522l-70 -186q-16 -49 -16 -87q0 -77 168 -85v-86h-441v86q94 14 119 76l426 1110l-70 170h428l510 -1280q14 -37 43 -53t78 -23v-86
h-723v86z" />
    <glyph glyph-name="Atilde" unicode="&#xc3;" horiz-adv-x="1554" 
d="M623 1122l-213 -567h436zM870 1522q-74 0 -160 61t-126 62q-70 0 -135 -115l-74 41q57 143 110 210t127 67t160 -62q86 -61 127 -62q68 0 135 113l74 -39q-56 -144 -110 -210t-128 -66zM821 86q160 8 160 83q0 38 -16 87l-74 188h-522l-70 -186q-16 -49 -16 -87
q0 -77 168 -85v-86h-441v86q94 14 119 76l426 1110l-70 170h428l510 -1280q14 -37 43 -53t78 -23v-86h-723v86z" />
    <glyph glyph-name="Adieresis" unicode="&#xc4;" horiz-adv-x="1554" 
d="M762 1686q0 70 51 120t122 49q71 0 122 -50q51 -51 51 -121t-51 -119t-122 -49t-122 50t-51 120zM340 1686q0 70 51 120t122 49q71 0 122 -50q51 -49 51 -119t-51 -120t-123 -50t-122 50t-50 120zM623 1122l-213 -567h436zM821 86q160 8 160 83q0 38 -16 87l-74 188h-522
l-70 -186q-16 -49 -16 -87q0 -77 168 -85v-86h-441v86q94 14 119 76l426 1110l-70 170h428l510 -1280q14 -37 43 -53t78 -23v-86h-723v86z" />
    <glyph glyph-name="Aring" unicode="&#xc5;" horiz-adv-x="1554" 
d="M721 1800q-47 0 -75 -30t-28 -75q0 -46 28 -75t75 -29t75 29t28 75q0 45 -28 75t-75 30zM623 1122l-213 -567h436zM508 1695q0 87 60 147t152 60t152 -60t60 -147t-60 -147t-151 -59q-92 0 -153 59q-60 60 -60 147zM821 86q160 8 160 83q0 38 -16 87l-74 188h-522
l-70 -186q-16 -49 -16 -87q0 -77 168 -85v-86h-441v86q94 14 119 76l426 1110l-70 170h428l510 -1280q14 -37 43 -53t78 -23v-86h-723v86z" />
    <glyph glyph-name="AE" unicode="&#xc6;" horiz-adv-x="2129" 
d="M991 618v691l-432 -691h432zM641 1438h1378l11 -396h-78q-86 180 -151 240t-197 59h-211v-542h198q68 0 96 40t42 148h88v-491h-88q-14 110 -42 150t-96 40h-198v-453q0 -81 39 -109t127 -28h71q130 0 192 64t183 286h92l-65 -446h-1188v86q100 10 124 33t23 104v285
h-502l-155 -250q-31 -51 -31 -84q0 -82 182 -88v-86h-475v86q80 13 119 76l705 1124q-45 55 -193 66v86z" />
    <glyph glyph-name="Ccedilla" unicode="&#xc7;" horiz-adv-x="1398" 
d="M817 -311q0 60 -75 72q-32 5 -87 8l86 213q-323 18 -505 203t-183 495q0 352 222 565t552 213q274 0 457 -121l6 -358h-100q-80 377 -350 377q-182 0 -272 -171t-91 -455t99 -463t284 -179q268 0 383 432h103l-35 -407q-180 -129 -494 -133l-24 -62q98 0 156 -45t59 -123
q0 -109 -112 -166t-278 -57l-16 72q104 0 160 27q55 28 55 63z" />
    <glyph glyph-name="Egrave" unicode="&#xc8;" horiz-adv-x="1341" 
d="M53 0v86q102 10 126 33t24 104v991q0 82 -24 105t-126 33v86h1178l10 -396h-78q-86 180 -150 240q-65 59 -198 59h-211v-542h199q67 0 95 40t42 148h88v-491h-88q-14 110 -42 150t-95 40h-199v-453q0 -81 39 -109t127 -28h72q95 0 167 43q49 29 129 165q26 44 79 142h92
l-66 -446h-1190zM342 1827h369l100 -305h-113l-356 286v19z" />
    <glyph glyph-name="Eacute" unicode="&#xc9;" horiz-adv-x="1341" 
d="M53 0v86q102 10 126 33t24 104v991q0 82 -24 105t-126 33v86h1178l10 -396h-78q-86 180 -150 240q-65 59 -198 59h-211v-542h199q67 0 95 40t42 148h88v-491h-88q-14 110 -42 150t-95 40h-199v-453q0 -81 39 -109t127 -28h72q95 0 167 43q49 29 129 165q26 44 79 142h92
l-66 -446h-1190zM1063 1827v-19l-354 -286h-115l100 305h369z" />
    <glyph glyph-name="Ecircumflex" unicode="&#xca;" horiz-adv-x="1341" 
d="M831 1835l246 -313h-116l-256 143l-256 -143h-117l246 313h253zM53 0v86q102 10 126 33t24 104v991q0 82 -24 105t-126 33v86h1178l10 -396h-78q-86 180 -150 240q-65 59 -198 59h-211v-542h199q67 0 95 40t42 148h88v-491h-88q-14 110 -42 150t-95 40h-199v-453
q0 -81 39 -109t127 -28h72q95 0 167 43q49 29 129 165q26 44 79 142h92l-66 -446h-1190z" />
    <glyph glyph-name="Edieresis" unicode="&#xcb;" horiz-adv-x="1341" 
d="M53 0v86q102 10 126 33t24 104v991q0 82 -24 105t-126 33v86h1178l10 -396h-78q-86 180 -150 240q-65 59 -198 59h-211v-542h199q67 0 95 40t42 148h88v-491h-88q-14 110 -42 150t-95 40h-199v-453q0 -81 39 -109t127 -28h72q95 0 167 43q49 29 129 165q26 44 79 142h92
l-66 -446h-1190zM743 1686q-1 70 51 120t122 49q70 0 122 -50q52 -51 52 -121t-52 -119t-122 -49q-71 0 -122 50t-51 120zM322 1686q0 70 51 120t122 49q71 0 121 -50q50 -49 52 -119q0 -70 -52 -120t-122 -50q-72 0 -122 50t-50 120z" />
    <glyph glyph-name="Igrave" unicode="&#xcc;" horiz-adv-x="806" 
d="M39 1827h369l100 -305h-113l-356 286v19zM604 1214v-991q0 -83 24 -105t124 -32v-86h-699v86q102 10 126 33t24 104v991q0 82 -24 105t-126 33v86h699v-86q-100 -10 -124 -33t-24 -105z" />
    <glyph glyph-name="Iacute" unicode="&#xcd;" horiz-adv-x="806" 
d="M760 1827v-19l-354 -286h-115l100 305h369zM604 1214v-991q0 -83 24 -105t124 -32v-86h-699v86q102 10 126 33t24 104v991q0 82 -24 105t-126 33v86h699v-86q-100 -10 -124 -33t-24 -105z" />
    <glyph glyph-name="Icircumflex" unicode="&#xce;" horiz-adv-x="806" 
d="M528 1835l242 -313h-115l-252 143l-251 -143h-115l242 313h249zM604 1214v-991q0 -83 24 -105t124 -32v-86h-699v86q102 10 126 33t24 104v991q0 82 -24 105t-126 33v86h699v-86q-100 -10 -124 -33t-24 -105z" />
    <glyph glyph-name="Idieresis" unicode="&#xcf;" horiz-adv-x="806" 
d="M440 1686q0 70 52 120t122 49q70 0 121 -50q51 -51 51 -121t-51 -119t-122 -49t-122 50t-51 120zM18 1686q0 70 52 120t122 49q70 0 121 -50q51 -49 51 -119t-50 -120q-52 -50 -124 -50t-122 50t-50 120zM604 1214v-991q0 -83 24 -105t124 -32v-86h-699v86q102 10 126 33
t24 104v991q0 82 -24 105t-126 33v86h699v-86q-100 -10 -124 -33t-24 -105z" />
    <glyph glyph-name="Eth" unicode="&#xd0;" horiz-adv-x="1636" 
d="M678 1341h-53v-548h264v-127h-264v-426q1 -86 33 -115t106 -29h18q174 0 279 164q104 164 104 450t-128 458q-128 173 -359 173zM74 666v127h149v421q0 82 -23 105q-24 23 -126 33v86h674q410 0 622 -194t211 -524q0 -330 -212 -524q-212 -196 -574 -196h-721v86
q102 10 126 33t23 104v443h-149z" />
    <glyph glyph-name="Ntilde" unicode="&#xd1;" horiz-adv-x="1544" 
d="M1223 1212q0 78 -40 104t-167 36v86h491v-86q-100 -10 -124 -34t-23 -106v-1214h-146l-874 1081v-854q0 -77 40 -103t167 -36v-86h-492v86q100 10 124 34t24 105v996q-43 73 -72 101t-78 30v86h516l654 -811v585zM946 1522q-74 0 -160 61t-127 62q-70 0 -135 -115l-73 41
q57 143 110 210t127 67t160 -62q86 -61 127 -62q68 0 135 113l74 -39q-56 -144 -110 -210t-128 -66z" />
    <glyph glyph-name="Ograve" unicode="&#xd2;" horiz-adv-x="1529" 
d="M742 -20q-324 0 -506 204t-183 506q0 348 204 558q205 210 529 210t506 -205t183 -505q0 -348 -204 -558t-529 -210zM774 78q98 0 163 94q114 165 114 492q0 328 -73 512t-224 184q-98 0 -163 -94q-114 -165 -114 -492q1 -328 73 -512t224 -184zM408 1827h368l101 -305
h-113l-356 286v19z" />
    <glyph glyph-name="Oacute" unicode="&#xd3;" horiz-adv-x="1529" 
d="M742 -20q-324 0 -506 204t-183 506q0 348 204 558q205 210 529 210t506 -205t183 -505q0 -348 -204 -558t-529 -210zM774 78q98 0 163 94q114 165 114 492q0 328 -73 512t-224 184q-98 0 -163 -94q-114 -165 -114 -492q1 -328 73 -512t224 -184zM1128 1827v-19l-354 -286
h-115l101 305h368z" />
    <glyph glyph-name="Ocircumflex" unicode="&#xd4;" horiz-adv-x="1529" 
d="M899 1835l246 -313h-117l-256 143l-256 -143h-117l246 313h254zM742 -20q-324 0 -506 204t-183 506q0 348 204 558q205 210 529 210t506 -205t183 -505q0 -348 -204 -558t-529 -210zM774 78q98 0 163 94q114 165 114 492q0 328 -73 512t-224 184q-98 0 -163 -94
q-114 -165 -114 -492q1 -328 73 -512t224 -184z" />
    <glyph glyph-name="Otilde" unicode="&#xd5;" horiz-adv-x="1529" 
d="M742 -20q-324 0 -506 204t-183 506q0 348 204 558q205 210 529 210t506 -205t183 -505q0 -348 -204 -558t-529 -210zM774 78q98 0 163 94q114 165 114 492q0 328 -73 512t-224 184q-98 0 -163 -94q-114 -165 -114 -492q1 -328 73 -512t224 -184zM934 1522q-74 0 -160 61
t-127 62q-70 0 -135 -115l-74 41q56 143 110 210t128 67t160 -62q86 -61 127 -62q68 0 135 113l73 -39q-57 -144 -110 -210t-127 -66z" />
    <glyph glyph-name="Odieresis" unicode="&#xd6;" horiz-adv-x="1529" 
d="M742 -20q-324 0 -506 204t-183 506q0 348 204 558q205 210 529 210t506 -205t183 -505q0 -348 -204 -558t-529 -210zM774 78q98 0 163 94q114 165 114 492q0 328 -73 512t-224 184q-98 0 -163 -94q-114 -165 -114 -492q1 -328 73 -512t224 -184zM809 1686q0 70 51 120
t122 49q71 0 122 -50q51 -51 51 -121t-51 -119t-122 -49t-122 50t-51 120zM387 1686q0 70 51 120t122 49q71 0 122 -50q51 -49 51 -119t-51 -120t-123 -50t-122 50t-50 120z" />
    <glyph glyph-name="multiply" unicode="&#xd7;" horiz-adv-x="1017" 
d="M414 748l-281 280l96 98l279 -284l280 284l99 -98l-283 -280l283 -281l-99 -94l-280 280l-279 -280l-96 94z" />
    <glyph glyph-name="Oslash" unicode="&#xd8;" horiz-adv-x="1529" 
d="M774 78q98 0 163 94q114 165 114 522q0 147 -19 271l-497 -666q77 -221 239 -221zM477 735q0 -172 27 -311l502 672q-74 264 -252 264q-98 0 -163 -94t-89 -226t-25 -305zM745 -20q-219 0 -376 96l-148 -197l-80 62l146 194q-233 197 -233 550t203 563q204 210 525 210
q240 0 408 -117l137 185l80 -60l-141 -188q209 -198 209 -538t-204 -550t-526 -210z" />
    <glyph glyph-name="Ugrave" unicode="&#xd9;" horiz-adv-x="1542" 
d="M578 1214v-679q0 -383 313 -383q154 0 246 94t92 299v667q0 80 -34 106t-157 34v86h475v-86q-99 -10 -123 -34t-24 -106v-706q0 -258 -160 -392t-411 -134q-299 0 -459 133t-160 393v708q0 82 -23 105q-24 23 -124 33v86h698v-86q-101 -10 -125 -33t-24 -105zM489 1827
h369l100 -305h-112l-357 286v19z" />
    <glyph glyph-name="Uacute" unicode="&#xda;" horiz-adv-x="1542" 
d="M578 1214v-679q0 -383 313 -383q154 0 246 94t92 299v667q0 80 -34 106t-157 34v86h475v-86q-99 -10 -123 -34t-24 -106v-706q0 -258 -160 -392t-411 -134q-299 0 -459 133t-160 393v708q0 82 -23 105q-24 23 -124 33v86h698v-86q-101 -10 -125 -33t-24 -105zM1208 1827
v-19l-354 -286h-115l101 305h368z" />
    <glyph glyph-name="Ucircumflex" unicode="&#xdb;" horiz-adv-x="1542" 
d="M979 1835l246 -313h-117l-256 143l-256 -143h-117l246 313h254zM578 1214v-679q0 -383 313 -383q154 0 246 94t92 299v667q0 80 -34 106t-157 34v86h475v-86q-99 -10 -123 -34t-24 -106v-706q0 -258 -160 -392t-411 -134q-299 0 -459 133t-160 393v708q0 82 -23 105
q-24 23 -124 33v86h698v-86q-101 -10 -125 -33t-24 -105z" />
    <glyph glyph-name="Udieresis" unicode="&#xdc;" horiz-adv-x="1542" 
d="M578 1214v-679q0 -383 313 -383q154 0 246 94t92 299v667q0 80 -34 106t-157 34v86h475v-86q-99 -10 -123 -34t-24 -106v-706q0 -258 -160 -392t-411 -134q-299 0 -459 133t-160 393v708q0 82 -23 105q-24 23 -124 33v86h698v-86q-101 -10 -125 -33t-24 -105zM891 1686
q0 70 51 120t122 49q71 0 122 -50q51 -51 51 -121t-51 -119t-122 -49t-122 50t-51 120zM469 1686q0 70 51 120t122 49q71 0 122 -50q51 -49 51 -119t-51 -120t-123 -50t-122 50t-50 120z" />
    <glyph glyph-name="Yacute" unicode="&#xdd;" horiz-adv-x="1447" 
d="M1171 1827v-19l-354 -286h-115l101 305h368zM936 215q0 -76 31 -96t139 -33v-86h-729v86q109 12 139 32t29 97v313l-416 748q-23 41 -46 55q-24 14 -73 21v86h707v-86q-82 -2 -111 -18q-65 -37 19 -187l262 -451l229 447q47 98 47 135t-34 53t-109 21v86h418v-86
q-86 -12 -119 -76l-383 -737v-324z" />
    <glyph glyph-name="Thorn" unicode="&#xde;" horiz-adv-x="1366" 
d="M604 1079v-680h47q145 0 223 91t78 250t-81 249t-220 90h-47zM604 1214v-38h158q287 0 435 -120q149 -120 149 -326t-151 -322t-450 -117h-141v-62q0 -79 49 -107t189 -36v-86h-789v86q102 10 126 33t24 104v991q0 82 -24 105t-126 33v86h699v-86q-100 -10 -124 -33
t-24 -105z" />
    <glyph glyph-name="germandbls" unicode="&#xdf;" horiz-adv-x="1474" 
d="M730 1604q232 0 354 -80t122 -217q0 -77 -44 -137t-98 -90q-142 -79 -142 -140q0 -38 76 -86q24 -14 38 -24t48 -28q200 -112 278 -206t78 -254t-122 -261t-322 -101t-332 106l-13 266h97q32 -127 100 -207q68 -79 152 -79t126 38t41 107q0 70 -48 121t-174 126
q-126 74 -183 144t-57 146q1 76 27 132q26 54 64 97t75 89q92 111 92 245q1 96 -51 153t-148 58q-225 0 -225 -322v-1200h-492v80q67 4 91 18t24 62v833h-148v82l148 39l2 25q23 221 178 343q156 122 388 122z" />
    <glyph glyph-name="agrave" unicode="&#xe0;" horiz-adv-x="1134" 
d="M203 1567h366l103 -336h-105l-364 317v19zM1001 768v-543q0 -92 56 -92q41 0 69 12l15 -55q-111 -111 -271 -110q-88 0 -150 45t-85 127q-115 -166 -309 -166q-131 0 -212 72t-81 199q0 126 71 194q72 68 199 112l326 115v209q0 158 -107 157q-111 0 -110 -161
q0 -55 18 -144l-227 -30q-100 35 -101 143q0 133 122 203q122 69 333 69t327 -82t117 -274zM539 182q39 0 90 29v379l-113 -43q-59 -23 -89 -62t-30 -120q1 -183 142 -183z" />
    <glyph glyph-name="aacute" unicode="&#xe1;" horiz-adv-x="1134" 
d="M913 1567v-19l-362 -317h-107l103 336h366zM1001 768v-543q0 -92 56 -92q41 0 69 12l15 -55q-111 -111 -271 -110q-88 0 -150 45t-85 127q-115 -166 -309 -166q-131 0 -212 72t-81 199q0 126 71 194q72 68 199 112l326 115v209q0 158 -107 157q-111 0 -110 -161
q0 -55 18 -144l-227 -30q-100 35 -101 143q0 133 122 203q122 69 333 69t327 -82t117 -274zM539 182q39 0 90 29v379l-113 -43q-59 -23 -89 -62t-30 -120q1 -183 142 -183z" />
    <glyph glyph-name="acircumflex" unicode="&#xe2;" horiz-adv-x="1134" 
d="M686 1569l238 -348h-119l-246 174l-246 -174h-118l237 348h254zM1001 768v-543q0 -92 56 -92q41 0 69 12l15 -55q-111 -111 -271 -110q-88 0 -150 45t-85 127q-115 -166 -309 -166q-131 0 -212 72t-81 199q0 126 71 194q72 68 199 112l326 115v209q0 158 -107 157
q-111 0 -110 -161q0 -55 18 -144l-227 -30q-100 35 -101 143q0 133 122 203q122 69 333 69t327 -82t117 -274zM539 182q39 0 90 29v379l-113 -43q-59 -23 -89 -62t-30 -120q1 -183 142 -183z" />
    <glyph glyph-name="atilde" unicode="&#xe3;" horiz-adv-x="1134" 
d="M696 1233q-74 0 -158 61t-124 62q-68 0 -133 -115l-74 41q55 143 108 210t127 67q74 1 158 -61t125 -62q66 0 133 112l74 -39q-58 -145 -110 -211t-126 -65zM1001 768v-543q0 -92 56 -92q41 0 69 12l15 -55q-111 -111 -271 -110q-88 0 -150 45t-85 127
q-115 -166 -309 -166q-131 0 -212 72t-81 199q0 126 71 194q72 68 199 112l326 115v209q0 158 -107 157q-111 0 -110 -161q0 -55 18 -144l-227 -30q-100 35 -101 143q0 133 122 203q122 69 333 69t327 -82t117 -274zM539 182q39 0 90 29v379l-113 -43q-59 -23 -89 -62
t-30 -120q1 -183 142 -183z" />
    <glyph glyph-name="adieresis" unicode="&#xe4;" horiz-adv-x="1134" 
d="M596 1407q0 70 51 120t123 50t122 -49t50 -120t-51 -121t-122 -50t-122 50t-51 120zM178 1408q0 71 50 120t122 49t122 -50t50 -120t-51 -120t-122 -50t-121 50t-50 121zM1001 768v-543q0 -92 56 -92q41 0 69 12l15 -55q-111 -111 -271 -110q-88 0 -150 45t-85 127
q-115 -166 -309 -166q-131 0 -212 72t-81 199q0 126 71 194q72 68 199 112l326 115v209q0 158 -107 157q-111 0 -110 -161q0 -55 18 -144l-227 -30q-100 35 -101 143q0 133 122 203q122 69 333 69t327 -82t117 -274zM539 182q39 0 90 29v379l-113 -43q-59 -23 -89 -62
t-30 -120q1 -183 142 -183z" />
    <glyph glyph-name="aring" unicode="&#xe5;" horiz-adv-x="1134" 
d="M559 1597q91 0 151 -60t60 -147q0 -88 -59 -148t-151 -60t-154 60q-60 60 -60 148q0 87 60 147t153 60zM559 1495q-47 1 -75 -29t-27 -76q-1 -46 27 -76t75 -30t75 30t28 76t-28 76t-75 29zM1001 768v-543q0 -92 56 -92q41 0 69 12l15 -55q-111 -111 -271 -110
q-88 0 -150 45t-85 127q-115 -166 -309 -166q-131 0 -212 72t-81 199q0 126 71 194q72 68 199 112l326 115v209q0 158 -107 157q-111 0 -110 -161q0 -55 18 -144l-227 -30q-100 35 -101 143q0 133 122 203q122 69 333 69t327 -82t117 -274zM539 182q39 0 90 29v379l-113 -43
q-59 -23 -89 -62t-30 -120q1 -183 142 -183z" />
    <glyph glyph-name="ae" unicode="&#xe6;" horiz-adv-x="1626" 
d="M559 182q55 0 119 37q-72 125 -72 307q0 37 2 54l-71 -27q-74 -27 -107 -67t-33 -121q0 -183 162 -183zM1114 1038q-147 0 -164 -321h312q-1 321 -148 321zM1164 1124q192 0 308 -124t115 -326v-49h-639q-2 -178 82 -287t232 -109q182 0 292 150l39 -25
q-43 -174 -163 -274t-308 -100q-268 0 -409 186q-80 -94 -161 -137t-218 -43t-219 72t-82 198q0 127 71 195q72 68 199 112l315 111q2 6 25 88q4 135 -30 209t-99 73q-102 0 -102 -161q0 -55 18 -144l-227 -30q-100 35 -101 143q0 133 122 203q122 69 321 69t286 -100
q141 100 333 100z" />
    <glyph glyph-name="ccedilla" unicode="&#xe7;" horiz-adv-x="1030" 
d="M518 -311q0 60 -75 72q-32 5 -87 8l88 221q-180 31 -290 171t-111 357q0 264 155 435t406 171q166 0 270 -66t104 -184q0 -119 -89 -159h-195q8 59 8 116q0 201 -131 201q-92 0 -146 -105t-54 -286t85 -293t236 -112q178 0 273 135l45 -29q-98 -362 -463 -362h-29
l-24 -62q98 0 156 -45t59 -123q0 -109 -112 -166t-278 -57l-16 72q104 0 160 27q55 28 55 63z" />
    <glyph glyph-name="egrave" unicode="&#xe8;" horiz-adv-x="1077" 
d="M238 1567h366l103 -336h-105l-364 317v19zM565 1038q-162 0 -178 -319h328q0 319 -150 319zM585 1124q222 0 338 -123t115 -325v-51h-653q-2 -180 87 -288t230 -108q193 0 306 150l39 -25q-43 -174 -163 -274t-309 -100q-233 0 -383 147t-149 406q0 259 160 425t382 166z
" />
    <glyph glyph-name="eacute" unicode="&#xe9;" horiz-adv-x="1077" 
d="M565 1038q-162 0 -178 -319h328q0 319 -150 319zM585 1124q222 0 338 -123t115 -325v-51h-653q-2 -180 87 -288t230 -108q193 0 306 150l39 -25q-43 -174 -163 -274t-309 -100q-233 0 -383 147t-149 406q0 259 160 425t382 166zM948 1567v-19l-362 -317h-107l103 336h366
z" />
    <glyph glyph-name="ecircumflex" unicode="&#xea;" horiz-adv-x="1077" 
d="M565 1038q-162 0 -178 -319h328q0 319 -150 319zM585 1124q222 0 338 -123t115 -325v-51h-653q-2 -180 87 -288t230 -108q193 0 306 150l39 -25q-43 -174 -163 -274t-309 -100q-233 0 -383 147t-149 406q0 259 160 425t382 166zM719 1569l237 -348h-118l-246 174
l-246 -174h-119l238 348h254z" />
    <glyph glyph-name="edieresis" unicode="&#xeb;" horiz-adv-x="1077" 
d="M565 1038q-162 0 -178 -319h328q0 319 -150 319zM585 1124q222 0 338 -123t115 -325v-51h-653q-2 -180 87 -288t230 -108q193 0 306 150l39 -25q-43 -174 -163 -274t-309 -100q-233 0 -383 147t-149 406q0 259 160 425t382 166zM629 1407q0 70 51 120t123 50t122 -49
t50 -120t-51 -121t-122 -50t-122 50t-51 120zM211 1408q0 71 50 120t122 49t122 -50t50 -120t-51 -120t-122 -50t-121 50t-50 121z" />
    <glyph glyph-name="igrave" unicode="&#xec;" horiz-adv-x="684" 
d="M-2 1567h367l102 -336h-105l-364 317v19zM537 1124v-964q0 -47 23 -62q24 -14 91 -18v-80h-606v80q67 4 91 18t24 62v719l-113 69v58l426 118h64z" />
    <glyph glyph-name="iacute" unicode="&#xed;" horiz-adv-x="684" 
d="M537 1124v-964q0 -47 23 -62q24 -14 91 -18v-80h-606v80q67 4 91 18t24 62v719l-113 69v58l426 118h64zM709 1567v-19l-363 -317h-106l102 336h367z" />
    <glyph glyph-name="icircumflex" unicode="&#xee;" horiz-adv-x="684" 
d="M537 1124v-964q0 -47 23 -62q24 -14 91 -18v-80h-606v80q67 4 91 18t24 62v719l-113 69v58l426 118h64zM459 1569l215 -344h-107l-225 172l-223 -172h-109l217 344h232z" />
    <glyph glyph-name="idieresis" unicode="&#xef;" horiz-adv-x="684" 
d="M537 1124v-964q0 -47 23 -62q24 -14 91 -18v-80h-606v80q67 4 91 18t24 62v719l-113 69v58l426 118h64zM379 1407q0 70 50 120t122 50t122 -49t50 -120t-50 -121t-122 -50t-122 50t-50 120zM-37 1407q0 70 50 120t122 50t123 -50t51 -120t-51 -120t-122 -50t-122 50
t-51 120z" />
    <glyph glyph-name="eth" unicode="&#xf0;" horiz-adv-x="1228" 
d="M625 66q164 0 163 417q0 555 -182 555q-162 0 -162 -417q1 -555 181 -555zM1186 668q0 -316 -152 -502t-416 -186t-420 158t-155 409q0 252 158 414t374 161q121 0 179 -67q-51 147 -150 262l-356 -113l-27 88l309 99q-125 104 -305 151l39 70q270 -35 475 -156l265 84
l26 -86l-196 -63q176 -133 264 -323t88 -400z" />
    <glyph glyph-name="ntilde" unicode="&#xf1;" horiz-adv-x="1359" 
d="M854 1233q-74 0 -159 61t-124 62q-68 0 -133 -115l-73 41q55 143 108 210t127 67q74 1 158 -61t125 -62q66 0 133 112l74 -39q-58 -145 -110 -211t-126 -65zM850 160v598q0 72 -31 108t-111 35q-80 0 -171 -45v-696q0 -47 22 -62q23 -14 88 -18v-80h-602v80q67 4 91 18
t24 62v719l-113 69v58l428 118h70l-8 -204q162 205 381 204q152 0 232 -84t79 -252v-628q0 -47 23 -62q24 -14 91 -18v-80h-602v80q65 4 87 18t22 62z" />
    <glyph glyph-name="ograve" unicode="&#xf2;" horiz-adv-x="1230" 
d="M266 1567h367l102 -336h-104l-365 317v19zM618 1124q254 0 412 -150t158 -405q0 -253 -161 -421t-415 -168t-412 150t-157 404q0 254 161 422q160 168 414 168zM625 66q88 0 125 105t36 312q0 555 -180 555q-88 0 -125 -105t-37 -312q1 -555 181 -555z" />
    <glyph glyph-name="oacute" unicode="&#xf3;" horiz-adv-x="1230" 
d="M618 1124q254 0 412 -150t158 -405q0 -253 -161 -421t-415 -168t-412 150t-157 404q0 254 161 422q160 168 414 168zM625 66q88 0 125 105t36 312q0 555 -180 555q-88 0 -125 -105t-37 -312q1 -555 181 -555zM975 1567v-19l-363 -317h-106l102 336h367z" />
    <glyph glyph-name="ocircumflex" unicode="&#xf4;" horiz-adv-x="1230" 
d="M618 1124q254 0 412 -150t158 -405q0 -253 -161 -421t-415 -168t-412 150t-157 404q0 254 161 422q160 168 414 168zM625 66q88 0 125 105t36 312q0 555 -180 555q-88 0 -125 -105t-37 -312q1 -555 181 -555zM750 1569l237 -348h-119l-245 174l-246 -174h-119l238 348
h254z" />
    <glyph glyph-name="otilde" unicode="&#xf5;" horiz-adv-x="1230" 
d="M762 1233q-74 0 -159 61t-124 62q-68 0 -133 -115l-74 41q54 143 108 210t128 67q74 1 158 -61t125 -62q66 0 133 112l73 -39q-57 -145 -109 -211t-126 -65zM618 1124q254 0 412 -150t158 -405q0 -253 -161 -421t-415 -168t-412 150t-157 404q0 254 161 422
q160 168 414 168zM625 66q88 0 125 105t36 312q0 555 -180 555q-88 0 -125 -105t-37 -312q1 -555 181 -555z" />
    <glyph glyph-name="odieresis" unicode="&#xf6;" horiz-adv-x="1230" 
d="M618 1124q254 0 412 -150t158 -405q0 -253 -161 -421t-415 -168t-412 150t-157 404q0 254 161 422q160 168 414 168zM625 66q88 0 125 105t36 312q0 555 -180 555q-88 0 -125 -105t-37 -312q1 -555 181 -555zM659 1407q-1 70 51 120t124 50t121 -49q51 -49 51 -120
t-52 -121t-122 -50q-71 0 -122 50t-51 120zM242 1408q0 71 50 120t122 49t122 -50t50 -120t-51 -120t-122 -50t-121 50t-50 121z" />
    <glyph glyph-name="divide" unicode="&#xf7;" horiz-adv-x="1175" 
d="M465 1109q0 50 36 85t85 35t86 -36t37 -85t-37 -86t-86 -37t-85 37t-36 87zM465 404q0 50 36 88t85 36q49 0 86 -36t37 -88q0 -50 -37 -86t-86 -36t-85 36t-36 86zM133 686v141h907v-141h-907z" />
    <glyph glyph-name="oslash" unicode="&#xf8;" horiz-adv-x="1230" 
d="M625 66q163 0 161 379q0 169 -8 253l-307 -428q43 -204 154 -204zM606 1038q-162 0 -162 -380q0 -170 9 -261l307 430q-43 211 -154 211zM614 -20q-170 0 -303 69l-118 -168l-72 51l117 164q-195 152 -195 422t161 438t412 168q168 0 306 -71l112 157l74 -51l-113 -155
q193 -154 193 -422t-161 -434q-161 -168 -413 -168z" />
    <glyph glyph-name="ugrave" unicode="&#xf9;" horiz-adv-x="1325" 
d="M305 1567h367l102 -336h-104l-365 317v19zM1180 236q0 -57 12 -79t57 -24l49 -2v-80l-432 -71h-71l6 198q-156 -199 -365 -198q-141 0 -225 87t-84 257v501q0 98 -80 119l-31 10v74l433 94h67l-12 -260v-502q0 -164 139 -163q66 0 158 41v587q0 98 -78 119l-31 10v74
l430 94h68l-10 -260v-626z" />
    <glyph glyph-name="uacute" unicode="&#xfa;" horiz-adv-x="1325" 
d="M1180 236q0 -57 12 -79t57 -24l49 -2v-80l-432 -71h-71l6 198q-156 -199 -365 -198q-141 0 -225 87t-84 257v501q0 98 -80 119l-31 10v74l433 94h67l-12 -260v-502q0 -164 139 -163q66 0 158 41v587q0 98 -78 119l-31 10v74l430 94h68l-10 -260v-626zM1014 1567v-19
l-363 -317h-106l102 336h367z" />
    <glyph glyph-name="ucircumflex" unicode="&#xfb;" horiz-adv-x="1325" 
d="M1180 236q0 -57 12 -79t57 -24l49 -2v-80l-432 -71h-71l6 198q-156 -199 -365 -198q-141 0 -225 87t-84 257v501q0 98 -80 119l-31 10v74l433 94h67l-12 -260v-502q0 -164 139 -163q66 0 158 41v587q0 98 -78 119l-31 10v74l430 94h68l-10 -260v-626zM788 1569l238 -348
h-119l-245 174l-246 -174h-119l238 348h253z" />
    <glyph glyph-name="udieresis" unicode="&#xfc;" horiz-adv-x="1325" 
d="M1180 236q0 -57 12 -79t57 -24l49 -2v-80l-432 -71h-71l6 198q-156 -199 -365 -198q-141 0 -225 87t-84 257v501q0 98 -80 119l-31 10v74l433 94h67l-12 -260v-502q0 -164 139 -163q66 0 158 41v587q0 98 -78 119l-31 10v74l430 94h68l-10 -260v-626zM698 1407
q0 70 52 120t122 50q72 0 122 -49t50 -120t-51 -121t-122 -50t-122 50t-51 120zM281 1408q0 71 50 120t122 49q71 0 121 -50t50 -120t-50 -120q-52 -50 -122 -50t-121 50q-50 50 -50 121z" />
    <glyph glyph-name="yacute" unicode="&#xfd;" horiz-adv-x="1226" 
d="M1053 1567v-19l-363 -317h-106l102 336h367zM979 960q0 24 -27 39q-27 14 -108 25v80h373v-80q-51 -16 -71 -32t-34 -50l-467 -1120q-59 -143 -126 -209t-181 -66t-160 86v146q106 -21 176 -21q144 -1 195 119l33 72l-467 993q-17 35 -35 50t-70 32v80h656v-80
q-82 -10 -109 -24t-27 -38t15 -67l215 -522l203 520q16 43 16 67z" />
    <glyph glyph-name="thorn" unicode="&#xfe;" horiz-adv-x="1304" 
d="M125 -274v1665l-113 57v61l428 95h64v-678q51 82 138 140t206 58q188 0 301 -130t113 -373q0 -305 -163 -473t-417 -168q-125 0 -178 43v-289q0 -52 30 -66t128 -22v-80h-652v80q68 4 92 18t23 62zM877 512q0 194 -66 291q-66 98 -186 98q-68 0 -121 -35v-575
q0 -215 145 -215q106 0 167 121t61 315z" />
    <glyph glyph-name="ydieresis" unicode="&#xff;" horiz-adv-x="1226" 
d="M735 1407q0 70 51 120t123 50t122 -49t50 -120t-51 -121t-122 -50t-122 50t-51 120zM488 1237q-71 0 -121 50t-50 121q1 71 51 120t122 49t121 -50q51 -50 51 -120t-52 -120t-122 -50zM979 960q0 24 -27 39q-27 14 -108 25v80h373v-80q-51 -16 -71 -32t-34 -50
l-467 -1120q-59 -143 -126 -209t-181 -66t-160 86v146q106 -21 176 -21q144 -1 195 119l33 72l-467 993q-17 35 -35 50t-70 32v80h656v-80q-82 -10 -109 -24t-27 -38t15 -67l215 -522l203 520q16 43 16 67z" />
    <glyph glyph-name="Amacron" unicode="&#x100;" horiz-adv-x="1554" 
d="M426 1538v176h598v-176h-598zM623 1122l-213 -567h436zM821 86q160 8 160 83q0 38 -16 87l-74 188h-522l-70 -186q-16 -49 -16 -87q0 -77 168 -85v-86h-441v86q94 14 119 76l426 1110l-70 170h428l510 -1280q14 -37 43 -53t78 -23v-86h-723v86z" />
    <glyph glyph-name="amacron" unicode="&#x101;" horiz-adv-x="1134" 
d="M268 1280v176h586v-176h-586zM1001 768v-543q0 -92 56 -92q41 0 69 12l15 -55q-111 -111 -271 -110q-88 0 -150 45t-85 127q-115 -166 -309 -166q-131 0 -212 72t-81 199q0 126 71 194q72 68 199 112l326 115v209q0 158 -107 157q-111 0 -110 -161q0 -55 18 -144
l-227 -30q-100 35 -101 143q0 133 122 203q122 69 333 69t327 -82t117 -274zM539 182q39 0 90 29v379l-113 -43q-59 -23 -89 -62t-30 -120q1 -183 142 -183z" />
    <glyph glyph-name="Abreve" unicode="&#x102;" horiz-adv-x="1554" 
d="M1028 1835q0 -151 -80 -235t-224 -84t-224 84t-80 235h94q25 -133 210 -133t208 133h96zM623 1122l-213 -567h436zM821 86q160 8 160 83q0 38 -16 87l-74 188h-522l-70 -186q-16 -49 -16 -87q0 -77 168 -85v-86h-441v86q94 14 119 76l426 1110l-70 170h428l510 -1280
q14 -37 43 -53t78 -23v-86h-723v86z" />
    <glyph glyph-name="abreve" unicode="&#x103;" horiz-adv-x="1134" 
d="M561 1225q-143 0 -220 89t-77 255h94q18 -154 202 -154t202 154h94q0 -166 -76 -255t-219 -89zM1001 768v-543q0 -92 56 -92q41 0 69 12l15 -55q-111 -111 -271 -110q-88 0 -150 45t-85 127q-115 -166 -309 -166q-131 0 -212 72t-81 199q0 126 71 194q72 68 199 112
l326 115v209q0 158 -107 157q-111 0 -110 -161q0 -55 18 -144l-227 -30q-100 35 -101 143q0 133 122 203q122 69 333 69t327 -82t117 -274zM539 182q39 0 90 29v379l-113 -43q-59 -23 -89 -62t-30 -120q1 -183 142 -183z" />
    <glyph glyph-name="Aogonek" unicode="&#x104;" horiz-adv-x="1554" 
d="M283 171q0 -77 168 -85v-86h-441v86q94 14 119 76l426 1110l-70 170h428l510 -1280q14 -37 43 -53t78 -23v-86h-653q-145 -39 -146 -184q0 -51 26 -82t79 -31t119 49l32 -41q-119 -152 -268 -151q-86 0 -143 51t-58 147q0 191 297 295q111 39 134 62t23 53t-17 80
l-78 196h-520l-72 -186q-16 -49 -16 -87zM623 1122l-213 -567h436z" />
    <glyph glyph-name="aogonek" unicode="&#x105;" horiz-adv-x="1134" 
d="M539 182q39 0 90 29v379l-113 -43q-59 -23 -89 -62t-30 -120q1 -183 142 -183zM1001 768v-543q0 -92 56 -92q41 0 69 12l15 -55q-35 -31 -120 -75t-133 -91q-48 -48 -48 -106q0 -116 94 -115q66 0 131 49l33 -41q-119 -152 -279 -151q-82 0 -137 46t-55 124
q0 150 198 252q-69 12 -119 57t-71 113q-115 -166 -309 -166q-131 0 -212 72t-81 199q0 126 71 194q72 68 199 112l326 115v209q0 158 -107 157q-111 0 -110 -161q0 -55 18 -144l-227 -30q-100 35 -101 143q0 133 122 203q122 69 333 69t327 -82t117 -274z" />
    <glyph glyph-name="Cacute" unicode="&#x106;" horiz-adv-x="1398" 
d="M1194 1827v-19l-354 -286h-115l100 305h369zM827 1458q274 0 457 -121l6 -358h-100q-80 377 -350 377q-182 0 -272 -171t-91 -455t99 -463t284 -179q268 0 383 432h103l-35 -407q-188 -133 -520 -133t-535 188t-203 526t222 551t552 213z" />
    <glyph glyph-name="cacute" unicode="&#x107;" horiz-adv-x="1030" 
d="M571 1032q-92 0 -146 -106t-54 -286t85 -292t236 -112q178 0 273 135l45 -29q-98 -362 -463 -362q-219 0 -362 146q-142 146 -142 401t155 426t406 171q166 0 270 -66t104 -184q0 -119 -89 -159h-195q8 59 8 116q0 201 -131 201zM954 1567v-19l-362 -317h-107l103 336
h366z" />
    <glyph glyph-name="Ccircumflex" unicode="&#x108;" horiz-adv-x="1398" 
d="M965 1835l245 -313h-116l-256 143l-256 -143h-117l246 313h254zM827 1458q274 0 457 -121l6 -358h-100q-80 377 -350 377q-182 0 -272 -171t-91 -455t99 -463t284 -179q268 0 383 432h103l-35 -407q-188 -133 -520 -133t-535 188t-203 526t222 551t552 213z" />
    <glyph glyph-name="ccircumflex" unicode="&#x109;" horiz-adv-x="1030" 
d="M571 1032q-92 0 -146 -106t-54 -286t85 -292t236 -112q178 0 273 135l45 -29q-98 -362 -463 -362q-219 0 -362 146q-142 146 -142 401t155 426t406 171q166 0 270 -66t104 -184q0 -119 -89 -159h-195q8 59 8 116q0 201 -131 201zM711 1569l237 -348h-119l-245 174
l-246 -174h-119l238 348h254z" />
    <glyph glyph-name="Cdotaccent" unicode="&#x10a;" horiz-adv-x="1398" 
d="M827 1458q274 0 457 -121l6 -358h-100q-80 377 -350 377q-182 0 -272 -171t-91 -455t99 -463t284 -179q268 0 383 432h103l-35 -407q-188 -133 -520 -133t-535 188t-203 526t222 551t552 213zM838 1518q-90 0 -146 55q-55 55 -55 134t55 134q56 55 146 55t145 -55
t55 -134t-55 -134t-145 -55z" />
    <glyph glyph-name="cdotaccent" unicode="&#x10b;" horiz-adv-x="1030" 
d="M594 1223q-90 0 -145 54t-56 134t55 135q56 56 146 56t145 -56t55 -135q0 -80 -54 -134q-56 -54 -146 -54zM571 1032q-92 0 -146 -106t-54 -286t85 -292t236 -112q178 0 273 135l45 -29q-98 -362 -463 -362q-219 0 -362 146q-142 146 -142 401t155 426t406 171
q166 0 270 -66t104 -184q0 -119 -89 -159h-195q8 59 8 116q0 201 -131 201z" />
    <glyph glyph-name="Ccaron" unicode="&#x10c;" horiz-adv-x="1398" 
d="M1210 1837l-245 -313h-254l-246 313h117l256 -143l256 143h116zM827 1458q274 0 457 -121l6 -358h-100q-80 377 -350 377q-182 0 -272 -171t-91 -455t99 -463t284 -179q268 0 383 432h103l-35 -407q-188 -133 -520 -133t-535 188t-203 526t222 551t552 213z" />
    <glyph glyph-name="ccaron" unicode="&#x10d;" horiz-adv-x="1030" 
d="M571 1032q-92 0 -146 -106t-54 -286t85 -292t236 -112q178 0 273 135l45 -29q-98 -362 -463 -362q-219 0 -362 146q-142 146 -142 401t155 426t406 171q166 0 270 -66t104 -184q0 -119 -89 -159h-195q8 59 8 116q0 201 -131 201zM958 1577l-237 -348h-254l-238 348h119
l246 -174l246 174h118z" />
    <glyph glyph-name="Dcaron" unicode="&#x10e;" horiz-adv-x="1615" 
d="M774 0h-721v86q102 10 126 33t24 104v991q0 82 -24 105t-126 33v86h674q410 0 622 -194t212 -524q-1 -330 -213 -524q-212 -196 -574 -196zM657 1341h-53v-1101q0 -86 33 -115t106 -29h19q174 0 278 164t104 450t-127 458q-129 173 -360 173zM1118 1837l-246 -313h-254
l-245 313h116l256 -143l256 143h117z" />
    <glyph glyph-name="dcaron" unicode="&#x10f;" horiz-adv-x="1312" 
d="M1167 1604v-1368q1 -57 13 -79t57 -24l49 -2v-80l-434 -71h-70l6 192q-129 -192 -323 -192t-308 138t-114 384q0 290 154 452t389 162q129 0 202 -61v336l-112 57v61l428 95h63zM643 1001q-105 0 -163 -103t-58 -289q0 -185 66 -301t184 -115q66 0 116 28v570
q0 106 -33 158q-34 52 -112 52zM1569 1604v-23l-238 -397h-84l27 420h295z" />
    <glyph glyph-name="Dcroat" unicode="&#x110;" horiz-adv-x="1636" 
d="M678 1341h-53v-548h264v-127h-264v-426q1 -86 33 -115t106 -29h18q174 0 279 164q104 164 104 450t-128 458q-128 173 -359 173zM74 666v127h149v421q0 82 -23 105q-24 23 -126 33v86h674q410 0 622 -194t211 -524q0 -330 -212 -524q-212 -196 -574 -196h-721v86
q102 10 126 33t23 104v443h-149z" />
    <glyph glyph-name="dcroat" unicode="&#x111;" horiz-adv-x="1312" 
d="M643 1001q-105 0 -163 -103t-58 -289q0 -185 66 -301t184 -115q66 0 116 28v570q0 106 -33 158q-34 52 -112 52zM1167 1604v-293h119v-105h-119v-970q1 -57 13 -79t57 -24l49 -2v-80l-434 -71h-70l6 192q-129 -192 -323 -192t-308 138t-114 384q0 290 154 452t389 162
q129 0 202 -61v151h-241v105h241v80l-112 57v61l428 95h63z" />
    <glyph glyph-name="Emacron" unicode="&#x112;" horiz-adv-x="1341" 
d="M53 0v86q102 10 126 33t24 104v991q0 82 -24 105t-126 33v86h1178l10 -396h-78q-86 180 -150 240q-65 59 -198 59h-211v-542h199q67 0 95 40t42 148h88v-491h-88q-14 110 -42 150t-95 40h-199v-453q0 -81 39 -109t127 -28h72q95 0 167 43q49 29 129 165q26 44 79 142h92
l-66 -446h-1190zM408 1538v176h598v-176h-598z" />
    <glyph glyph-name="emacron" unicode="&#x113;" horiz-adv-x="1077" 
d="M299 1280v176h586v-176h-586zM565 1038q-162 0 -178 -319h328q0 319 -150 319zM585 1124q222 0 338 -123t115 -325v-51h-653q-2 -180 87 -288t230 -108q193 0 306 150l39 -25q-43 -174 -163 -274t-309 -100q-233 0 -383 147t-149 406q0 259 160 425t382 166z" />
    <glyph glyph-name="Ebreve" unicode="&#x114;" horiz-adv-x="1341" 
d="M53 0v86q102 10 126 33t24 104v991q0 82 -24 105t-126 33v86h1178l10 -396h-78q-86 180 -150 240q-65 59 -198 59h-211v-542h199q67 0 95 40t42 148h88v-491h-88q-14 110 -42 150t-95 40h-199v-453q0 -81 39 -109t127 -28h72q95 0 167 43q49 29 129 165q26 44 79 142h92
l-66 -446h-1190zM1010 1835q0 -151 -80 -235t-224 -84t-225 83q-80 84 -80 236h95q25 -133 210 -133t207 133h97z" />
    <glyph glyph-name="ebreve" unicode="&#x115;" horiz-adv-x="1077" 
d="M596 1225q-143 0 -220 89t-77 255h94q17 -154 201 -154t203 154h94q0 -166 -76 -255t-219 -89zM565 1038q-162 0 -178 -319h328q0 319 -150 319zM585 1124q222 0 338 -123t115 -325v-51h-653q-2 -180 87 -288t230 -108q193 0 306 150l39 -25q-43 -174 -163 -274
t-309 -100q-233 0 -383 147t-149 406q0 259 160 425t382 166z" />
    <glyph glyph-name="Edotaccent" unicode="&#x116;" horiz-adv-x="1341" 
d="M53 0v86q102 10 126 33t24 104v991q0 82 -24 105t-126 33v86h1178l10 -396h-78q-86 180 -150 240q-65 59 -198 59h-211v-542h199q67 0 95 40t42 148h88v-491h-88q-14 110 -42 150t-95 40h-199v-453q0 -81 39 -109t127 -28h72q95 0 167 43q49 29 129 165q26 44 79 142h92
l-66 -446h-1190zM707 1518q-90 0 -146 55q-55 55 -55 134t55 134t145 55t146 -55q55 -55 55 -134t-55 -134t-145 -55z" />
    <glyph glyph-name="edotaccent" unicode="&#x117;" horiz-adv-x="1077" 
d="M592 1223q-90 0 -146 54q-55 54 -55 134t55 135q56 56 146 56t145 -56t55 -135q0 -80 -54 -134q-56 -54 -146 -54zM565 1038q-162 0 -178 -319h328q0 319 -150 319zM585 1124q222 0 338 -123t115 -325v-51h-653q-2 -180 87 -288t230 -108q193 0 306 150l39 -25
q-43 -174 -163 -274t-309 -100q-233 0 -383 147t-149 406q0 259 160 425t382 166z" />
    <glyph glyph-name="Eogonek" unicode="&#x118;" horiz-adv-x="1341" 
d="M53 0v86q102 10 126 33t24 104v991q0 82 -24 105t-126 33v86h1178l10 -396h-78q-86 180 -150 240q-65 59 -198 59h-211v-542h199q67 0 95 40t42 148h88v-491h-88q-14 110 -42 150t-95 40h-199v-453q0 -81 39 -109t127 -28h72q95 0 167 43q49 29 129 165q26 44 79 142h92
l-66 -446h-219q-121 -80 -121 -195q0 -45 25 -73t80 -29q55 0 118 49l33 -41q-119 -152 -276 -151q-82 0 -138 46q-55 46 -55 124q0 162 217 270h-854z" />
    <glyph glyph-name="eogonek" unicode="&#x119;" horiz-adv-x="1077" 
d="M565 1038q-162 0 -178 -319h328q0 319 -150 319zM784 18q-160 -76 -160 -196t108 -119q56 0 120 49l33 -41q-119 -152 -279 -151q-82 0 -137 46t-55 124q0 147 184 250h-23q-233 0 -383 147t-149 406q0 259 161 425t383 166t337 -124t114 -324v-51h-653q-2 -180 87 -288
t230 -108q193 0 306 150l39 -25q-61 -238 -263 -336z" />
    <glyph glyph-name="Ecaron" unicode="&#x11a;" horiz-adv-x="1341" 
d="M53 0v86q102 10 126 33t24 104v991q0 82 -24 105t-126 33v86h1178l10 -396h-78q-86 180 -150 240q-65 59 -198 59h-211v-542h199q67 0 95 40t42 148h88v-491h-88q-14 110 -42 150t-95 40h-199v-453q0 -81 39 -109t127 -28h72q95 0 167 43q49 29 129 165q26 44 79 142h92
l-66 -446h-1190zM1077 1837l-246 -313h-253l-246 313h117l256 -143l256 143h116z" />
    <glyph glyph-name="ecaron" unicode="&#x11b;" horiz-adv-x="1077" 
d="M565 1038q-162 0 -178 -319h328q0 319 -150 319zM585 1124q222 0 338 -123t115 -325v-51h-653q-2 -180 87 -288t230 -108q193 0 306 150l39 -25q-43 -174 -163 -274t-309 -100q-233 0 -383 147t-149 406q0 259 160 425t382 166zM956 1577l-237 -348h-254l-238 348h119
l246 -174l246 174h118z" />
    <glyph glyph-name="Gcircumflex" unicode="&#x11c;" horiz-adv-x="1519" 
d="M981 1835l246 -313h-117l-256 143l-256 -143h-117l246 313h254zM977 457q0 83 -24 105t-126 34v86h672v-86q-100 -12 -124 -35t-23 -104v-340q-215 -137 -562 -137t-542 196t-195 506q1 350 225 563t558 213q279 0 462 -121l7 -358h-101q-80 377 -354 377
q-186 0 -280 -171t-93 -449q0 -278 96 -465t277 -187q80 0 127 25v348z" />
    <glyph glyph-name="gcircumflex" unicode="&#x11d;" horiz-adv-x="1140" 
d="M544 465q66 0 94 69q28 68 28 202t-35 218t-103 84q-123 0 -122 -270q0 -131 36 -217t102 -86zM696 1569l238 -348h-119l-246 174l-245 -174h-119l237 348h254zM768 -86h-541q-18 -20 -18 -76q0 -92 88 -145q87 -53 237 -53t250 44t101 138q0 92 -117 92zM530 385
q-123 0 -225 35q-59 -51 -59 -103q0 -59 61 -59h445q393 0 393 -305q0 -195 -170 -303q-169 -108 -435 -107q-266 0 -405 65t-139 185q0 72 55 113t133 53q-63 25 -99 81t-36 124q0 168 201 276q-195 92 -195 295q0 181 136 285t354 104q102 0 194 -28l365 8v-137h-92
l-125 4q127 -84 127 -241t-136 -251t-348 -94z" />
    <glyph glyph-name="Gbreve" unicode="&#x11e;" horiz-adv-x="1519" 
d="M977 457q0 83 -24 105t-126 34v86h672v-86q-100 -12 -124 -35t-23 -104v-340q-215 -137 -562 -137t-542 196t-195 506q1 350 225 563t558 213q279 0 462 -121l7 -358h-101q-80 377 -354 377q-186 0 -280 -171t-93 -449q0 -278 96 -465t277 -187q80 0 127 25v348z
M1157 1835q0 -151 -80 -235t-224 -84t-224 84t-80 235h94q25 -133 210 -133t208 133h96z" />
    <glyph glyph-name="gbreve" unicode="&#x11f;" horiz-adv-x="1140" 
d="M569 1225q-143 0 -220 89t-77 255h95q18 -154 201 -154t202 154h94q0 -166 -76 -255t-219 -89zM544 465q66 0 94 69q28 68 28 202t-35 218t-103 84q-123 0 -122 -270q0 -131 36 -217t102 -86zM768 -86h-541q-18 -20 -18 -76q0 -92 88 -145q87 -53 237 -53t250 44t101 138
q0 92 -117 92zM530 385q-123 0 -225 35q-59 -51 -59 -103q0 -59 61 -59h445q393 0 393 -305q0 -195 -170 -303q-169 -108 -435 -107q-266 0 -405 65t-139 185q0 72 55 113t133 53q-63 25 -99 81t-36 124q0 168 201 276q-195 92 -195 295q0 181 136 285t354 104
q102 0 194 -28l365 8v-137h-92l-125 4q127 -84 127 -241t-136 -251t-348 -94z" />
    <glyph glyph-name="Gdotaccent" unicode="&#x120;" horiz-adv-x="1519" 
d="M977 457q0 83 -24 105t-126 34v86h672v-86q-100 -12 -124 -35t-23 -104v-340q-215 -137 -562 -137t-542 196t-195 506q1 350 225 563t558 213q279 0 462 -121l7 -358h-101q-80 377 -354 377q-186 0 -280 -171t-93 -449q0 -278 96 -465t277 -187q80 0 127 25v348z
M854 1518q-90 0 -145 55t-55 134t54 134q56 55 146 55t145 -55t55 -134t-54 -134q-56 -55 -146 -55z" />
    <glyph glyph-name="gdotaccent" unicode="&#x121;" horiz-adv-x="1140" 
d="M569 1223q-90 0 -145 54t-55 134t55 135q55 56 145 56q89 0 145 -56t56 -135q0 -80 -56 -134t-145 -54zM544 465q66 0 94 69q28 68 28 202t-35 218t-103 84q-123 0 -122 -270q0 -131 36 -217t102 -86zM768 -86h-541q-18 -20 -18 -76q0 -92 88 -145q87 -53 237 -53t250 44
t101 138q0 92 -117 92zM530 385q-123 0 -225 35q-59 -51 -59 -103q0 -59 61 -59h445q393 0 393 -305q0 -195 -170 -303q-169 -108 -435 -107q-266 0 -405 65t-139 185q0 72 55 113t133 53q-63 25 -99 81t-36 124q0 168 201 276q-195 92 -195 295q0 181 136 285t354 104
q102 0 194 -28l365 8v-137h-92l-125 4q127 -84 127 -241t-136 -251t-348 -94z" />
    <glyph glyph-name="Gcommaaccent" unicode="&#x122;" horiz-adv-x="1519" 
d="M977 457q0 83 -24 105t-126 34v86h672v-86q-100 -12 -124 -35t-23 -104v-340q-215 -137 -562 -137t-542 196t-195 506q1 350 225 563t558 213q279 0 462 -121l7 -358h-101q-80 377 -354 377q-186 0 -280 -171t-93 -449q0 -278 96 -465t277 -187q80 0 127 25v348z
M676 -199q0 57 44 93t127 34q83 0 134 -52t51 -148t-85 -164q-85 -66 -257 -66v74q92 0 143 32q50 32 52 77h-111q-98 25 -98 120z" />
    <glyph glyph-name="gcommaaccent" unicode="&#x123;" horiz-adv-x="1140" 
d="M576 1212q-82 0 -134 54t-51 150q0 96 85 162t257 67v-76q-92 0 -142 -31t-54 -76h112q98 -27 99 -123q0 -55 -46 -91q-44 -36 -126 -36zM544 465q66 0 94 69q28 68 28 202t-35 218t-103 84q-123 0 -122 -270q0 -131 36 -217t102 -86zM768 -86h-541q-18 -20 -18 -76
q0 -92 88 -145q87 -53 237 -53t250 44t101 138q0 92 -117 92zM530 385q-123 0 -225 35q-59 -51 -59 -103q0 -59 61 -59h445q393 0 393 -305q0 -195 -170 -303q-169 -108 -435 -107q-266 0 -405 65t-139 185q0 72 55 113t133 53q-63 25 -99 81t-36 124q0 168 201 276
q-195 92 -195 295q0 181 136 285t354 104q102 0 194 -28l365 8v-137h-92l-125 4q127 -84 127 -241t-136 -251t-348 -94z" />
    <glyph glyph-name="Hcircumflex" unicode="&#x124;" horiz-adv-x="1728" 
d="M991 1835l246 -313h-117l-256 143l-256 -143h-116l245 313h254zM604 1214v-421h520v421q0 82 -23 105q-24 23 -126 33v86h698v-86q-100 -10 -124 -33t-23 -105v-991q0 -83 24 -105t123 -32v-86h-698v86q102 10 126 33t23 104v443h-520v-443q0 -83 24 -105t124 -32v-86
h-699v86q102 10 126 33t24 104v991q0 82 -24 105t-126 33v86h699v-86q-100 -10 -124 -33t-24 -105z" />
    <glyph glyph-name="hcircumflex" unicode="&#x125;" horiz-adv-x="1353" 
d="M809 1958l246 -313h-117l-256 143l-256 -143h-117l246 313h254zM152 160v1231l-113 57v61l428 95h63v-684q162 205 381 204q150 0 230 -85t80 -251v-628q0 -47 23 -62q24 -14 91 -18v-80h-602v80q65 4 87 18t22 62v598q0 72 -31 108t-113 35q-82 0 -168 -45v-696
q0 -48 22 -62t87 -18v-80h-602v80q67 4 91 18t24 62z" />
    <glyph glyph-name="Hbar" unicode="&#x126;" horiz-adv-x="1769" 
d="M625 793h520v208h-520v-208zM625 1214v-86h520v86q0 82 -24 105t-126 33v86h699v-86q-100 -10 -124 -33t-24 -105v-86h148v-127h-148v-778q0 -83 24 -105t124 -32v-86h-699v86q102 10 126 33t24 104v443h-520v-443q-1 -83 23 -105t124 -32v-86h-698v86q102 10 126 33
t23 104v778h-147v127h147v86q0 82 -23 105q-24 23 -126 33v86h698v-86q-100 -10 -124 -33t-23 -105z" />
    <glyph glyph-name="hbar" unicode="&#x127;" horiz-adv-x="1353" 
d="M152 160v1046h-113v105h113v80l-113 57v61l428 95h63v-293h248v-105h-248v-286q162 205 381 204q150 0 230 -85t80 -251v-628q0 -47 23 -62q24 -14 91 -18v-80h-602v80q65 4 87 18t22 62v598q0 72 -31 108t-113 35q-82 0 -168 -45v-696q0 -48 22 -62t87 -18v-80h-602v80
q67 4 91 18t24 62z" />
    <glyph glyph-name="Itilde" unicode="&#x128;" horiz-adv-x="806" 
d="M550 1520q-73 0 -159 61t-125 61q-68 0 -133 -114l-72 41q55 143 109 211t125 68q72 0 157 -63q85 -62 126 -63q68 0 131 115l73 -39q-57 -146 -108 -212t-124 -66zM604 1214v-991q0 -83 24 -105t124 -32v-86h-699v86q102 10 126 33t24 104v991q0 82 -24 105t-126 33v86
h699v-86q-100 -10 -124 -33t-24 -105z" />
    <glyph glyph-name="itilde" unicode="&#x129;" horiz-adv-x="684" 
d="M537 1124v-964q0 -47 23 -62q24 -14 91 -18v-80h-606v80q67 4 91 18t24 62v719l-113 69v58l426 118h64zM470 1235q-70 0 -149 60q-79 61 -117 61t-66 -28t-60 -85l-72 41q52 145 102 210t120 65q70 -1 149 -61q78 -60 116 -60q39 0 65 26t60 84l72 -39
q-53 -145 -102 -209q-48 -64 -118 -65z" />
    <glyph glyph-name="Imacron" unicode="&#x12a;" horiz-adv-x="806" 
d="M104 1538v176h598v-176h-598zM604 1214v-991q0 -83 24 -105t124 -32v-86h-699v86q102 10 126 33t24 104v991q0 82 -24 105t-126 33v86h699v-86q-100 -10 -124 -33t-24 -105z" />
    <glyph glyph-name="imacron" unicode="&#x12b;" horiz-adv-x="684" 
d="M70 1282v174h567v-174h-567zM537 1124v-964q0 -47 23 -62q24 -14 91 -18v-80h-606v80q67 4 91 18t24 62v719l-113 69v58l426 118h64z" />
    <glyph glyph-name="Ibreve" unicode="&#x12c;" horiz-adv-x="806" 
d="M402 1516q-142 0 -220 84t-78 235h93q25 -133 207 -133t204 133h94q0 -152 -78 -236q-80 -83 -222 -83zM604 1214v-991q0 -83 24 -105t124 -32v-86h-699v86q102 10 126 33t24 104v991q0 82 -24 105t-126 33v86h699v-86q-100 -10 -124 -33t-24 -105z" />
    <glyph glyph-name="ibreve" unicode="&#x12d;" horiz-adv-x="684" 
d="M355 1225q-140 0 -216 89t-76 255h93q18 -154 198 -154t199 154h94q0 -164 -76 -254t-216 -90zM537 1124v-964q0 -47 23 -62q24 -14 91 -18v-80h-606v80q67 4 91 18t24 62v719l-113 69v58l426 118h64z" />
    <glyph glyph-name="Iogonek" unicode="&#x12e;" horiz-adv-x="806" 
d="M604 1214v-991q0 -83 24 -105t124 -32v-86h-250q-121 -80 -121 -195q0 -45 25 -73t80 -29q55 0 118 49l33 -41q-119 -152 -277 -151q-82 0 -137 46t-55 124q0 162 217 270h-332v86q102 10 126 33t24 104v991q0 82 -24 105t-126 33v86h699v-86q-100 -10 -124 -33t-24 -105
z" />
    <glyph glyph-name="iogonek" unicode="&#x12f;" horiz-adv-x="684" 
d="M553 1405q1 -79 -55 -135t-147 -56t-145 56t-54 135q0 80 54 134t145 54t147 -54t55 -134zM537 1124v-964q0 -47 23 -62q24 -14 91 -18v-80h-207q-121 -80 -120 -195q0 -45 24 -73t80 -29q56 0 119 49l33 -41q-119 -152 -277 -151q-82 0 -137 46t-55 124q0 162 217 270
h-283v80q67 4 91 18t24 62v719l-113 69v58l426 118h64z" />
    <glyph glyph-name="Idotaccent" unicode="&#x130;" horiz-adv-x="806" 
d="M403 1518q-90 0 -145 55t-55 134t55 134t145 55q89 0 145 -55t56 -134t-56 -134t-145 -55zM604 1214v-991q0 -83 24 -105t124 -32v-86h-699v86q102 10 126 33t24 104v991q0 82 -24 105t-126 33v86h699v-86q-100 -10 -124 -33t-24 -105z" />
    <glyph glyph-name="dotlessi" unicode="&#x131;" horiz-adv-x="684" 
d="M537 1124v-964q0 -47 23 -62q24 -14 91 -18v-80h-606v80q67 4 91 18t24 62v719l-113 69v58l426 118h64z" />
    <glyph glyph-name="IJ" unicode="&#x132;" horiz-adv-x="1966" 
d="M1384 344v870q0 82 -23 105q-24 23 -126 33v86h698v-86q-100 -10 -124 -33t-23 -105v-753q0 -481 -549 -481q-229 0 -351 78t-122 216q0 136 102 195h258q-14 -86 -14 -158q0 -244 137 -243q82 0 110 67q27 68 27 209zM604 1214v-991q0 -83 24 -105t124 -32v-86h-699v86
q102 10 126 33t24 104v991q0 82 -24 105t-126 33v86h699v-86q-100 -10 -124 -33t-24 -105z" />
    <glyph glyph-name="ij" unicode="&#x133;" horiz-adv-x="1302" 
d="M999 1214q-90 0 -145 56t-55 135q0 80 55 134t145 54q89 0 145 -54t56 -134q0 -79 -56 -135t-145 -56zM1190 1124v-907q0 -164 -34 -256t-112 -169t-154 -126q-77 -49 -196 -102l-32 41l83 131q45 72 57 159q11 87 11 234v750l-115 69v58l428 118h64zM553 1405
q1 -79 -55 -135t-147 -56t-145 56t-54 135q0 80 54 134t145 54t147 -54t55 -134zM537 1124v-964q0 -47 23 -62q24 -14 91 -18v-80h-606v80q67 4 91 18t24 62v719l-113 69v58l426 118h64z" />
    <glyph glyph-name="Jcircumflex" unicode="&#x134;" horiz-adv-x="1193" 
d="M938 1835l246 -313h-117l-256 143l-256 -143h-117l246 313h254zM610 344v870q0 82 -23 105q-24 23 -126 33v86h698v-86q-100 -10 -124 -33t-23 -105v-753q0 -481 -549 -481q-229 0 -351 78t-122 216q0 136 102 195h258q-14 -86 -14 -158q0 -244 137 -243q82 0 110 67
q27 68 27 209z" />
    <glyph glyph-name="jcircumflex" unicode="&#x135;" horiz-adv-x="618" 
d="M420 1569l215 -344h-107l-225 172l-223 -172h-109l217 344h232zM506 1124v-907q0 -164 -34 -256t-112 -169t-154 -126t-196 -102l-33 41l84 131q45 72 57 159q11 87 11 234v750l-115 69v58l428 118h64z" />
    <glyph glyph-name="Kcommaaccent" unicode="&#x136;" horiz-adv-x="1572" 
d="M604 1214v-991q0 -83 24 -105t124 -32v-86h-699v86q102 10 126 33t24 104v991q0 82 -24 105t-126 33v86h699v-86q-100 -10 -124 -33t-24 -105zM1573 0h-477q-94 80 -187 236l-286 462l479 500q57 57 57 96q0 51 -141 58v86h485v-86q-63 -2 -98 -18t-76 -60l-368 -395
l425 -658q47 -71 84 -99t103 -36v-86zM635 -199q0 57 44 93t127 34q83 0 134 -52t51 -148t-85 -164q-85 -66 -257 -66v74q92 0 143 32q50 32 52 77h-111q-98 25 -98 120z" />
    <glyph glyph-name="kcommaaccent" unicode="&#x137;" horiz-adv-x="1306" 
d="M152 160v1231l-113 57v61l428 95h63v-1444q0 -48 24 -62t91 -18v-80h-608v80q67 4 91 18t24 62zM926 958q0 34 -26 46t-99 20v80h465v-80q-111 -16 -170 -76l-236 -221l447 -672v-55h-394l-368 580l313 284q68 60 68 94zM500 -199q0 57 44 93t127 34q83 0 134 -52
t51 -148t-85 -164q-85 -66 -257 -66v74q92 0 142 32t53 77h-111q-98 25 -98 120z" />
    <glyph glyph-name="kgreenlandic" unicode="&#x138;" horiz-adv-x="1312" 
d="M160 160v717l-113 73v56l428 118h62v-964q0 -47 23 -62q24 -14 91 -18v-80h-606v80q67 4 91 18t24 62zM932 958q0 34 -26 46t-97 20v80h465v-80q-111 -16 -172 -76l-234 -221l445 -672v-55h-391l-371 580l315 284q66 60 66 94z" />
    <glyph glyph-name="Lacute" unicode="&#x139;" horiz-adv-x="1318" 
d="M604 1214v-981q0 -81 35 -109t123 -28h57q102 0 178 77t215 312h88l-77 -485h-1170v86q102 10 126 33t24 104v991q0 82 -24 105t-126 33v86h699v-86q-100 -10 -124 -33t-24 -105zM823 1827v-19l-354 -286h-115l101 305h368z" />
    <glyph glyph-name="lacute" unicode="&#x13a;" horiz-adv-x="675" 
d="M530 1604v-1444q0 -48 24 -62t91 -18v-80h-608v80q67 4 91 18t24 62v1231l-113 57v61l428 95h63zM698 1948v-19l-354 -287h-115l101 306h368z" />
    <glyph glyph-name="Lcommaaccent" unicode="&#x13b;" horiz-adv-x="1318" 
d="M604 1214v-981q0 -81 35 -109t123 -28h57q102 0 178 77t215 312h88l-77 -485h-1170v86q102 10 126 33t24 104v991q0 82 -24 105t-126 33v86h699v-86q-100 -10 -124 -33t-24 -105zM500 -199q0 57 44 93t127 34q83 0 134 -52t51 -148t-85 -164q-85 -66 -257 -66v74
q92 0 142 32t53 77h-111q-98 25 -98 120z" />
    <glyph glyph-name="lcommaaccent" unicode="&#x13c;" horiz-adv-x="675" 
d="M530 1604v-1444q0 -48 24 -62t91 -18v-80h-608v80q67 4 91 18t24 62v1231l-113 57v61l428 95h63zM164 -199q0 57 44 93t127 34q83 0 134 -52t51 -148t-85 -164q-85 -66 -257 -66v74q92 0 143 32q50 32 52 77h-111q-98 25 -98 120z" />
    <glyph glyph-name="Lcaron" unicode="&#x13d;" horiz-adv-x="1318" 
d="M604 1214v-981q0 -81 35 -109t123 -28h57q102 0 178 77t215 312h88l-77 -485h-1170v86q102 10 126 33t24 104v991q0 82 -24 105t-126 33v86h699v-86q-100 -10 -124 -33t-24 -105zM1192 1438v-23l-238 -397h-84l27 420h295z" />
    <glyph glyph-name="lcaron" unicode="&#x13e;" horiz-adv-x="675" 
d="M530 1604v-1444q0 -48 24 -62t91 -18v-80h-608v80q67 4 91 18t24 62v1231l-113 57v61l428 95h63zM932 1604v-23l-238 -397h-84l27 420h295z" />
    <glyph glyph-name="Ldot" unicode="&#x13f;" horiz-adv-x="1318" 
d="M889 829q0 87 58 145q57 58 143 58t143 -57t57 -145t-57 -144q-57 -55 -142 -55t-144 55q-58 55 -58 143zM604 1214v-981q0 -81 35 -109t123 -28h57q102 0 178 77t215 312h88l-77 -485h-1170v86q102 10 126 33t24 104v991q0 82 -24 105t-126 33v86h699v-86
q-100 -10 -124 -33t-24 -105z" />
    <glyph glyph-name="ldot" unicode="&#x140;" horiz-adv-x="931" 
d="M600 791q0 86 57 143t141 57t141 -57q56 -57 56 -143q0 -85 -56 -141t-140 -56t-142 55q-57 56 -57 142zM530 1604v-1444q0 -48 24 -62t91 -18v-80h-608v80q67 4 91 18t24 62v1231l-113 57v61l428 95h63z" />
    <glyph glyph-name="Lslash" unicode="&#x141;" horiz-adv-x="1318" 
d="M604 1214v-401l285 98v-123l-285 -100v-455q0 -81 35 -109t123 -28h57q102 0 178 77t215 312h88l-77 -485h-1170v86q102 10 126 33t24 104v344l-144 -49v123l144 51v522q0 82 -24 105t-126 33v86h699v-86q-100 -10 -124 -33t-24 -105z" />
    <glyph glyph-name="lslash" unicode="&#x142;" horiz-adv-x="718" 
d="M545 1604v-578l162 78v-119l-162 -80v-745q0 -47 23 -62q24 -14 91 -18v-80h-608v80q67 4 91 18t24 62v598l-152 -72v119l152 74v512l-113 57v61l428 95h64z" />
    <glyph glyph-name="Nacute" unicode="&#x143;" horiz-adv-x="1544" 
d="M1223 1212q0 78 -40 104t-167 36v86h491v-86q-100 -10 -124 -34t-23 -106v-1214h-146l-874 1081v-854q0 -77 40 -103t167 -36v-86h-492v86q100 10 124 34t24 105v996q-43 73 -72 101t-78 30v86h516l654 -811v585zM1153 1827v-19l-354 -286h-115l100 305h369z" />
    <glyph glyph-name="nacute" unicode="&#x144;" horiz-adv-x="1359" 
d="M850 160v598q0 72 -31 108t-111 35q-80 0 -171 -45v-696q0 -47 22 -62q23 -14 88 -18v-80h-602v80q67 4 91 18t24 62v719l-113 69v58l428 118h70l-8 -204q162 205 381 204q152 0 232 -84t79 -252v-628q0 -47 23 -62q24 -14 91 -18v-80h-602v80q65 4 87 18t22 62z
M1069 1567v-19l-362 -317h-107l102 336h367z" />
    <glyph glyph-name="Ncommaaccent" unicode="&#x145;" horiz-adv-x="1544" 
d="M1223 1212q0 78 -40 104t-167 36v86h491v-86q-100 -10 -124 -34t-23 -106v-1214h-146l-874 1081v-854q0 -77 40 -103t167 -36v-86h-492v86q100 10 124 34t24 105v996q-43 73 -72 101t-78 30v86h516l654 -811v585zM623 -199q0 57 44 93q45 36 127 34q82 0 134 -52t51 -148
q0 -96 -85 -164q-85 -66 -257 -66v74q92 0 142 32t52 77h-110q-98 25 -98 120z" />
    <glyph glyph-name="ncommaaccent" unicode="&#x146;" horiz-adv-x="1359" 
d="M850 160v598q0 72 -31 108t-111 35q-80 0 -171 -45v-696q0 -47 22 -62q23 -14 88 -18v-80h-602v80q67 4 91 18t24 62v719l-113 69v58l428 118h70l-8 -204q162 205 381 204q152 0 232 -84t79 -252v-628q0 -47 23 -62q24 -14 91 -18v-80h-602v80q65 4 87 18t22 62z
M539 -199q0 57 44 93t127 34q83 0 134 -52t51 -148t-85 -164q-85 -66 -257 -66v74q93 0 143 32t52 77h-111q-98 25 -98 120z" />
    <glyph glyph-name="Ncaron" unicode="&#x147;" horiz-adv-x="1544" 
d="M1223 1212q0 78 -40 104t-167 36v86h491v-86q-100 -10 -124 -34t-23 -106v-1214h-146l-874 1081v-854q0 -77 40 -103t167 -36v-86h-492v86q100 10 124 34t24 105v996q-43 73 -72 101t-78 30v86h516l654 -811v585zM1171 1837l-245 -313h-254l-246 313h117l256 -143
l256 143h116z" />
    <glyph glyph-name="ncaron" unicode="&#x148;" horiz-adv-x="1359" 
d="M850 160v598q0 72 -31 108t-111 35q-80 0 -171 -45v-696q0 -47 22 -62q23 -14 88 -18v-80h-602v80q67 4 91 18t24 62v719l-113 69v58l428 118h70l-8 -204q162 205 381 204q152 0 232 -84t79 -252v-628q0 -47 23 -62q24 -14 91 -18v-80h-602v80q65 4 87 18t22 62z
M1079 1577l-237 -348h-254l-238 348h119l246 -174l246 174h118z" />
    <glyph glyph-name="Eng" unicode="&#x14a;" horiz-adv-x="1544" 
d="M340 225q0 -77 40 -103t167 -36v-86h-492v86q100 10 124 34t24 105v996q-43 73 -72 101t-78 30v86h518l652 -811v585q0 78 -40 104t-167 36v86h491v-86q-100 -10 -124 -34t-23 -106v-995q0 -162 -29 -252t-103 -170t-143 -126q-70 -46 -182 -97l-35 41l88 117
q70 92 96 196t25 244l-737 909v-854z" />
    <glyph glyph-name="eng" unicode="&#x14b;" horiz-adv-x="1339" 
d="M850 129v629q0 72 -31 108t-111 35q-80 0 -171 -45v-696q0 -47 22 -62q23 -14 88 -18v-80h-602v80q67 4 91 18t24 62v719l-113 69v58l428 118h70l-8 -204q162 205 381 204q152 0 232 -84t79 -252v-571q0 -164 -34 -256t-112 -169q-79 -77 -155 -126t-195 -102l-35 41
l84 131q45 72 57 159q11 87 11 234z" />
    <glyph glyph-name="Omacron" unicode="&#x14c;" horiz-adv-x="1529" 
d="M742 -20q-324 0 -506 204t-183 506q0 348 204 558q205 210 529 210t506 -205t183 -505q0 -348 -204 -558t-529 -210zM774 78q98 0 163 94q114 165 114 492q0 328 -73 512t-224 184q-98 0 -163 -94q-114 -165 -114 -492q1 -328 73 -512t224 -184zM473 1538v176h598v-176
h-598z" />
    <glyph glyph-name="omacron" unicode="&#x14d;" horiz-adv-x="1230" 
d="M618 1124q254 0 412 -150t158 -405q0 -253 -161 -421t-415 -168t-412 150t-157 404q0 254 161 422q160 168 414 168zM625 66q88 0 125 105t36 312q0 555 -180 555q-88 0 -125 -105t-37 -312q1 -555 181 -555zM330 1280v176h585v-176h-585z" />
    <glyph glyph-name="Obreve" unicode="&#x14e;" horiz-adv-x="1529" 
d="M742 -20q-324 0 -506 204t-183 506q0 348 204 558q205 210 529 210t506 -205t183 -505q0 -348 -204 -558t-529 -210zM774 78q98 0 163 94q114 165 114 492q0 328 -73 512t-224 184q-98 0 -163 -94q-114 -165 -114 -492q1 -328 73 -512t224 -184zM1075 1835
q0 -151 -80 -235t-224 -84t-224 84t-80 235h94q25 -133 210 -133t208 133h96z" />
    <glyph glyph-name="obreve" unicode="&#x14f;" horiz-adv-x="1230" 
d="M623 1225q-143 0 -221 89q-77 89 -76 255h94q18 -154 202 -154t201 154h95q0 -166 -76 -255t-219 -89zM618 1124q254 0 412 -150t158 -405q0 -253 -161 -421t-415 -168t-412 150t-157 404q0 254 161 422q160 168 414 168zM625 66q88 0 125 105t36 312q0 555 -180 555
q-88 0 -125 -105t-37 -312q1 -555 181 -555z" />
    <glyph glyph-name="Ohungarumlaut" unicode="&#x150;" horiz-adv-x="1529" 
d="M1309 1827v-19l-301 -286h-111l104 305h308zM940 1827v-19l-301 -286h-109l103 305h307zM742 -20q-324 0 -506 204t-183 506q0 348 204 558q205 210 529 210t506 -205t183 -505q0 -348 -204 -558t-529 -210zM774 78q98 0 163 94q114 165 114 492q0 328 -73 512t-224 184
q-98 0 -163 -94q-114 -165 -114 -492q1 -328 73 -512t224 -184z" />
    <glyph glyph-name="ohungarumlaut" unicode="&#x151;" horiz-adv-x="1230" 
d="M618 1124q254 0 412 -150t158 -405q0 -253 -161 -421t-415 -168t-412 150t-157 404q0 254 161 422q160 168 414 168zM625 66q88 0 125 105t36 312q0 555 -180 555q-88 0 -125 -105t-37 -312q1 -555 181 -555zM1137 1567v-19l-303 -317h-109l104 336h308zM768 1567v-19
l-301 -317h-109l103 336h307z" />
    <glyph glyph-name="OE" unicode="&#x152;" horiz-adv-x="2148" 
d="M899 0q-414 0 -630 195t-216 523q1 328 229 524t617 196h1149v-396h-78q-84 180 -147 240t-199 59h-213v-542h199q70 0 98 40t39 148h90v-491h-90q-12 110 -40 150t-97 40h-199v-453q0 -81 39 -109t127 -28h72q69 0 113 14t90 63q46 50 77 100t96 173h93l-68 -446h-1151z
M1010 1341h-82q-211 -1 -334 -163t-123 -449t131 -460t367 -173h41v1245z" />
    <glyph glyph-name="oe" unicode="&#x153;" horiz-adv-x="1830" 
d="M1319 1038q-82 0 -127 -85t-53 -234h327q0 319 -147 319zM625 66q164 0 163 417q0 555 -182 555q-162 0 -162 -417q1 -555 181 -555zM614 -20q-256 0 -414 150t-157 404t161 422t398 168t395 -153q154 153 360 153q207 0 321 -124t114 -324v-51h-655q-2 -180 87 -288
t230 -108q195 0 305 150l39 -25q-43 -174 -163 -274q-119 -100 -315 -100t-347 147q-162 -147 -359 -147z" />
    <glyph glyph-name="Racute" unicode="&#x154;" horiz-adv-x="1554" 
d="M1098 1827v-19l-355 -286h-114l100 305h369zM604 600v-377q0 -83 24 -105t124 -32v-86h-699v86q102 10 126 33t24 104v991q0 82 -24 105t-126 33v86h752q253 0 403 -110t150 -298q0 -143 -88 -235t-219 -136l284 -407q66 -96 108 -130t111 -36v-86h-469q-80 61 -172 217
l-233 383h-76zM664 1337h-60v-635h62q139 0 216 85q76 85 76 235t-76 233q-77 82 -218 82z" />
    <glyph glyph-name="racute" unicode="&#x155;" horiz-adv-x="935" 
d="M537 190q1 -61 33 -79t130 -31v-80h-655v80q67 4 91 18t24 62v719l-113 69v58l428 118h70l-8 -315q63 178 125 247t159 68q68 0 103 -34v-285h-50q-118 1 -196 -13t-141 -61v-541zM889 1567v-19l-363 -317h-106l102 336h367z" />
    <glyph glyph-name="Rcommaaccent" unicode="&#x156;" horiz-adv-x="1554" 
d="M604 600v-377q0 -83 24 -105t124 -32v-86h-699v86q102 10 126 33t24 104v991q0 82 -24 105t-126 33v86h752q253 0 403 -110t150 -298q0 -143 -88 -235t-219 -136l284 -407q66 -96 108 -130t111 -36v-86h-469q-80 61 -172 217l-233 383h-76zM664 1337h-60v-635h62
q139 0 216 85q76 85 76 235t-76 233q-77 82 -218 82zM969 -272q0 -96 -85 -164q-85 -66 -257 -66v74q92 0 142 32t52 77h-110q-98 25 -99 120q0 57 44 93t127 34q83 0 135 -52t51 -148z" />
    <glyph glyph-name="rcommaaccent" unicode="&#x157;" horiz-adv-x="935" 
d="M537 190q1 -61 33 -79t130 -31v-80h-655v80q67 4 91 18t24 62v719l-113 69v58l428 118h70l-8 -315q63 178 125 247t159 68q68 0 103 -34v-285h-50q-118 1 -196 -13t-141 -61v-541zM545 -272q0 -96 -85 -164q-85 -66 -257 -66v74q92 0 142 32t52 77h-110q-98 25 -99 120
q0 57 44 93t127 34q83 0 135 -52t51 -148z" />
    <glyph glyph-name="Rcaron" unicode="&#x158;" horiz-adv-x="1554" 
d="M604 600v-377q0 -83 24 -105t124 -32v-86h-699v86q102 10 126 33t24 104v991q0 82 -24 105t-126 33v86h752q253 0 403 -110t150 -298q0 -143 -88 -235t-219 -136l284 -407q66 -96 108 -130t111 -36v-86h-469q-80 61 -172 217l-233 383h-76zM664 1337h-60v-635h62
q139 0 216 85q76 85 76 235t-76 233q-77 82 -218 82zM1114 1837l-246 -313h-254l-245 313h116l256 -143l256 143h117z" />
    <glyph glyph-name="rcaron" unicode="&#x159;" horiz-adv-x="935" 
d="M537 190q1 -61 33 -79t130 -31v-80h-655v80q67 4 91 18t24 62v719l-113 69v58l428 118h70l-8 -315q63 178 125 247t159 68q68 0 103 -34v-285h-50q-118 1 -196 -13t-141 -61v-541zM899 1577l-237 -348h-254l-238 348h119l246 -174l245 174h119z" />
    <glyph glyph-name="Sacute" unicode="&#x15a;" horiz-adv-x="1185" 
d="M983 1827v-19l-354 -286h-115l100 305h369zM563 -20q-147 0 -276 38t-205 99l-23 356h109q41 -178 143 -287t252 -108q111 0 175 51t65 146q0 95 -69 151q-68 56 -262 112q-194 58 -299 168t-105 305t145 321t397 126t420 -123v-311h-92q-78 338 -350 338q-96 0 -154 -51
t-57 -143t65 -146q64 -52 260 -112t308 -164t112 -318q0 -213 -156 -331q-157 -117 -403 -117z" />
    <glyph glyph-name="sacute" unicode="&#x15b;" horiz-adv-x="976" 
d="M448 -20q-228 0 -372 104l-13 276h95q32 -131 112 -213t195 -81q76 0 125 36t49 106t-50 106t-169 75q-184 57 -270 142t-86 244t116 254t314 95t344 -94v-246h-88q-20 109 -88 182t-170 72q-66 0 -107 -34t-41 -94t44 -94t153 -73q201 -67 289 -149t90 -250
q0 -168 -122 -266t-350 -98zM860 1567v-19l-362 -317h-107l103 336h366z" />
    <glyph glyph-name="Scircumflex" unicode="&#x15c;" horiz-adv-x="1185" 
d="M737 1835l246 -313h-117l-256 143l-256 -143h-116l245 313h254zM563 -20q-147 0 -276 38t-205 99l-23 356h109q41 -178 143 -287t252 -108q111 0 175 51t65 146q0 95 -69 151q-68 56 -262 112q-194 58 -299 168t-105 305t145 321t397 126t420 -123v-311h-92
q-78 338 -350 338q-96 0 -154 -51t-57 -143t65 -146q64 -52 260 -112t308 -164t112 -318q0 -213 -156 -331q-157 -117 -403 -117z" />
    <glyph glyph-name="scircumflex" unicode="&#x15d;" horiz-adv-x="976" 
d="M448 -20q-228 0 -372 104l-13 276h95q32 -131 112 -213t195 -81q76 0 125 36t49 106t-50 106t-169 75q-184 57 -270 142t-86 244t116 254t314 95t344 -94v-246h-88q-20 109 -88 182t-170 72q-66 0 -107 -34t-41 -94t44 -94t153 -73q201 -67 289 -149t90 -250
q0 -168 -122 -266t-350 -98zM633 1569l237 -348h-118l-246 174l-246 -174h-119l238 348h254z" />
    <glyph glyph-name="Scedilla" unicode="&#x15e;" horiz-adv-x="1185" 
d="M561 -311q0 60 -75 72q-32 5 -87 8l86 215q-262 18 -403 133l-23 356h109q41 -178 143 -287t252 -108q111 0 175 51t65 146q0 95 -69 151q-68 56 -262 112q-194 58 -299 168t-105 305t145 321t397 126t420 -123v-311h-92q-78 338 -350 338q-96 0 -154 -51t-57 -143
t65 -146q64 -52 260 -112t308 -164t112 -318q0 -213 -156 -331t-403 -117h-2l-24 -62q98 0 156 -45t59 -123q0 -109 -112 -166t-278 -57l-16 72q104 0 160 27q55 28 55 63z" />
    <glyph glyph-name="scedilla" unicode="&#x15f;" horiz-adv-x="976" 
d="M639 208q0 70 -50 106t-169 75q-184 57 -270 142t-86 244t116 254t314 95t344 -94v-246h-88q-20 109 -88 182t-170 72q-66 0 -107 -34t-41 -94t44 -94t153 -73q201 -67 289 -149t90 -250q0 -168 -122 -266t-333 -98h-8l-25 -62q98 0 156 -45t59 -123q1 -109 -111 -166
t-278 -57l-16 72q104 -1 159 27t55 63q1 60 -74 72q-32 5 -87 8l86 215q-195 18 -305 100l-13 276h95q32 -131 112 -213t195 -81q76 0 125 36t49 106z" />
    <glyph glyph-name="Scaron" unicode="&#x160;" horiz-adv-x="1185" 
d="M981 1837l-246 -313h-254l-245 313h116l256 -143l256 143h117zM563 -20q-147 0 -276 38t-205 99l-23 356h109q41 -178 143 -287t252 -108q111 0 175 51t65 146q0 95 -69 151q-68 56 -262 112q-194 58 -299 168t-105 305t145 321t397 126t420 -123v-311h-92
q-78 338 -350 338q-96 0 -154 -51t-57 -143t65 -146q64 -52 260 -112t308 -164t112 -318q0 -213 -156 -331q-157 -117 -403 -117z" />
    <glyph glyph-name="scaron" unicode="&#x161;" horiz-adv-x="976" 
d="M448 -20q-228 0 -372 104l-13 276h95q32 -131 112 -213t195 -81q76 0 125 36t49 106t-50 106t-169 75q-184 57 -270 142t-86 244t116 254t314 95t344 -94v-246h-88q-20 109 -88 182t-170 72q-66 0 -107 -34t-41 -94t44 -94t153 -73q201 -67 289 -149t90 -250
q0 -168 -122 -266t-350 -98zM870 1577l-237 -348h-254l-238 348h119l246 -174l246 174h118z" />
    <glyph glyph-name="Tcedilla" unicode="&#x162;" horiz-adv-x="1449" 
d="M993 1354h-67v-1139q0 -76 30 -96t138 -33v-86h-738v86q106 12 138 32t30 97v1139h-67q-95 0 -157 -83t-185 -347h-84l30 514h1328l30 -514h-84q-123 264 -184 347t-158 83zM547 -199q0 57 44 93t127 34q83 0 134 -52t51 -148t-85 -164q-85 -66 -257 -66v74q93 0 143 32
t52 77h-111q-98 25 -98 120z" />
    <glyph glyph-name="tcedilla" unicode="&#x163;" horiz-adv-x="800" 
d="M506 1382v-278h239v-111h-239v-678q0 -141 117 -141q70 0 147 51l31 -45q-123 -201 -357 -200q-150 0 -234 80t-85 255v678h-117v68q244 92 418 321h80zM238 -199q0 57 44 93t126 34q82 0 134 -52t52 -148t-85 -164q-85 -66 -257 -66v74q92 0 142 32t52 77h-110
q-98 25 -98 120z" />
    <glyph glyph-name="Tcaron" unicode="&#x164;" horiz-adv-x="1449" 
d="M993 1354h-67v-1139q0 -76 30 -96t138 -33v-86h-738v86q106 12 138 32t30 97v1139h-67q-95 0 -157 -83t-185 -347h-84l30 514h1328l30 -514h-84q-123 264 -184 347t-158 83zM1096 1837l-246 -313h-254l-246 313h117l256 -143l256 143h117z" />
    <glyph glyph-name="tcaron" unicode="&#x165;" horiz-adv-x="800" 
d="M506 1382v-278h239v-111h-239v-678q0 -141 117 -141q70 0 147 51l31 -45q-123 -201 -357 -200q-150 0 -234 80t-85 255v678h-117v68q244 92 418 321h80zM903 1604v-23l-237 -397h-84l26 420h295z" />
    <glyph glyph-name="Tbar" unicode="&#x166;" horiz-adv-x="1449" 
d="M993 1354h-67v-561h215v-127h-215v-451q0 -76 30 -96t138 -33v-86h-738v86q106 12 138 32t30 97v451h-215v127h215v561h-67q-95 0 -157 -83t-185 -347h-84l30 514h1328l30 -514h-84q-123 264 -184 347t-158 83z" />
    <glyph glyph-name="tbar" unicode="&#x167;" horiz-adv-x="823" 
d="M516 1382v-278h240v-111h-240v-213h242v-110h-242v-355q0 -141 117 -141q72 0 147 51l31 -45q-123 -201 -356 -200q-150 0 -235 80t-85 255v355h-117v110h117v213h-117v68q244 92 418 321h80z" />
    <glyph glyph-name="Utilde" unicode="&#x168;" horiz-adv-x="1542" 
d="M578 1214v-679q0 -383 313 -383q154 0 246 94t92 299v667q0 80 -34 106t-157 34v86h475v-86q-99 -10 -123 -34t-24 -106v-706q0 -258 -160 -392t-411 -134q-299 0 -459 133t-160 393v708q0 82 -23 105q-24 23 -124 33v86h698v-86q-101 -10 -125 -33t-24 -105zM997 1522
q-73 0 -159 61t-127 62q-70 0 -136 -115l-73 41q57 143 110 210t127 67t160 -62q86 -61 127 -62q68 0 135 113l74 -39q-57 -144 -111 -210t-127 -66z" />
    <glyph glyph-name="utilde" unicode="&#x169;" horiz-adv-x="1325" 
d="M799 1233q-74 0 -159 61t-124 62q-68 0 -133 -115l-74 41q55 143 109 210t127 67q73 1 157 -61t125 -62q66 0 134 112l73 -39q-57 -145 -109 -211t-126 -65zM1180 236q0 -57 12 -79t57 -24l49 -2v-80l-432 -71h-71l6 198q-156 -199 -365 -198q-141 0 -225 87t-84 257v501
q0 98 -80 119l-31 10v74l433 94h67l-12 -260v-502q0 -164 139 -163q66 0 158 41v587q0 98 -78 119l-31 10v74l430 94h68l-10 -260v-626z" />
    <glyph glyph-name="Umacron" unicode="&#x16a;" horiz-adv-x="1542" 
d="M578 1214v-679q0 -383 313 -383q154 0 246 94t92 299v667q0 80 -34 106t-157 34v86h475v-86q-99 -10 -123 -34t-24 -106v-706q0 -258 -160 -392t-411 -134q-299 0 -459 133t-160 393v708q0 82 -23 105q-24 23 -124 33v86h698v-86q-101 -10 -125 -33t-24 -105zM553 1538
v176h598v-176h-598z" />
    <glyph glyph-name="umacron" unicode="&#x16b;" horiz-adv-x="1325" 
d="M369 1280v176h585v-176h-585zM1180 236q0 -57 12 -79t57 -24l49 -2v-80l-432 -71h-71l6 198q-156 -199 -365 -198q-141 0 -225 87t-84 257v501q0 98 -80 119l-31 10v74l433 94h67l-12 -260v-502q0 -164 139 -163q66 0 158 41v587q0 98 -78 119l-31 10v74l430 94h68
l-10 -260v-626z" />
    <glyph glyph-name="Ubreve" unicode="&#x16c;" horiz-adv-x="1542" 
d="M578 1214v-679q0 -383 313 -383q154 0 246 94t92 299v667q0 80 -34 106t-157 34v86h475v-86q-99 -10 -123 -34t-24 -106v-706q0 -258 -160 -392t-411 -134q-299 0 -459 133t-160 393v708q0 82 -23 105q-24 23 -124 33v86h698v-86q-101 -10 -125 -33t-24 -105zM1157 1835
q0 -151 -80 -235t-224 -84t-224 84t-80 235h94q25 -133 210 -133t208 133h96z" />
    <glyph glyph-name="ubreve" unicode="&#x16d;" horiz-adv-x="1325" 
d="M662 1225q-143 0 -221 89q-77 89 -76 255h94q17 -154 201 -154t202 154h94q0 -166 -76 -255t-218 -89zM1180 236q0 -57 12 -79t57 -24l49 -2v-80l-432 -71h-71l6 198q-156 -199 -365 -198q-141 0 -225 87t-84 257v501q0 98 -80 119l-31 10v74l433 94h67l-12 -260v-502
q0 -164 139 -163q66 0 158 41v587q0 98 -78 119l-31 10v74l430 94h68l-10 -260v-626z" />
    <glyph glyph-name="Uring" unicode="&#x16e;" horiz-adv-x="1542" 
d="M639 1695q0 87 60 147q61 60 153 60t152 -60t59 -147q0 -87 -59 -147q-60 -60 -152 -59q-92 0 -153 59q-60 60 -60 147zM852 1800q-46 0 -74 -30t-28 -75q0 -46 28 -75t74 -29q47 0 75 29q27 29 27 75q0 45 -28 75t-74 30zM578 1214v-679q0 -383 313 -383q154 0 246 94
t92 299v667q0 80 -34 106t-157 34v86h475v-86q-99 -10 -123 -34t-24 -106v-706q0 -258 -160 -392t-411 -134q-299 0 -459 133t-160 393v708q0 82 -23 105q-24 23 -124 33v86h698v-86q-101 -10 -125 -33t-24 -105z" />
    <glyph glyph-name="uring" unicode="&#x16f;" horiz-adv-x="1325" 
d="M1180 236q0 -57 12 -79t57 -24l49 -2v-80l-432 -71h-71l6 198q-156 -199 -365 -198q-141 0 -225 87t-84 257v501q0 98 -80 119l-31 10v74l433 94h67l-12 -260v-502q0 -164 139 -163q66 0 158 41v587q0 98 -78 119l-31 10v74l430 94h68l-10 -260v-626zM449 1390
q0 87 60 147q61 60 153 60t151 -60t59 -147q0 -88 -59 -148t-151 -60t-153 60q-60 61 -60 148zM662 1284q46 0 74 30t28 76t-28 76t-74 29q-46 1 -75 -29q-28 -30 -28 -76t28 -76t75 -30z" />
    <glyph glyph-name="Uhungarumlaut" unicode="&#x170;" horiz-adv-x="1542" 
d="M1389 1827v-19l-302 -286h-110l104 305h308zM1020 1827v-19l-301 -286h-109l103 305h307zM578 1214v-679q0 -383 313 -383q154 0 246 94t92 299v667q0 80 -34 106t-157 34v86h475v-86q-99 -10 -123 -34t-24 -106v-706q0 -258 -160 -392t-411 -134q-299 0 -459 133
t-160 393v708q0 82 -23 105q-24 23 -124 33v86h698v-86q-101 -10 -125 -33t-24 -105z" />
    <glyph glyph-name="uhungarumlaut" unicode="&#x171;" horiz-adv-x="1325" 
d="M1176 1567v-19l-304 -317h-108l104 336h308zM807 1567v-19l-301 -317h-109l103 336h307zM1180 236q0 -57 12 -79t57 -24l49 -2v-80l-432 -71h-71l6 198q-156 -199 -365 -198q-141 0 -225 87t-84 257v501q0 98 -80 119l-31 10v74l433 94h67l-12 -260v-502q0 -164 139 -163
q66 0 158 41v587q0 98 -78 119l-31 10v74l430 94h68l-10 -260v-626z" />
    <glyph glyph-name="Uogonek" unicode="&#x172;" horiz-adv-x="1542" 
d="M176 506v708q0 82 -23 105q-24 23 -124 33v86h698v-86q-101 -10 -125 -33t-24 -105v-679q0 -383 313 -383q154 0 246 94t92 299v667q0 80 -34 106t-157 34v86h475v-86q-99 -10 -123 -34t-24 -106v-706q0 -195 -92 -320t-252 -174q-141 -84 -141 -207q1 -45 25 -73t80 -29
q56 0 118 49l33 -41q-119 -152 -277 -151q-82 0 -137 46t-55 124q0 150 184 252l-57 -2q-299 0 -459 133t-160 393z" />
    <glyph glyph-name="uogonek" unicode="&#x173;" horiz-adv-x="1325" 
d="M1180 236q0 -57 12 -79t57 -24l49 -2v-80q-289 -43 -386 -92t-97 -158q0 -43 25 -71t80 -27q55 0 118 49l33 -41q-119 -152 -274 -151q-84 0 -140 47q-55 47 -55 131q0 145 193 242l6 198q-156 -199 -365 -198q-141 0 -225 87t-84 257v501q0 98 -80 119l-31 10v74l433 94
h67l-12 -260v-502q0 -164 139 -163q66 0 158 41v587q0 98 -78 119l-31 10v74l430 94h68l-10 -260v-626z" />
    <glyph glyph-name="Wcircumflex" unicode="&#x174;" horiz-adv-x="2064" 
d="M1239 1835l246 -313h-117l-256 143l-256 -143h-117l246 313h254zM10 1438h672v-86q-111 -8 -111 -80q0 -29 29 -111l240 -651l164 446l-109 320q-20 63 -104 76v86h669v-86q-80 -2 -112 -22t-31 -59q0 -38 26 -132l199 -619l213 625q27 80 27 112q0 88 -142 95v86h414
v-86q-98 -14 -119 -76l-454 -1284h-148l-274 801l-295 -801h-146l-489 1284q-25 61 -119 76v86z" />
    <glyph glyph-name="wcircumflex" unicode="&#x175;" horiz-adv-x="1835" 
d="M1587 960q0 30 -26 42q-27 13 -91 22v80h355v-80q-53 -16 -71 -32t-34 -50l-403 -950h-123l-242 633l-286 -633h-121l-430 950q-17 35 -35 50t-70 32v80h615v-80q-96 -14 -97 -63q0 -23 17 -66l194 -477l154 342l-70 182q-23 61 -94 82v80h606v-80q-71 -8 -99 -22
t-28 -42q0 -29 13 -65l170 -457l182 457q14 35 14 65zM1100 1569l237 -348h-118l-246 174l-246 -174h-119l238 348h254z" />
    <glyph glyph-name="Ycircumflex" unicode="&#x176;" horiz-adv-x="1447" 
d="M942 1835l246 -313h-117l-256 143l-256 -143h-117l246 313h254zM936 215q0 -76 31 -96t139 -33v-86h-729v86q109 12 139 32t29 97v313l-416 748q-23 41 -46 55q-24 14 -73 21v86h707v-86q-82 -2 -111 -18q-65 -37 19 -187l262 -451l229 447q47 98 47 135t-34 53t-109 21
v86h418v-86q-86 -12 -119 -76l-383 -737v-324z" />
    <glyph glyph-name="ycircumflex" unicode="&#x177;" horiz-adv-x="1226" 
d="M825 1569l238 -348h-119l-246 174l-245 -174h-119l237 348h254zM979 960q0 24 -27 39q-27 14 -108 25v80h373v-80q-51 -16 -71 -32t-34 -50l-467 -1120q-59 -143 -126 -209t-181 -66t-160 86v146q106 -21 176 -21q144 -1 195 119l33 72l-467 993q-17 35 -35 50t-70 32v80
h656v-80q-82 -10 -109 -24t-27 -38t15 -67l215 -522l203 520q16 43 16 67z" />
    <glyph glyph-name="Ydieresis" unicode="&#x178;" horiz-adv-x="1447" 
d="M854 1686q0 70 51 120t122 49q71 0 122 -50q51 -51 51 -121t-51 -119t-122 -49t-122 50t-51 120zM432 1686q0 70 51 120t122 49q71 0 122 -50q51 -49 51 -119t-51 -120t-123 -50t-122 50t-50 120zM936 215q0 -76 31 -96t139 -33v-86h-729v86q109 12 139 32t29 97v313
l-416 748q-23 41 -46 55q-24 14 -73 21v86h707v-86q-82 -2 -111 -18q-65 -37 19 -187l262 -451l229 447q47 98 47 135t-34 53t-109 21v86h418v-86q-86 -12 -119 -76l-383 -737v-324z" />
    <glyph glyph-name="Zacute" unicode="&#x179;" horiz-adv-x="1294" 
d="M1022 1827v-19l-354 -286h-115l100 305h369zM756 96q127 0 205 72t210 305h89l-74 -473h-1153v72l719 1269h-244q-47 0 -82 -5q-35 -4 -67 -28t-49 -39t-47 -71t-44 -86q-14 -31 -55 -119h-84l18 445h1121v-72l-721 -1270h258z" />
    <glyph glyph-name="zacute" unicode="&#x17a;" horiz-adv-x="1099" 
d="M37 0v68l581 942h-188q-78 0 -137 -71t-135 -241h-80l28 471h76l41 -67h824v-68l-570 -940h209q98 0 161 68q62 68 146 246h76l-45 -408h-987zM950 1567v-19l-362 -317h-107l103 336h366z" />
    <glyph glyph-name="Zdotaccent" unicode="&#x17b;" horiz-adv-x="1294" 
d="M756 96q127 0 205 72t210 305h89l-74 -473h-1153v72l719 1269h-244q-47 0 -82 -5q-35 -4 -67 -28t-49 -39t-47 -71t-44 -86q-14 -31 -55 -119h-84l18 445h1121v-72l-721 -1270h258zM666 1518q-90 0 -146 55q-55 55 -55 134t55 134q56 55 146 55t145 -55t55 -134t-55 -134
t-145 -55z" />
    <glyph glyph-name="zdotaccent" unicode="&#x17c;" horiz-adv-x="1099" 
d="M598 1223q-90 0 -145 54t-56 134t55 135q56 56 146 56t145 -56t55 -135q0 -80 -54 -134q-56 -54 -146 -54zM37 0v68l581 942h-188q-78 0 -137 -71t-135 -241h-80l28 471h76l41 -67h824v-68l-570 -940h209q98 0 161 68q62 68 146 246h76l-45 -408h-987z" />
    <glyph glyph-name="Zcaron" unicode="&#x17d;" horiz-adv-x="1294" 
d="M756 96q127 0 205 72t210 305h89l-74 -473h-1153v72l719 1269h-244q-47 0 -82 -5q-35 -4 -67 -28t-49 -39t-47 -71t-44 -86q-14 -31 -55 -119h-84l18 445h1121v-72l-721 -1270h258zM1038 1837l-245 -313h-254l-246 313h117l256 -143l256 143h116z" />
    <glyph glyph-name="zcaron" unicode="&#x17e;" horiz-adv-x="1099" 
d="M37 0v68l581 942h-188q-78 0 -137 -71t-135 -241h-80l28 471h76l41 -67h824v-68l-570 -940h209q98 0 161 68q62 68 146 246h76l-45 -408h-987zM963 1577l-238 -348h-254l-238 348h119l246 -174l246 174h119z" />
    <glyph glyph-name="florin" unicode="&#x192;" horiz-adv-x="1114" 
d="M834 1458q120 0 198 -44t78 -141t-104 -132h-107q0 188 -39 229q-18 20 -49 21q-74 0 -88 -121l-55 -482h233l-8 -86h-236l-47 -423q-37 -319 -158 -478q-122 -158 -350 -157q-120 0 -198 44t-78 141t106 130h107q0 -186 39 -227q18 -20 49 -21q74 0 86 121l98 870h-180
l8 86h183l4 33q37 319 158 478q122 159 350 159z" />
    <glyph glyph-name="Aringacute" unicode="&#x1fa;" horiz-adv-x="1554" 
d="M602 1671q0 -43 31 -71t82 -27q51 0 83 28q32 29 32 71t-32 70t-83 28t-82 -28t-31 -71zM1096 2144v-18l-342 -228h-113l86 246h369zM623 1122l-213 -567h436zM494 1671q0 80 62 133q62 54 158 54t159 -54t63 -133q0 -80 -62 -133t-159 -53q-96 0 -159 53q-62 53 -62 133
zM821 86q160 8 160 83q0 38 -16 87l-74 188h-522l-70 -186q-16 -49 -16 -87q0 -77 168 -85v-86h-441v86q94 14 119 76l426 1110l-70 170h428l510 -1280q14 -37 43 -53t78 -23v-86h-723v86z" />
    <glyph glyph-name="aringacute" unicode="&#x1fb;" horiz-adv-x="1134" 
d="M1001 768v-543q0 -92 56 -92q41 0 69 12l15 -55q-111 -111 -271 -110q-88 0 -150 45t-85 127q-115 -166 -309 -166q-131 0 -212 72t-81 199q0 126 71 194q72 68 199 112l326 115v209q0 158 -107 157q-111 0 -110 -161q0 -55 18 -144l-227 -30q-100 35 -101 143
q0 133 122 203q122 69 333 69t327 -82t117 -274zM539 182q39 0 90 29v379l-113 -43q-59 -23 -89 -62t-30 -120q1 -183 142 -183zM449 1348q-1 -43 31 -70t83 -27t83 27t32 70q0 42 -32 70t-83 28t-83 -28t-31 -70zM940 1827v-19l-342 -227h-113l86 246h369zM342 1348
q0 80 62 133t158 53t160 -53q62 -53 62 -133t-62 -134t-158 -53q-96 0 -160 53q-62 54 -62 134z" />
    <glyph glyph-name="AEacute" unicode="&#x1fc;" horiz-adv-x="2129" 
d="M1667 1827v-19l-354 -286h-115l100 305h369zM991 618v691l-432 -691h432zM641 1438h1378l11 -396h-78q-86 180 -151 240t-197 59h-211v-542h198q68 0 96 40t42 148h88v-491h-88q-14 110 -42 150t-96 40h-198v-453q0 -81 39 -109t127 -28h71q130 0 192 64t183 286h92
l-65 -446h-1188v86q100 10 124 33t23 104v285h-502l-155 -250q-31 -51 -31 -84q0 -82 182 -88v-86h-475v86q80 13 119 76l705 1124q-45 55 -193 66v86z" />
    <glyph glyph-name="aeacute" unicode="&#x1fd;" horiz-adv-x="1626" 
d="M559 182q55 0 119 37q-72 125 -72 307q0 37 2 54l-71 -27q-74 -27 -107 -67t-33 -121q0 -183 162 -183zM1114 1038q-147 0 -164 -321h312q-1 321 -148 321zM1202 1567v-19l-362 -317h-107l103 336h366zM1164 1124q192 0 308 -124t115 -326v-49h-639q-2 -178 82 -287
t232 -109q182 0 292 150l39 -25q-43 -174 -163 -274t-308 -100q-268 0 -409 186q-80 -94 -161 -137t-218 -43t-219 72t-82 198q0 127 71 195q72 68 199 112l315 111q2 6 25 88q4 135 -30 209t-99 73q-102 0 -102 -161q0 -55 18 -144l-227 -30q-100 35 -101 143
q0 133 122 203q122 69 321 69t286 -100q141 100 333 100z" />
    <glyph glyph-name="Oslashacute" unicode="&#x1fe;" horiz-adv-x="1529" 
d="M1139 1827v-19l-355 -286h-114l100 305h369zM774 78q98 0 163 94q114 165 114 522q0 147 -19 271l-497 -666q77 -221 239 -221zM477 735q0 -172 27 -311l502 672q-74 264 -252 264q-98 0 -163 -94t-89 -226t-25 -305zM745 -20q-219 0 -376 96l-148 -197l-80 62l146 194
q-233 197 -233 550t203 563q204 210 525 210q240 0 408 -117l137 185l80 -60l-141 -188q209 -198 209 -538t-204 -550t-526 -210z" />
    <glyph glyph-name="oslashacute" unicode="&#x1ff;" horiz-adv-x="1230" 
d="M969 1567v-19l-363 -317h-106l102 336h367zM625 66q163 0 161 379q0 169 -8 253l-307 -428q43 -204 154 -204zM606 1038q-162 0 -162 -380q0 -170 9 -261l307 430q-43 211 -154 211zM614 -20q-170 0 -303 69l-118 -168l-72 51l117 164q-195 152 -195 422t161 438t412 168
q168 0 306 -71l112 157l74 -51l-113 -155q193 -154 193 -422t-161 -434q-161 -168 -413 -168z" />
    <glyph glyph-name="Scommaaccent" unicode="&#x218;" horiz-adv-x="1185" 
d="M563 -20q-147 0 -276 38t-205 99l-23 356h109q41 -178 143 -287t252 -108q111 0 175 51t65 146q0 95 -69 151q-68 56 -262 112q-194 58 -299 168t-105 305t145 321t397 126t420 -123v-311h-92q-78 338 -350 338q-96 0 -154 -51t-57 -143t65 -146q64 -52 260 -112
t308 -164t112 -318q0 -213 -156 -331q-157 -117 -403 -117zM760 -272q0 -96 -85 -164q-85 -66 -257 -66v74q92 0 142 32t52 77h-110q-98 25 -99 120q0 57 44 93t127 34q82 0 134 -52t52 -148z" />
    <glyph glyph-name="scommaaccent" unicode="&#x219;" horiz-adv-x="976" 
d="M448 -20q-228 0 -372 104l-13 276h95q32 -131 112 -213t195 -81q76 0 125 36t49 106t-50 106t-169 75q-184 57 -270 142t-86 244t116 254t314 95t344 -94v-246h-88q-20 109 -88 182t-170 72q-66 0 -107 -34t-41 -94t44 -94t153 -73q201 -67 289 -149t90 -250
q0 -168 -122 -266t-350 -98zM324 -502v74q92 0 142 32t52 77h-110q-98 25 -99 120q0 57 44 93t127 34q83 0 134 -52q52 -52 52 -148t-85 -164q-85 -66 -257 -66z" />
    <glyph glyph-name="uni0237" unicode="&#x237;" horiz-adv-x="618" 
d="M506 1124v-907q0 -164 -34 -256t-112 -169t-154 -126t-196 -102l-33 41l84 131q45 72 57 159q11 87 11 234v750l-115 69v58l428 118h64z" />
    <glyph glyph-name="circumflex" unicode="&#x2c6;" 
d="M639 1569l238 -348h-119l-246 174l-246 -174h-119l238 348h254z" />
    <glyph glyph-name="caron" unicode="&#x2c7;" 
d="M877 1577l-238 -348h-254l-238 348h119l246 -174l246 174h119z" />
    <glyph glyph-name="breve" unicode="&#x2d8;" 
d="M526 1225q-143 0 -220 89t-77 255h95q18 -154 201 -154t202 154h94q0 -166 -76 -255t-219 -89z" />
    <glyph glyph-name="dotaccent" unicode="&#x2d9;" 
d="M514 1223q-90 0 -145 54t-56 134t55 135q56 56 146 56t145 -56t55 -135q0 -80 -54 -134q-56 -54 -146 -54z" />
    <glyph glyph-name="ring" unicode="&#x2da;" 
d="M530 1597q92 0 152 -60t59 -147q0 -88 -59 -148q-60 -60 -152 -60t-152 60t-61 148q1 87 61 147t152 60zM530 1495q-46 1 -74 -29t-28 -76t28 -76t74 -30t75 30q28 30 28 76t-28 76t-75 29z" />
    <glyph glyph-name="ogonek" unicode="&#x2db;" 
d="M496 -195q0 -45 24 -73t80 -29q56 0 119 49l33 -41q-119 -152 -277 -151q-82 0 -137 46t-55 127t61 151t137 108q76 39 189 80l16 -33q-190 -94 -190 -234z" />
    <glyph glyph-name="tilde" unicode="&#x2dc;" 
d="M641 1233q-74 0 -159 61t-124 62q-68 0 -133 -115l-73 41q55 143 108 210t127 67q74 1 158 -61t125 -62q66 0 133 112l74 -39q-57 -145 -109 -211t-127 -65z" />
    <glyph glyph-name="hungarumlaut" unicode="&#x2dd;" 
d="M924 1567v-19l-303 -317h-109l104 336h308zM555 1567v-19l-301 -317h-109l103 336h307z" />
    <glyph glyph-name="pi" unicode="&#x3c0;" horiz-adv-x="1292" 
d="M502 877q0 -307 -18 -489t-64 -388h-357v82q111 172 176 353t64 442h-246v241h1172l-35 -241h-164v-623q0 -113 92 -113q45 0 88 13l17 -56q-123 -119 -281 -118q-242 0 -241 251q0 57 8 125l63 521h-274z" />
    <glyph glyph-name="Wgrave" unicode="&#x1e80;" horiz-adv-x="2064" 
d="M748 1827h368l101 -305h-113l-356 286v19zM10 1438h672v-86q-111 -8 -111 -80q0 -29 29 -111l240 -651l164 446l-109 320q-20 63 -104 76v86h669v-86q-80 -2 -112 -22t-31 -59q0 -38 26 -132l199 -619l213 625q27 80 27 112q0 88 -142 95v86h414v-86q-98 -14 -119 -76
l-454 -1284h-148l-274 801l-295 -801h-146l-489 1284q-25 61 -119 76v86z" />
    <glyph glyph-name="wgrave" unicode="&#x1e81;" horiz-adv-x="1835" 
d="M614 1567h367l102 -336h-104l-365 317v19zM1587 960q0 30 -26 42q-27 13 -91 22v80h355v-80q-53 -16 -71 -32t-34 -50l-403 -950h-123l-242 633l-286 -633h-121l-430 950q-17 35 -35 50t-70 32v80h615v-80q-96 -14 -97 -63q0 -23 17 -66l194 -477l154 342l-70 182
q-23 61 -94 82v80h606v-80q-71 -8 -99 -22t-28 -42q0 -29 13 -65l170 -457l182 457q14 35 14 65z" />
    <glyph glyph-name="Wacute" unicode="&#x1e82;" horiz-adv-x="2064" 
d="M1468 1827v-19l-354 -286h-115l101 305h368zM10 1438h672v-86q-111 -8 -111 -80q0 -29 29 -111l240 -651l164 446l-109 320q-20 63 -104 76v86h669v-86q-80 -2 -112 -22t-31 -59q0 -38 26 -132l199 -619l213 625q27 80 27 112q0 88 -142 95v86h414v-86q-98 -14 -119 -76
l-454 -1284h-148l-274 801l-295 -801h-146l-489 1284q-25 61 -119 76v86z" />
    <glyph glyph-name="wacute" unicode="&#x1e83;" horiz-adv-x="1835" 
d="M1587 960q0 30 -26 42q-27 13 -91 22v80h355v-80q-53 -16 -71 -32t-34 -50l-403 -950h-123l-242 633l-286 -633h-121l-430 950q-17 35 -35 50t-70 32v80h615v-80q-96 -14 -97 -63q0 -23 17 -66l194 -477l154 342l-70 182q-23 61 -94 82v80h606v-80q-71 -8 -99 -22
t-28 -42q0 -29 13 -65l170 -457l182 457q14 35 14 65zM1325 1567v-19l-362 -317h-107l102 336h367z" />
    <glyph glyph-name="Wdieresis" unicode="&#x1e84;" horiz-adv-x="2064" 
d="M1151 1686q0 70 51 120t122 49q71 0 122 -50q51 -51 51 -121t-51 -119t-122 -49t-122 50t-51 120zM729 1686q0 70 51 120t122 49q71 0 122 -50q51 -49 51 -119t-51 -120t-123 -50t-122 50t-50 120zM10 1438h672v-86q-111 -8 -111 -80q0 -29 29 -111l240 -651l164 446
l-109 320q-20 63 -104 76v86h669v-86q-80 -2 -112 -22t-31 -59q0 -38 26 -132l199 -619l213 625q27 80 27 112q0 88 -142 95v86h414v-86q-98 -14 -119 -76l-454 -1284h-148l-274 801l-295 -801h-146l-489 1284q-25 61 -119 76v86z" />
    <glyph glyph-name="wdieresis" unicode="&#x1e85;" horiz-adv-x="1835" 
d="M1587 960q0 30 -26 42q-27 13 -91 22v80h355v-80q-53 -16 -71 -32t-34 -50l-403 -950h-123l-242 633l-286 -633h-121l-430 950q-17 35 -35 50t-70 32v80h615v-80q-96 -14 -97 -63q0 -23 17 -66l194 -477l154 342l-70 182q-23 61 -94 82v80h606v-80q-71 -8 -99 -22
t-28 -42q0 -29 13 -65l170 -457l182 457q14 35 14 65zM1008 1407q0 70 51 120t123 50t122 -49t50 -120t-51 -121t-122 -50t-122 50t-51 120zM590 1408q0 71 50 120t122 49t122 -50t50 -120t-51 -120t-122 -50t-121 50t-50 121z" />
    <glyph glyph-name="Ygrave" unicode="&#x1ef2;" horiz-adv-x="1447" 
d="M453 1827h368l101 -305h-113l-356 286v19zM936 215q0 -76 31 -96t139 -33v-86h-729v86q109 12 139 32t29 97v313l-416 748q-23 41 -46 55q-24 14 -73 21v86h707v-86q-82 -2 -111 -18q-65 -37 19 -187l262 -451l229 447q47 98 47 135t-34 53t-109 21v86h418v-86
q-86 -12 -119 -76l-383 -737v-324z" />
    <glyph glyph-name="ygrave" unicode="&#x1ef3;" horiz-adv-x="1226" 
d="M342 1567h367l102 -336h-104l-365 317v19zM979 960q0 24 -27 39q-27 14 -108 25v80h373v-80q-51 -16 -71 -32t-34 -50l-467 -1120q-59 -143 -126 -209t-181 -66t-160 86v146q106 -21 176 -21q144 -1 195 119l33 72l-467 993q-17 35 -35 50t-70 32v80h656v-80
q-82 -10 -109 -24t-27 -38t15 -67l215 -522l203 520q16 43 16 67z" />
    <glyph glyph-name="endash" unicode="&#x2013;" horiz-adv-x="1105" 
d="M1044 561h-983v123h983v-123z" />
    <glyph glyph-name="emdash" unicode="&#x2014;" horiz-adv-x="1966" 
d="M1905 684v-123h-1844v123h1844z" />
    <glyph glyph-name="quoteleft" unicode="&#x2018;" horiz-adv-x="573" 
d="M498 1118q0 -84 -56 -134t-149 -50q-92 0 -152 70q-59 70 -59 182q0 168 107 262q108 94 309 100v-84q-110 -14 -168 -53t-66 -115h84q150 -35 150 -178z" />
    <glyph glyph-name="quoteright" unicode="&#x2019;" horiz-adv-x="573" 
d="M283 1538q91 0 151 -70t60 -184q0 -166 -108 -260t-308 -100v82q111 16 168 54t67 116h-84q-150 35 -149 178q0 84 56 134t147 50z" />
    <glyph glyph-name="quotesinglbase" unicode="&#x201a;" horiz-adv-x="573" 
d="M283 362q91 0 151 -69q59 -70 60 -182q0 -169 -108 -263t-308 -100v84q111 14 168 52t67 116h-84q-150 35 -149 178q0 84 56 134t147 50z" />
    <glyph glyph-name="quotedblleft" unicode="&#x201c;" horiz-adv-x="1044" 
d="M498 1118q0 -84 -56 -134t-149 -50q-92 0 -152 70q-59 70 -59 182q0 168 107 262q108 94 309 100v-84q-110 -14 -168 -53t-66 -115h84q150 -35 150 -178zM969 1118q-1 -84 -57 -134t-148 -50t-152 70q-59 70 -59 182q0 168 107 262q108 94 309 100v-84q-109 -14 -167 -53
t-67 -115h84q150 -35 150 -178z" />
    <glyph glyph-name="quotedblright" unicode="&#x201d;" horiz-adv-x="1044" 
d="M754 1538q92 0 151 -70t60 -184q0 -166 -108 -260t-308 -100v82q111 16 168 54t67 116h-84q-150 35 -149 178q0 84 56 134q55 50 147 50zM283 1538q91 0 151 -70t60 -184q0 -166 -108 -260t-308 -100v82q111 16 168 54t67 116h-84q-150 35 -149 178q0 84 56 134t147 50z
" />
    <glyph glyph-name="quotedblbase" unicode="&#x201e;" horiz-adv-x="1044" 
d="M754 362q92 0 151 -70t60 -181q0 -169 -108 -263t-308 -100v84q111 14 168 52t67 116h-84q-150 35 -149 178q0 84 56 134q55 50 147 50zM283 362q91 0 151 -69q59 -70 60 -182q0 -169 -108 -263t-308 -100v84q111 14 168 52t67 116h-84q-150 35 -149 178q0 84 56 134
t147 50z" />
    <glyph glyph-name="dagger" unicode="&#x2020;" horiz-adv-x="774" 
d="M410 1186q0 -64 34 -116t80 -79v-18q-43 -61 -80 -255t-43 -413h-28q-6 219 -43 413t-80 255v18q45 27 80 79t35 116q-51 0 -120 -43t-109 -43t-68 28t-27 78q0 49 28 78q27 29 67 29t109 -43t120 -43q0 51 -42 121t-42 110t28 67q29 27 78 27t78 -28t29 -67t-42 -109
t-42 -121q52 0 120 43t108 43t68 -29t28 -78t-28 -78q-28 -28 -68 -28t-108 43t-120 43z" />
    <glyph glyph-name="daggerdbl" unicode="&#x2021;" horiz-adv-x="806" 
d="M383 932q0 43 -31 73t-86 35v19q115 66 115 170q-51 0 -120 -42t-109 -42q-40 -1 -67 27q-28 28 -28 77t28 78t68 29q41 0 109 -42t119 -42q0 51 -42 98t-42 87t29 68q30 27 78 27t77 -28t29 -67q0 -40 -42 -87t-42 -98q51 0 120 42q68 42 108 42t68 -29t28 -78t-28 -77
t-68 -28t-108 43q-68 42 -120 42q0 -104 117 -170v-19q-55 -6 -87 -36t-32 -72q0 -43 32 -73t87 -36v-18q-117 -66 -117 -170q51 0 120 42q68 42 108 42t68 -29t28 -78q0 -48 -28 -76t-68 -28t-108 42t-120 42q0 -51 42 -98t42 -87t-29 -68t-78 -28t-77 28t-29 68
q0 40 42 87t42 98q-51 0 -120 -42t-109 -42t-67 28q-28 28 -28 76t28 78q28 29 68 29q41 0 109 -42t119 -42q0 104 -115 170v18q55 6 86 36t31 73z" />
    <glyph glyph-name="bullet" unicode="&#x2022;" horiz-adv-x="753" 
d="M61 631q-1 131 93 226t224 95t222 -94t92 -226t-93 -228t-222 -95q-129 -1 -223 95t-93 227z" />
    <glyph glyph-name="ellipsis" unicode="&#x2026;" horiz-adv-x="1636" 
d="M1153 190q0 92 61 152q60 60 150 61q90 0 150 -60q60 -61 60 -153t-60 -151t-149 -59t-151 59q-61 59 -61 151zM606 190q0 92 62 152t150 61q88 0 150 -60q62 -61 62 -153t-61 -151t-151 -59t-150 59q-62 59 -62 151zM61 190q-1 92 61 152t151 61q89 0 149 -60
q60 -61 61 -153q0 -92 -60 -151q-59 -59 -149 -59t-152 59t-61 151z" />
    <glyph glyph-name="perthousand" unicode="&#x2030;" horiz-adv-x="2390" 
d="M2320 334q0 -168 -102 -261t-250 -93t-252 93q-102 93 -102 261t102 262t251 94t251 -94t102 -262zM1843 334q0 -284 124 -283q124 0 124 284t-125 283q-123 0 -123 -284zM299 1103q0 -284 125 -284t125 284t-125 283q-125 1 -125 -283zM1196 51q125 0 125 284t-125 283
q-125 0 -125 -284t125 -283zM70 1104q0 168 102 261t250 93t252 -93q102 -93 102 -261t-102 -262t-251 -94t-251 94t-102 262zM305 -20l899 1478h111l-899 -1478h-111zM1550 334q0 -168 -102 -261t-252 -93t-252 93t-102 261t102 262t252 94t252 -94t102 -262z" />
    <glyph glyph-name="guilsinglleft" unicode="&#x2039;" horiz-adv-x="571" 
d="M47 559v12l383 410h94l-184 -416l184 -418h-94z" />
    <glyph glyph-name="guilsinglright" unicode="&#x203a;" horiz-adv-x="571" 
d="M524 571v-12l-383 -412h-94l184 418l-184 416h94z" />
    <glyph glyph-name="fraction" unicode="&#x2044;" horiz-adv-x="579" 
d="M-217 -20l897 1478h111l-900 -1478h-108z" />
    <glyph glyph-name="Euro" unicode="&#x20ac;" horiz-adv-x="1390" 
d="M43 807v90h178q53 258 231 410q178 151 428 151q252 0 408 -127v-336h-102q-61 371 -291 371q-127 0 -200 -132t-91 -337h387l-18 -90h-375v-59q0 -66 2 -97h334l-19 -94h-311q39 -477 303 -477q127 0 200 92t140 305h99l-29 -385q-171 -112 -447 -112t-451 154t-210 423
h-166v94h158v41q0 59 6 115h-164z" />
    <glyph glyph-name="uni2117" unicode="&#x2117;" horiz-adv-x="1597" 
d="M66 719q0 309 207 524t525 215t526 -215t208 -524t-208 -524t-525 -215t-526 215q-207 215 -207 524zM143 719q-1 -279 185 -473t471 -195q285 0 470 195q185 196 185 474t-185 472t-470 194t-471 -194t-185 -473zM780 1057v-365h41q84 0 125 50t41 132t-43 133
q-43 50 -125 50h-39zM885 629h-105v-170q0 -47 24 -61t97 -17v-66h-432v66q57 2 73 15q15 13 15 63v528q0 47 -15 61t-73 15v65h414q157 0 239 -72t82 -182t-80 -178t-239 -67z" />
    <glyph glyph-name="trademark" unicode="&#x2122;" horiz-adv-x="1808" 
d="M905 874q-1 -34 19 -46t75 -15v-55h-256v55q45 4 62 15q16 11 22 46l60 422q0 80 -80 80v62h283q2 -27 14 -66l131 -350l123 348q14 41 14 68h275v-62q-47 0 -65 -19t-19 -61l61 -422q6 -35 24 -46t60 -15v-55h-367v55q55 4 75 16q19 12 20 48l-6 77l-48 289l-168 -487
h-86l-174 487l-41 -287q-8 -48 -8 -82zM532 1384h-22v-503q0 -39 19 -51t71 -17v-55h-375v55q49 4 67 16q17 12 17 52v503h-18q-57 0 -89 -42t-69 -136h-57l14 232h641l12 -232h-55q-57 146 -102 167q-23 11 -54 11z" />
    <glyph glyph-name="Omega" unicode="&#x2126;" horiz-adv-x="1492" 
d="M746 1374q-261 0 -261 -555q0 -381 191 -643v-176h-543l-51 397h65q39 -71 59 -101t53 -54q34 -24 71 -27q37 -4 110 -4h146q-188 61 -328 229q-139 168 -139 379q0 275 171 457q170 182 456 182t457 -182t171 -457q0 -211 -139 -379t-328 -229h144q135 0 180 29t115 157
h65l-51 -397h-545v176q193 260 193 643q-1 555 -262 555z" />
    <glyph glyph-name="uni2153" unicode="&#x2153;" horiz-adv-x="1622" 
d="M1540 221q0 -109 -98 -173t-242 -64t-218 48q-73 48 -73 119t58 97h137q-10 -28 -10 -78t30 -88t82 -39q106 0 107 154q0 168 -168 168h-31l-12 43q88 36 121 70t33 81t-27 76t-80 29q-90 0 -158 -89l-49 37q45 92 127 152q83 60 193 59q110 0 170 -50t61 -132
q1 -83 -61 -131t-154 -64q118 -2 190 -59t72 -166zM307 -20l897 1478h113l-899 -1478h-111zM471 1458v-678q0 -51 25 -64t114 -20v-69h-528v69q100 6 122 18t21 66v445h-143v63l51 10q179 35 273 160h65z" />
    <glyph glyph-name="uni2154" unicode="&#x2154;" horiz-adv-x="1726" 
d="M532 813q47 0 71 16t59 70h43l-23 -278h-621v51l234 219q141 135 141 254q0 63 -34 100t-99 37q-104 0 -182 -90l-43 37q47 95 133 159t204 64q119 0 187 -62t68 -181t-103 -211t-256 -185h221zM1645 221q-1 -109 -99 -173t-242 -64t-218 48q-72 48 -72 119t57 97h137
q-10 -29 -10 -60q0 -145 113 -145q106 0 106 154q0 168 -170 168h-28l-15 43q88 34 121 68t33 82t-26 77t-79 29q-90 0 -157 -89l-52 37q106 211 326 211q106 0 166 -50t61 -132q1 -83 -61 -131t-156 -64q121 -2 193 -59t72 -166zM412 -20l897 1478h110l-897 -1478h-110z
" />
    <glyph glyph-name="uni215B" unicode="&#x215b;" horiz-adv-x="1701" 
d="M1409 622q0 68 -36 105t-93 37t-90 -32t-33 -77q0 -71 90 -106l109 -43q53 48 53 116zM1120 202q0 -73 48 -114t116 -41t106 30t38 76t-23 68t-78 47l-156 62q-51 -55 -51 -128zM1585 650q0 -76 -53 -116t-131 -47q104 -37 161 -102q56 -66 56 -147q0 -127 -96 -193
q-96 -65 -238 -65t-243 53q-99 53 -99 147q0 70 52 112t136 54q-162 74 -161 223q0 121 87 192t226 71t221 -53q82 -52 82 -129zM307 -20l897 1478h113l-899 -1478h-111zM481 1458v-678q0 -51 24 -64t113 -20v-69h-536v69q100 6 122 18t21 66v445h-143v63l51 10
q179 35 273 160h75z" />
    <glyph glyph-name="uni215C" unicode="&#x215c;" horiz-adv-x="1748" 
d="M711 857q-1 -107 -99 -173t-242 -66t-217 48t-73 118t57 101h137q-8 -33 -8 -81t29 -88q29 -38 82 -38t84 39t31 117t-46 121q-46 44 -131 44h-30l-13 45q88 33 125 68t37 82t-30 76t-85 28q-90 0 -157 -88l-49 37q45 91 127 151t192 60t170 -50t62 -132q0 -82 -62 -130
t-153 -63q119 -4 191 -61t71 -165zM354 -20l897 1478h111l-899 -1478h-109zM1454 620q0 70 -35 107t-93 37t-90 -31t-32 -78q0 -73 90 -106l107 -43q53 44 53 114zM1328 47q68 0 107 30q38 30 38 76t-23 68t-78 47l-155 62q-49 -55 -49 -128t46 -114t114 -41zM1630 650
q0 -76 -52 -116t-132 -47q104 -37 162 -102q57 -66 57 -147q0 -127 -96 -193q-95 -65 -239 -65t-243 53q-98 53 -98 147q0 137 189 166q-164 74 -164 223q0 121 87 192t226 71t221 -53q82 -52 82 -129z" />
    <glyph glyph-name="uni215D" unicode="&#x215d;" horiz-adv-x="1736" 
d="M1444 622q0 68 -35 105t-93 37t-90 -31t-32 -78q0 -71 88 -106l109 -43q53 48 53 116zM1157 202q0 -73 47 -114q46 -41 114 -41t106 30t38 76t-22 68q-23 22 -78 47l-156 62q-49 -55 -49 -128zM1620 650q0 -76 -53 -116t-131 -47q104 -37 160 -103t57 -146
q-1 -127 -97 -193q-96 -65 -238 -65t-242 53q-99 53 -99 147q0 70 52 112t138 54q-164 74 -163 223q0 121 87 192t226 71t221 -53q82 -52 82 -129zM393 616q-137 0 -221 48t-84 122q0 33 20 61t46 38h129q-10 -31 -11 -62q0 -145 125 -145q57 0 89 33t32 88q0 182 -358 182
l76 457h309q37 0 51 8t31 41h57l-45 -254h-371l-14 -82q213 0 327 -62t113 -215q0 -118 -82 -188t-219 -70zM344 -20l897 1478h111l-899 -1478h-109z" />
    <glyph glyph-name="uni215E" unicode="&#x215e;" horiz-adv-x="1576" 
d="M1282 620q0 70 -35 107t-92 37t-90 -32t-33 -77q0 -73 90 -106l109 -43q51 44 51 114zM1156 47q68 0 107 30q37 30 37 76t-22 68q-23 22 -78 47l-153 62q-51 -55 -51 -128t46 -114t114 -41zM1458 650q0 -76 -52 -116t-130 -47q104 -37 161 -102q56 -66 56 -147
q0 -127 -96 -193q-95 -65 -239 -65t-243 53q-98 53 -98 147q0 70 52 112t137 54q-162 72 -162 223q0 121 86 192t225 71t221 -53q82 -52 82 -129zM182 -20l897 1478h111l-899 -1478h-109zM268 1214q-86 0 -129 -124h-73l65 348h610v-62l-407 -753h-158l383 591h-291z" />
    <glyph glyph-name="partialdiff" unicode="&#x2202;" horiz-adv-x="1228" 
d="M625 66q88 0 125 105t36 312q0 555 -180 555q-88 0 -125 -105t-37 -312q1 -555 181 -555zM575 1122q121 0 179 -67q-137 387 -531 487l41 70q246 -31 429 -121t287 -221q206 -258 206 -587q0 -331 -152 -517t-416 -186t-420 158t-155 409q-1 251 157 413t375 162z" />
    <glyph glyph-name="Delta" unicode="&#x2206;" horiz-adv-x="1374" 
d="M549 965l-375 -854h750zM1337 0h-1300v80l596 1358h94l610 -1358v-80z" />
    <glyph glyph-name="product" unicode="&#x220f;" horiz-adv-x="1658" 
d="M1059 1339h-459v-1519q0 -82 24 -105t126 -32v-86h-699v86q100 11 124 33t24 104v1394q0 82 -24 105t-124 33v86h1557v-86q-100 -10 -124 -33t-24 -105v-1394q0 -82 24 -105t124 -32v-86h-699v86q102 11 126 33t24 104v1519z" />
    <glyph glyph-name="summation" unicode="&#x2211;" horiz-adv-x="1243" 
d="M756 -98q145 0 215 32t151 166h84l-90 -503h-1100v96l562 760l-535 874v111h1108v-383h-82q-41 90 -64 131q-68 117 -147 142q-47 15 -117 15h-292l407 -667v-25l-563 -749h463z" />
    <glyph glyph-name="minus" unicode="&#x2212;" horiz-adv-x="1175" 
d="M133 686v141h907v-141h-907z" />
    <glyph glyph-name="radical" unicode="&#x221a;" horiz-adv-x="1228" 
d="M41 1118h514l182 -624l369 964h117l-568 -1458h-147l-291 909q-20 61 -46 86t-79 31l-51 4v88z" />
    <glyph glyph-name="infinity" unicode="&#x221e;" horiz-adv-x="1550" 
d="M1141 500q84 0 141 58t57 156t-57 155q-58 58 -156 58t-188 -104l-92 -108l92 -113q88 -102 203 -102zM410 377q-139 0 -233 91q-93 91 -93 246t94 247t232 92q170 0 297 -150l67 -80l70 80q123 150 297 150q137 0 231 -92t94 -247t-93 -246t-232 -91q-172 0 -297 147
l-70 80l-67 -80q-127 -147 -297 -147zM219 714q0 -98 57 -156t142 -58q119 0 203 102l92 113l-92 108q-88 104 -203 105q-84 0 -142 -58t-57 -156z" />
    <glyph glyph-name="integral" unicode="&#x222b;" horiz-adv-x="911" 
d="M567 1253v-1159q0 -496 -442 -495q-133 0 -213 50t-80 134t70 131h174v-121q0 -117 63 -117q70 0 70 127v1160q0 496 440 495q133 0 213 -50t80 -136t-70 -129h-172v121q0 117 -65 116q-68 0 -68 -127z" />
    <glyph glyph-name="approxequal" unicode="&#x2248;" horiz-adv-x="1196" 
d="M389 731q80 0 209 -40t207 -40q125 0 248 82v-141q-123 -82 -248 -82q-78 0 -207 39t-209 39q-121 0 -246 -80v139q123 84 246 84zM389 1016q80 0 209 -41t207 -41q121 0 248 84v-141q-127 -84 -248 -84q-78 0 -207 41t-209 40q-119 1 -246 -83v141q127 84 246 84z" />
    <glyph glyph-name="notequal" unicode="&#x2260;" horiz-adv-x="1196" 
d="M143 838v135h539l156 215h147l-156 -215h224v-135h-322l-121 -166h443v-131h-537l-156 -215h-145l156 215h-228v131h322l119 166h-441z" />
    <glyph glyph-name="lessequal" unicode="&#x2264;" horiz-adv-x="911" 
d="M109 268v138h649v-138h-649zM109 821v19l649 350v-160l-385 -199l385 -202v-158z" />
    <glyph glyph-name="greaterequal" unicode="&#x2265;" horiz-adv-x="911" 
d="M803 406v-138h-649v138h649zM803 840v-19l-649 -350v158l387 202l-387 199v160z" />
    <glyph glyph-name="lozenge" unicode="&#x25ca;" horiz-adv-x="1163" 
d="M934 719l-352 612l-353 -612l353 -610zM72 719l417 719h183l420 -719l-420 -719h-183z" />
    <glyph glyph-name="i.dot" horiz-adv-x="684" 
d="M356 1223q-90 0 -145 54t-55 134t55 135q55 56 145 56t146 -56t55 -135q1 -80 -55 -134t-146 -54zM537 1124v-964q0 -47 23 -62q24 -14 91 -18v-80h-606v80q67 4 91 18t24 62v719l-113 69v58l426 118h64z" />
    <glyph glyph-name="space_uni0326" 
d="M324 -199q0 57 44 93t126 34q82 0 134 -52t52 -148t-85 -164q-85 -66 -257 -66v74q92 0 142 32t52 77h-110q-98 25 -98 120z" />
    <glyph glyph-name="space_uni0326.alt" 
d="M680 1339q0 -55 -45 -91t-127 -36t-133 54t-51 150t85 162t257 67v-76q-92 0 -142 -31t-55 -76h113q98 -27 98 -123z" />
    <glyph glyph-name="space_dotbelowcomb" 
d="M513 -420q-87 0 -141 53t-55 129q1 76 55 129t141 53t141 -52q54 -54 54 -130t-54 -129t-141 -53z" />
    <glyph glyph-name="caron.Slovak" 
d="M717 1604v-23l-238 -397h-84l27 420h295z" />
    <glyph glyph-name="cedilla.alt" 
d="M508 -311q0 60 -75 72q-32 5 -87 8l62 149h65q105 0 165 -44t60 -124q0 -109 -112 -166t-277 -57l-16 72q104 0 160 27q55 28 55 63z" />
    <glyph glyph-name="grave.cap" 
d="M254 1827h369l100 -305h-113l-356 286v19z" />
    <glyph glyph-name="acute.cap" 
d="M723 1827v-19l-354 -286h-115l100 305h369z" />
    <glyph glyph-name="circumflex.cap" 
d="M639 1835l246 -313h-117l-256 143l-256 -143h-117l246 313h254z" />
    <glyph glyph-name="tilde.cap" 
d="M639 1522q-74 0 -160 61t-127 62q-70 0 -135 -115l-74 41q57 143 111 210t127 67q74 0 160 -62q86 -61 127 -62q68 0 135 113l74 -39q-57 -144 -111 -210t-127 -66z" />
    <glyph glyph-name="macron.cap" 
d="M225 1538v176h598v-176h-598z" />
    <glyph glyph-name="breve.cap" 
d="M527 1516q-144 0 -224 84t-80 235h94q27 -133 211 -133t207 133h96q0 -152 -79 -236q-81 -83 -225 -83z" />
    <glyph glyph-name="dotaccent.cap" 
d="M514 1518q-90 0 -145 55t-55 134t54 134q56 55 146 55t145 -55t55 -134t-54 -134q-56 -55 -146 -55z" />
    <glyph glyph-name="dieresis.cap" 
d="M559 1686q0 70 51 120t122 49q71 0 122 -50q51 -51 51 -121t-51 -119t-122 -49t-122 50t-51 120zM137 1686q0 70 51 120t122 49q71 0 122 -50q51 -49 51 -119t-51 -120t-123 -50t-122 50t-50 120z" />
    <glyph glyph-name="ring.cap" 
d="M317 1695q1 87 61 147t152 60t152 -60t59 -147q0 -87 -59 -147q-60 -60 -152 -59q-92 -1 -152 59t-61 147zM530 1800q-46 0 -74 -30t-28 -75q0 -46 28 -75t74 -29t75 29q28 29 28 75q0 45 -28 75t-75 30z" />
    <glyph glyph-name="hungarumlaut.cap" 
d="M924 1827v-19l-301 -286h-111l104 305h308zM555 1827v-19l-301 -286h-109l103 305h307z" />
    <glyph glyph-name="caron.cap" 
d="M885 1837l-246 -313h-254l-246 313h117l256 -143l256 143h117z" />
    <glyph glyph-name="exclamdown.cap" horiz-adv-x="600" 
d="M240 958h118l166 -958h-450zM300 1057q-80 -1 -138 59t-58 143t58 141t138 58q81 0 138 -58q58 -58 58 -141t-58 -143t-138 -59z" />
    <glyph glyph-name="questiondown.cap" horiz-adv-x="956" 
d="M692 1259q0 -83 -57 -143t-138 -59q-81 0 -139 59q-57 58 -57 142t57 142q56 58 138 58t139 -58t57 -141zM330 208q0 -64 37 -107q37 -42 113 -42q76 -1 111 57q36 58 36 120t-11 145h226q82 -41 82 -133q0 -123 -122 -196q-122 -72 -332 -72t-328 90t-117 258
q0 127 69 217q70 90 213 174q90 55 126 101t36 118v27h51q160 -61 160 -214t-160 -270q-66 -49 -99 -79q-91 -80 -91 -194z" />
    <glyph glyph-name="guilsinglleft.cap" horiz-adv-x="571" 
d="M47 715v12l383 412h94l-184 -418l184 -416h-94z" />
    <glyph glyph-name="guilsinglright.cap" horiz-adv-x="571" 
d="M524 727v-12l-383 -410h-94l184 416l-184 418h94z" />
    <glyph glyph-name="guillemotleft.cap" horiz-adv-x="960" 
d="M436 715v12l383 412h94l-184 -418l184 -416h-94zM47 715v12l383 412h94l-184 -418l184 -416h-94z" />
    <glyph glyph-name="guillemotright.cap" horiz-adv-x="960" 
d="M524 727v-12l-383 -410h-94l184 416l-184 418h94zM913 727v-12l-383 -410h-94l185 416l-185 418h94z" />
    <glyph glyph-name="slash.cap" horiz-adv-x="739" 
d="M721 1577l-543 -1784h-160l543 1784h160z" />
    <glyph glyph-name="backslash.cap" horiz-adv-x="739" 
d="M561 -207l-543 1784h160l543 -1784h-160z" />
    <glyph glyph-name="bar.cap" horiz-adv-x="419" 
d="M285 1577v-1784h-150v1784h150z" />
    <glyph glyph-name="brokenbar.cap" horiz-adv-x="419" 
d="M285 553v-760h-150v760h150zM285 1577v-760h-150v760h150z" />
    <glyph glyph-name="periodcentered.cap" horiz-adv-x="536" 
d="M61 713q-1 90 59 148q60 59 148 59t148 -58t59 -149q0 -91 -59 -149q-60 -58 -148 -58t-148 58t-59 149z" />
    <glyph glyph-name="bullet.cap" horiz-adv-x="753" 
d="M61 720q-1 132 93 226t224 94t222 -94t92 -226t-92 -226t-222 -94t-224 94t-93 226z" />
    <glyph glyph-name="hyphen.cap" horiz-adv-x="655" 
d="M594 641h-533v160h533v-160z" />
    <glyph glyph-name="endash.cap" horiz-adv-x="1105" 
d="M1044 651h-983v123h983v-123z" />
    <glyph glyph-name="emdash.cap" horiz-adv-x="1966" 
d="M1905 774v-123h-1844v123h1844z" />
    <glyph glyph-name="parenleft.cap" horiz-adv-x="759" 
d="M399 684q0 -526 316 -893h-115q-221 166 -349 405q-128 238 -128 488t128 488t349 405h115q-316 -367 -316 -893z" />
    <glyph glyph-name="parenright.cap" horiz-adv-x="759" 
d="M358 684q0 526 -313 893h113q221 -166 349 -405q128 -238 128 -488t-128 -488t-349 -405h-113q313 367 313 893z" />
    <glyph glyph-name="bracketleft.cap" horiz-adv-x="688" 
d="M408 1374v-1378q0 -76 41 -95t174 -28v-80h-449v1784h449v-80q-133 -7 -174 -27t-41 -96z" />
    <glyph glyph-name="bracketright.cap" horiz-adv-x="688" 
d="M283 -4v1378q0 76 -41 95t-174 28v80h446v-1784h-446v80q133 7 174 27t41 96z" />
    <glyph glyph-name="braceleft.cap" horiz-adv-x="751" 
d="M272 907v408q0 262 420 262v-59q-176 -23 -176 -201v-387q0 -111 -61 -166t-179 -80q116 -25 178 -80t62 -166v-383q0 -178 176 -200v-60q-420 0 -420 262v404q0 170 -170 205v36q170 35 170 205z" />
    <glyph glyph-name="braceright.cap" horiz-adv-x="768" 
d="M496 461v-404q0 -262 -420 -262v60q176 23 176 200v383q0 111 61 166t179 80q-117 25 -179 80q-61 55 -61 166v387q0 178 -176 201v59q420 0 420 -262v-408q0 -170 170 -205v-36q-170 -35 -170 -205z" />
    <glyph glyph-name="at.cap" horiz-adv-x="1812" 
d="M780 463q84 0 174 160t138 376q-29 66 -93 66q-115 0 -201 -164t-85 -326q-1 -112 67 -112zM1241 283q-152 0 -204 93t-25 238q-88 -164 -170 -248t-182 -83t-158 71q-59 70 -60 191q0 219 156 405t371 187q133 0 196 -84l154 67h84l-70 -188l-112 -410q-23 -63 -8 -113
t67 -51q119 0 203 150t84 384t-157 400q-157 168 -423 168q-329 0 -531 -238t-202 -573q0 -336 194 -511t494 -175q166 0 292 36t261 118l29 -41q-240 -213 -606 -213t-604 205q-236 204 -236 574t260 635t649 265q342 0 545 -190t203 -471t-152 -439t-342 -159z" />
    </font>
</defs>
</svg>
